<svg xmlns="http://www.w3.org/2000/svg" xmlns:xlink="http://www.w3.org/1999/xlink" fill="none" version="1.1" width="20.049711227416992" height="20" viewBox="0 0 20.049711227416992 20"><g><path d="M2.25559,20.0011C1.01012,20.0005,0.000613972,18.991,0,17.7455L0,6.54889C-2.96962e-7,5.30272,1.01054,4.29268,2.2567,4.2933L5.48025,4.2933L9.56705,0.208728C9.60759,0.165703,9.65366,0.128247,9.70405,0.0973413C9.89923,-0.0178897,10.1384,-0.0303695,10.3445,0.0639251L10.3757,0.0784054L10.4258,0.107366L10.4381,0.115163C10.4654,0.133485,10.4914,0.153578,10.5161,0.175312L10.5439,0.200931L14.6296,4.2855L17.7919,4.2855C19.0415,4.28426,20.054,5.29924,20.0497,6.54889L20.0497,17.7433C20.0497,18.989,19.0398,19.9989,17.7941,19.9989L2.25559,20.0011ZM1.4536,6.68478L1.4536,17.5428C1.4536,18.0858,1.89413,18.5259,2.43715,18.5252L17.6326,18.5252C18.1752,18.5252,18.615,18.0854,18.615,17.5428L18.615,6.68478C18.615,6.1422,18.1752,5.70234,17.6326,5.70234L16.0398,5.70234L17.0166,6.67921C17.2697,6.95236,17.2616,7.37667,16.9983,7.63996C16.735,7.90326,16.3107,7.91136,16.0375,7.6583L14.0816,5.70235L6.02939,5.70235L4.07343,7.6583C3.80028,7.91136,3.37597,7.90326,3.11267,7.63997C2.84938,7.37667,2.84128,6.95236,3.09434,6.67921L4.0712,5.70234L2.43827,5.70234C1.89481,5.70111,1.4536,6.14132,1.4536,6.68478ZM7.43732,4.29441L12.6725,4.29441L10.0549,1.67793L7.43732,4.29441ZM5.14943,15.5813C4.79155,15.6634,4.45019,15.3915,4.45019,15.0243C4.45019,14.6572,4.79155,14.3853,5.14943,14.4674L14.9058,14.4674C15.2637,14.3853,15.6051,14.6572,15.6051,15.0243C15.6051,15.3915,15.2637,15.6634,14.9058,15.5813L5.14943,15.5813ZM5.14943,11.1258C4.79155,11.2079,4.45019,10.936,4.45019,10.5689C4.45019,10.2017,4.79155,9.92978,5.14943,10.0119L14.9058,10.0119C15.2637,9.92978,15.6051,10.2017,15.6051,10.5689C15.6051,10.936,15.2637,11.2079,14.9058,11.1258L5.14943,11.1258Z" fill="#000000" fill-opacity="1"/></g></svg>