<svg xmlns="http://www.w3.org/2000/svg" xmlns:xlink="http://www.w3.org/1999/xlink" fill="none" version="1.1" width="46" height="46" viewBox="0 0 46 46"><defs><clipPath id="master_svg0_76_0250"><rect x="0" y="0" width="46" height="46" rx="0"/></clipPath></defs><g clip-path="url(#master_svg0_76_0250)"><ellipse cx="23" cy="23" rx="23.25" ry="23.25" fill="#37B85A" fill-opacity="1"/><path d="M14.800000234094238,10.699999809765625C16.60000033409424,9.899999619765625,17.799999234094237,10.599999429765624,18.89999963409424,12.399999659765625C20.199998834094238,14.599999459765625,21.00000003409424,16.700000759765626,19.199998834094238,17.899999659765626Q17.299999234094237,19.199998859765625,20.999998134094238,24.099998759765626Q25.299999634094238,29.799998759765625,27.299999634094238,27.799998759765625C29.30000063409424,26.199998759765627,30.50000063409424,27.499999759765625,32.39999863409424,29.199998759765624C34.30000063409424,30.899999759765624,34.69999763409424,32.49999975976563,32.80000063409424,34.49999975976563C29.00000063409424,38.29999875976563,21.799999234094237,31.600000759765624,19.00000003409424,28.299998759765625Q14.800000234094238,23.299998759765625,13.500000034094239,20.199998859765625L12.800000194094238,18.599998459765626C11.90000057409424,16.299999259765624,11.699999814094237,13.799998259765625,12.90000057409424,12.099998459765626Q13.399999634094238,11.300000189765624,14.800000234094238,10.699999809765625Z" fill="#FFFFFF" fill-opacity="1"/></g></svg>