<svg xmlns="http://www.w3.org/2000/svg" xmlns:xlink="http://www.w3.org/1999/xlink" fill="none" version="1.1" width="46" height="46" viewBox="0 0 46 46"><defs><clipPath id="master_svg0_76_0243"><rect x="0" y="0" width="46" height="46" rx="0"/></clipPath></defs><g clip-path="url(#master_svg0_76_0243)"><ellipse cx="23" cy="23" rx="23.25" ry="23.25" fill="#FC2E2B" fill-opacity="1"/><path d="M37.79999986968994,25.799999245239256C37.29999986968994,27.699998845239257,36.00000086968994,28.19999924523926,33.89999886968994,27.89999964523926C31.39999886968994,27.500000045239258,29.29999686968994,26.89999964523926,29.39999886968994,24.699998845239257Q29.599999869689942,22.39999964523926,23.499997869689942,22.199998845239257Q16.39999766968994,21.99999804523926,16.69999696968994,24.799999245239256C16.69999696968994,27.299999245239256,14.899996769689942,27.500000045239258,12.399996769689942,27.89999964523926C9.899996769689942,28.299999245239256,8.399996759689941,27.699998845239257,8.099996566689942,24.89999964523926C7.499996659689941,19.500000045239258,17.29999546968994,18.099998474239257,21.599996869689942,18.099998474239257Q28.19999786968994,17.99999809223926,31.29999686968994,18.89999771523926L32.99999686968994,19.399997745239258C35.39999886968994,20.199996945239256,37.49999686968994,21.49999804523926,37.99999686968994,23.49999804523926C37.90000286968994,23.39999964523926,38.20000186968994,24.299999245239256,37.79999986968994,25.799999245239256Z" fill="#FFFFFF" fill-opacity="1"/></g></svg>