<svg xmlns="http://www.w3.org/2000/svg" xmlns:xlink="http://www.w3.org/1999/xlink" fill="none" version="1.1" width="24.363037109375" height="30.000030517578125" viewBox="0 0 24.363037109375 30.000030517578125"><path d="M20.35029579772949,25.60506436352539L3.9171962777294924,2.1019058635253907C3.535032267729492,1.5286655635253907,3.7261142727294922,0.7643308635253906,4.203821177729492,0.3821649535253906C4.777065297729492,3.5253906183196904e-9,5.445856097729492,0.09554100052539063,5.828025797729492,0.6687898635253906L22.261096797729493,24.171966363525392C22.643294797729492,24.745266363525392,22.54779479772949,25.41396736352539,21.97449479772949,25.79616536352539C21.496795797729494,26.27386436352539,20.73249479772949,26.17836736352539,20.35029579772949,25.60506436352539Z" fill="#FF3333" fill-opacity="1"/><path d="M17.197451637695313,16.815285C18.152865637695314,15.668787,18.72611463769531,14.235667,18.72611463769531,12.707006L18.72611463769531,6.4968152C18.72611463769531,2.9617836,15.764330837695313,0,12.229298137695313,0C10.222928237695312,0,8.407642037695313,0.955414,7.1656036376953125,2.388535L17.197451637695313,16.815285Z" fill="#FFFFFF" fill-opacity="1"/><path d="M5.636941909790039,8.694267272949219L5.636941909790039,12.70700547294922C5.636941909790039,16.24203637294922,8.598724809790038,19.20382027294922,12.133757609790038,19.20382027294922C12.42038110979004,19.20382027294922,12.70700640979004,19.20382027294922,12.89808800979004,19.10827827294922L5.636941909790039,8.694267272949219Z" fill="#FFFFFF" fill-opacity="1"/><path d="M20.445859081152342,21.59235672729492C22.834393981152346,19.394905127294923,24.363056681152344,16.24203772729492,24.363056681152344,12.707006127294921C24.363056681152344,11.942674637294921,23.789807781152344,11.369426727294922,23.025477381152342,11.369426727294922C22.261146981152343,11.369426727294922,21.687898181152345,11.942675527294922,21.687898181152345,12.707006127294921C21.687898181152345,15.286623727294922,20.636942481152342,17.67515902729492,18.917198181152344,19.394903227294922L20.445859081152342,21.59235672729492Z" fill="#FFFFFF" fill-opacity="1"/><path d="M14.808899,21.78342772729492C13.948999,22.070026727294923,13.089199,22.16562672729492,12.133801,22.16562672729492C6.8789806,22.16562672729492,2.6751595,17.86623762729492,2.6751595,12.707006427294921C2.6751595,11.942674637294921,2.1019096,11.369426727294922,1.3375797,11.369426727294922C0.57324791,11.369426727294922,0,11.942676547294923,0,12.707006427294921C0,18.91719822729492,4.5859909,23.98092672729492,10.605101,24.840724727294923L10.605101,28.375827727294922C10.605101,29.235625727294924,11.3694,30.000026727294923,12.2293,30.000026727294923C13.089199,30.000026727294923,13.8535,29.235625727294924,13.8535,28.375827727294922L13.8535,24.74522772729492C14.808899,24.649726727294922,15.6688,24.36302572729492,16.433102,24.07642772729492L14.808899,21.78342772729492Z" fill="#FFFFFF" fill-opacity="1"/></svg>