<svg xmlns="http://www.w3.org/2000/svg" xmlns:xlink="http://www.w3.org/1999/xlink" fill="none" version="1.1" width="29.9000244140625" height="22.70001220703125" viewBox="0 0 29.9000244140625 22.70001220703125"><path d="M21,0C22.5,0,23.599998,1.2000008,23.599998,2.6000004L23.599998,4L25.599998,2.3999996C26.399998,1.7999992,27.5,1.6999989,28.399998,2.1000004C29.299999,2.5,29.899998,3.5,29.899998,4.5L29.899998,18.5C29.899998,19.5,29.299999,20.400002,28.399998,20.900002C27.499996,21.300003,26.399998,21.200001,25.599998,20.600002L23.599998,19.000004L23.599998,20.100002C23.599998,21.600002,22.399998,22.700001,21,22.700001L2.6000004,22.700001C1.1000004,22.700001,0,21.5,0,20.100002L0,2.6000004C0,1.1000004,1.2000008,0,2.6000004,0L21,0Z" fill="#FFFFFF" fill-opacity="1"/></svg>