<svg xmlns="http://www.w3.org/2000/svg" xmlns:xlink="http://www.w3.org/1999/xlink" fill="none" version="1.1" width="30" height="31.826370239257812" viewBox="0 0 30 31.826370239257812"><path d="M29.499363056396483,8.626499137158202C28.559063056396486,7.451217637158203,26.913765056396485,7.216167437158203,25.738464056396484,8.156389237158203L23.740463056396486,10.859508537158202L23.740463056396486,8.273908637158204C23.740463056396486,6.863588337158204,22.565163056396486,5.570789337158203,21.037365056396485,5.570789337158203L8.932064056396484,5.570789337158203L23.505463056396486,26.4905893371582C23.622963056396486,26.255588337158205,23.622963056396486,26.020488337158202,23.622963056396486,25.667888337158203L23.622963056396486,23.4348873371582L25.620964056396485,26.1380883371582C26.091064056396483,26.4905893371582,26.678665056396483,26.725689337158204,27.266266056396486,26.725689337158204C28.676662056396484,26.725689337158204,29.969463056396485,25.550388337158203,29.969463056396485,24.140087337158203L29.969463056396485,10.271879237158203C30.086964056396486,9.684238437158204,29.851864056396483,9.096597637158203,29.499363056396483,8.626499137158202Z" fill="#FFFFFF" fill-opacity="1"/><path d="M1.8804302,5.805841445922852C0.82269001,6.158422465922851,0,7.098640445922852,0,8.273910545922853L0,25.78544244592285C0,27.19573944592285,1.1752701,28.48854044592285,2.7031193,28.48854044592285L17.746601,28.48854044592285L1.8804302,5.805841445922852Z" fill="#FFFFFF" fill-opacity="1"/><path d="M23.27033958630371,31.1917L3.055706026303711,2.2800293C2.585597996303711,1.5748596,2.703125000303711,0.63464737,3.4082870463037107,0.28206539C4.113450986303711,-0.18804264,4.936140086303711,-0.070516586,5.4062499863037115,0.63464737L25.62094158630371,29.546299C26.09104158630371,30.251499,25.97354158630371,31.0742,25.26834058630371,31.5443C24.68074058630371,32.0144,23.740440586303713,31.8969,23.27033958630371,31.1917Z" fill="#FF3333" fill-opacity="1"/></svg>