<svg xmlns="http://www.w3.org/2000/svg" xmlns:xlink="http://www.w3.org/1999/xlink" fill="none" version="1.1" width="24.2791748046875" height="30.100006103515625" viewBox="0 0 24.2791748046875 30.100006103515625"><path d="M12.400001525878906,19.200001C15.999999525878906,19.200001,18.900001525878906,16.300001,18.900001525878906,12.700001L18.900001525878906,6.5C18.900001525878906,2.8999996,15.999999525878906,0,12.400001525878906,0C8.800001125878907,0,5.900001525878906,2.8999996,5.900001525878906,6.5L5.900001525878906,12.700001C5.900001525878906,16.299999,8.800001125878907,19.200001,12.400001525878906,19.200001Z" fill="#FFFFFF" fill-opacity="1"/><path d="M23.200001,11.399999618530273C22.5,11.399999618530273,21.799999,11.999999998530274,21.799999,12.799999218530273C21.799999,18.000000018530272,17.599998,22.299999618530272,12.299999,22.299999618530272C7.0999985,22.299999618530272,2.7999992,18.099998518530274,2.7999992,12.799999218530273C2.7999992,12.099998478530274,2.1999989,11.399999618530273,1.3999996,11.399999618530273C0.69999886,11.399999618530273,0,11.999999998530274,0,12.799999218530273C0,19.000000018530272,4.6000004,24.09999861853027,10.5,24.900001618530275L10.5,28.499999618530275C10.5,29.400001618530272,11.200001,30.09999861853027,12.1,30.09999861853027C13,30.09999861853027,13.700001,29.399997618530275,13.700001,28.499999618530275L13.700001,24.900001618530275C19.600002,24.100002618530276,24.200001,19.000000018530272,24.200001,12.800001118530274C24.5,11.999999998530274,23.900002,11.399999618530273,23.200001,11.399999618530273Z" fill="#FFFFFF" fill-opacity="1"/></svg>