<svg xmlns="http://www.w3.org/2000/svg" xmlns:xlink="http://www.w3.org/1999/xlink" fill="none" version="1.1" width="24" height="24" viewBox="0 0 24 24"><defs><clipPath id="master_svg0_76_981"><rect x="0" y="0" width="24" height="24" rx="0"/></clipPath></defs><g clip-path="url(#master_svg0_76_981)"><path d="M15.999999,4.352943420410156C16.941175,4.352943420410156,17.764705,5.176472600410156,17.764705,6.117649320410156L17.764705,7.058825920410156L19.17647,6.000002420410157C20.000002,5.4117670204101564,21.058825,5.529414020410156,21.647058,6.352943920410157C21.882355,6.705885220410156,22,7.058825920410156,22,7.411767520410156L22,16.705885420410155C22,17.647060420410156,21.17647,18.470590420410154,20.235294,18.470590420410154C19.882355,18.470590420410154,19.411764,18.35294242041016,19.17647,18.117650420410158L17.764705,17.058827420410154L17.764705,17.882354420410156C17.764705,18.823531420410156,16.941175,19.647061420410154,15.999999,19.647061420410154L3.7647059,19.647061420410154C2.82352918,19.647061420410154,2,18.823531420410156,2,17.882354420410156L2,6.117649320410156C2,5.176472600410156,2.82352918,4.352943420410156,3.7647059,4.352943420410156L15.999999,4.352943420410156ZM15.999999,6.117649320410156L3.7647059,6.117649320410156L3.7647059,17.882354420410156L15.999999,17.882354420410156L15.999999,13.529414220410157L20.235294,16.705885420410155L20.235294,7.411767520410156L15.999999,10.705885420410155L15.999999,6.117649320410156Z" fill="#333333" fill-opacity="1"/></g></svg>