<svg xmlns="http://www.w3.org/2000/svg" xmlns:xlink="http://www.w3.org/1999/xlink" fill="none" version="1.1" width="24" height="24" viewBox="0 0 24 24"><defs><clipPath id="master_svg0_235_50"><rect x="0" y="0" width="24" height="24" rx="0"/></clipPath></defs><g clip-path="url(#master_svg0_235_50)"><path d="M3.7690155460937502,3.7675055146972656L3.69078084609375,3.8513287146972655C3.64104584609375,3.910005114697266,3.59578104609375,3.972033814697266,3.55610494609375,4.037974814697265L3.53151674609375,4.077650914697266L3.58348674609375,4.013945314697265C3.26857101609375,4.385595814697266,3.01571231609375,4.8056433146972655,2.83466708609375,5.257880214697265C1.67399698609375,8.164865014697266,3.63657524609375,12.894164814697266,7.16720394609375,16.414734814697265C10.01439474609375,19.253543814697267,14.04069824609375,21.501123814697266,16.655978246093753,21.500003814697266C17.409268246093752,21.500003814697266,18.114500246093748,21.376504814697267,18.74596824609375,21.125035814697267C19.33663924609375,20.891450814697265,19.85019724609375,20.562305814697265,20.26875324609375,20.144864814697264L21.07680924609375,19.339046814697266C21.64052624609375,18.776429814697266,21.64052624609375,17.863081814697267,21.07680924609375,17.300466814697266L17.36512124609375,13.601074814697265L17.28688624609375,13.528426814697266C16.71474124609375,13.037048814697267,15.86069124609375,13.069192814697265,15.32710224609375,13.602190814697266L14.04963924609375,14.876302814697265L13.91663924609375,14.877420814697265C12.99402524609375,14.858420814697265,11.95741274609375,14.307980814697265,10.80680084609375,13.161282814697266L10.65983104609375,13.012077814697266C9.60980704609375,11.925169914697266,9.106309846093751,10.941645614697265,9.09233904609375,10.059827314697266L9.09345624609375,9.926828414697265L10.36421394609375,8.659423314697266C10.92948624609375,8.097454514697265,10.92948624609375,7.182813614697266,10.36421394609375,6.620845314697266L6.65700054609375,2.9248037946972656C6.09375194609375,2.3584041346972655,5.17720034609375,2.3584041346972655,4.61395244609375,2.9248037946972656L3.7690155460937502,3.7675055146972656ZM5.05653814609375,4.9991467146972655L5.63547634609375,4.4213261146972656L8.86378284609375,7.640132914697266L7.75620074609375,8.746597814697266C7.50825024609375,8.994078114697267,7.35583064609375,9.321285714697265,7.32590864609375,9.670328114697266C7.19067384609375,11.253466614697265,7.96017024609375,12.838840814697265,9.54945614609375,14.422539814697265C11.13650604609375,16.004002814697266,12.72020424609375,16.773498814697266,14.29887224609375,16.646646814697263L14.41454824609375,16.632115814697265C14.72238624609375,16.582695814697267,15.00686024609375,16.437625814697263,15.22763124609375,16.217471814697266L16.34694924609375,15.100947814697266L19.57693124609375,18.319755814697267L19.01140624609375,18.883605814697265C18.76887924609375,19.125016814697265,18.46152524609375,19.322276814697265,18.08935024609375,19.469247814697265C17.67470624609375,19.634099814697265,17.193002246093748,19.719041814697267,16.65597624609375,19.719041814697267C14.60454524609375,19.719602814697264,10.97109414609375,17.690523814697265,8.42622514609375,15.153477814697265C5.34432934609375,12.081081414697266,3.65445514609375,8.009513814697264,4.4893333460937495,5.917847614697266C4.57650944609375,5.699348914697266,4.69162654609375,5.494261314697265,4.83412554609375,5.302585614697266L4.98891904609375,5.105881214697265L5.028036346093749,5.047204714697266L5.05653814609375,4.9991467146972655Z" fill="#333333" fill-opacity="1"/></g></svg>