<svg xmlns="http://www.w3.org/2000/svg" xmlns:xlink="http://www.w3.org/1999/xlink" fill="none" version="1.1" width="40" height="40" viewBox="0 0 40 40"><defs><clipPath id="master_svg0_573_2893"><rect x="0" y="0" width="40" height="40" rx="0"/></clipPath></defs><g clip-path="url(#master_svg0_573_2893)"><g><path d="M34,40L6,40C2.7,40,0,37.3,0,34L0,6C0,2.7,2.7,0,6,0L34,0C37.3,0,40,2.7,40,6L40,34C40,37.3,37.3,40,34,40Z" fill="#FEC757" fill-opacity="1"/></g><g><path d="M19.9,22.5L24.6,27.9C25.3,28.7,25.2,29.8,24.4,30.5C24.1,30.8,23.6,30.9,23.2,30.9L17,30.9L17,25.3L15.1,25.3L15.1,30.9L8.9,30.9C7.9,30.9,7,30.1,7,29C7,28.6,7.200001,28.1,7.4,27.8L12.1,22.4C13.3,23.1,14.6,23.5,15.9,23.5C17.5,23.6,18.8,23.2,19.9,22.5ZM16.1,10C19.5,10,22.3,12.8,22.3,16.2C22.3,19.6,19.5,22.4,16.1,22.4C12.7,22.4,9.9,19.6,9.9,16.2C9.9,12.8,12.7,10,16.1,10ZM27.1,28.5L31.1,28.5C31.6523,28.5,32.1,28.9477,32.1,29.5C32.1,30.0523,31.6523,30.5,31.1,30.5L27.1,30.5C26.5477,30.5,26.1,30.0523,26.1,29.5C26.1,28.9477,26.5477,28.5,27.1,28.5ZM27.1,22.5L31.1,22.5C31.6523,22.5,32.1,22.947699999999998,32.1,23.5C32.1,24.052300000000002,31.6523,24.5,31.1,24.5L27.1,24.5C26.5477,24.5,26.1,24.052300000000002,26.1,23.5C26.1,22.947699999999998,26.5477,22.5,27.1,22.5ZM27.1,25.5L31.1,25.5C31.6523,25.5,32.1,25.947699999999998,32.1,26.5C32.1,27.0523,31.6523,27.5,31.1,27.5L27.1,27.5C26.5477,27.5,26.1,27.0523,26.1,26.5C26.1,25.947699999999998,26.5477,25.5,27.1,25.5Z" fill="#FFFFFF" fill-opacity="1"/></g></g></svg>