<svg xmlns="http://www.w3.org/2000/svg" xmlns:xlink="http://www.w3.org/1999/xlink" fill="none" version="1.1" width="40" height="40" viewBox="0 0 40 40"><g><g><path d="M20,40C31.0457,40,40,31.0457,40,20C40,8.9543,31.0457,0,20,0C8.9543,0,0,8.9543,0,20C0,31.0457,8.9543,40,20,40C20,40,20,40,20,40Z" fill-rule="evenodd" fill="#0084FE" fill-opacity="1"/></g><g><path d="M22.959899999999998,21.726399999999998L26.9463,26.3784C27.349899999999998,26.8493,27.4424,27.5121,27.1832,28.0755C26.9239,28.639,26.360500000000002,29,25.740299999999998,29L20.45839,29L20.45839,24.235300000000002L18.87015,24.235300000000002L18.87015,29L13.58821,29C12.968013,29,12.404562,28.639,12.145371,28.0755C11.886179,27.5121,11.9786683,26.8493,12.382209,26.3784L16.36921,21.7269C17.36215,22.3306,18.50224,22.648899999999998,19.664270000000002,22.647100000000002C20.87133,22.647100000000002,21.99897,22.3109,22.959899999999998,21.726399999999998ZM19.664270000000002,11C22.5882,11,24.958399999999997,13.37018,24.958399999999997,16.29412C24.958399999999997,19.21806,22.5882,21.5882,19.664270000000002,21.5882C16.74033,21.5882,14.37015,19.21806,14.37015,16.29412C14.37015,13.37018,16.74033,11,19.664270000000002,11Z" fill="#FFFFFF" fill-opacity="1"/></g></g></svg>