<svg xmlns="http://www.w3.org/2000/svg" xmlns:xlink="http://www.w3.org/1999/xlink" fill="none" version="1.1" width="50" height="50" viewBox="0 0 50 50"><defs><linearGradient x1="0.5" y1="0" x2="0.5" y2="1" id="master_svg0_99_1666"><stop offset="0%" stop-color="#478BFF" stop-opacity="1"/><stop offset="100%" stop-color="#1169FF" stop-opacity="1"/></linearGradient><linearGradient x1="0.5" y1="0" x2="0.5" y2="1" id="master_svg1_99_1666"><stop offset="0%" stop-color="#478BFF" stop-opacity="1"/><stop offset="100%" stop-color="#1169FF" stop-opacity="1"/></linearGradient><linearGradient x1="0.5" y1="0" x2="0.5" y2="1" id="master_svg2_99_1670"><stop offset="0%" stop-color="#1169FF" stop-opacity="1"/><stop offset="100%" stop-color="#478BFF" stop-opacity="1"/></linearGradient><linearGradient x1="0.5" y1="0" x2="0.5" y2="1" id="master_svg3_99_1666"><stop offset="0%" stop-color="#478BFF" stop-opacity="1"/><stop offset="100%" stop-color="#1169FF" stop-opacity="1"/></linearGradient><linearGradient x1="0.5" y1="0" x2="0.5" y2="1" id="master_svg4_99_1670"><stop offset="0%" stop-color="#1169FF" stop-opacity="1"/><stop offset="100%" stop-color="#478BFF" stop-opacity="1"/></linearGradient><linearGradient x1="0.5" y1="0" x2="0.5" y2="1" id="master_svg5_99_1666"><stop offset="0%" stop-color="#478BFF" stop-opacity="1"/><stop offset="100%" stop-color="#1169FF" stop-opacity="1"/></linearGradient></defs><g><g><rect x="0" y="0" width="50" height="50" rx="25" fill="#F0F0F0" fill-opacity="1"/></g><g><g><rect x="7.936507225036621" y="22.61932373046875" width="5.1587300300598145" height="12.301586151123047" rx="2.5793650150299072" fill="url(#master_svg0_99_1666)" fill-opacity="1"/></g><g><rect x="16.86507797241211" y="15.278053879737854" width="5.1587300300598145" height="19.642854690551758" rx="2.5793650150299072" fill="url(#master_svg1_99_1666)" fill-opacity="1"/></g><g transform="matrix(0.7848071455955505,-0.6197400093078613,0.6197400093078613,0.7848072052001953,-7.359439871313668,13.440833912791732)"><path d="M15.686137762219238,38.48374997711181C15.67977590221924,39.89794997711182,16.82444346221924,41.04784997711182,18.23869346221924,41.04794997711181C19.644043462219237,41.04794997711181,20.785093462219237,39.91204997711182,20.79139346221924,38.50674997711182L20.87500346221924,19.881779977111815C20.881353462219238,18.467569977111815,19.73668346221924,17.317749977111816,18.32246346221924,17.317749977111816C16.917203462219238,17.317749977111816,15.776242462219239,18.453589977111818,15.769921162219239,19.858839977111817L15.686137762219238,38.48374997711181Z" fill="url(#master_svg2_99_1670)" fill-opacity="1"/></g><g><rect x="28.37301540374756" y="15.079641222953796" width="4.960317134857178" height="19.841266632080078" rx="2.480158567428589" fill="url(#master_svg3_99_1666)" fill-opacity="1"/></g><g transform="matrix(0.7848071455955505,-0.6197400093078613,0.6197399497032166,0.7848072052001953,-4.883012368549998,20.572760980063777)"><path d="M27.19407233253174,38.48374806976318C27.187710472531737,39.89794806976319,28.33237803253174,41.047848069763184,29.74662803253174,41.04794806976318C31.151978032531737,41.04794806976318,32.29302803253174,39.91204806976319,32.29932803253174,38.506748069763184L32.38293803253174,19.881778069763183C32.38928803253174,18.467568069763182,31.24461803253174,17.317748069763184,29.83039803253174,17.317748069763184C28.425138032531738,17.317748069763184,27.284177032531737,18.453588069763185,27.277855732531737,19.858838069763184L27.19407233253174,38.48374806976318Z" fill="url(#master_svg4_99_1670)" fill-opacity="1"/></g><g><rect x="7.936507225036621" y="15.348471283912659" width="5.105350494384766" height="6.456766128540039" rx="2.552675247192383" fill="url(#master_svg5_99_1666)" fill-opacity="1"/></g></g></g></svg>