<svg xmlns="http://www.w3.org/2000/svg" xmlns:xlink="http://www.w3.org/1999/xlink" fill="none" version="1.1" width="40" height="40" viewBox="0 0 40 40"><g><g><path d="M20,40C31.0457,40,40,31.0457,40,20C40,8.9543,31.0457,0,20,0C8.9543,0,0,8.9543,0,20C0,31.0457,8.9543,40,20,40C20,40,20,40,20,40Z" fill-rule="evenodd" fill="#FFBD4C" fill-opacity="1"/></g><g><path d="M23.3087,22.133499999999998L23.9112,22.8366L23.9117,24.235300000000002L21.78191,24.235300000000002L21.78191,27.9412L23.9117,27.9412L23.908,29L13.58821,29C12.968013,29,12.404562,28.639,12.145371,28.0755C11.886179,27.5121,11.9786683,26.8493,12.382209,26.3784L16.02033,22.133499999999998C17.11272,22.817,18.375709999999998,23.1784,19.664270000000002,23.1765C20.95301,23.1785,22.2162,22.8171,23.3087,22.133499999999998ZM26.546599999999998,23.1765L26.546599999999998,25.2941L28.6643,25.2941L28.6643,26.8824L26.546599999999998,26.8824L26.546599999999998,29L24.958399999999997,29L24.958399999999997,26.8824L22.8407,26.8824L22.8407,25.2941L24.958399999999997,25.2941L24.958399999999997,23.1765L26.546599999999998,23.1765ZM19.664270000000002,11C22.5882,11,24.958399999999997,13.37018,24.958399999999997,16.29412C24.958399999999997,19.21806,22.5882,21.5882,19.664270000000002,21.5882C16.74033,21.5882,14.37015,19.21806,14.37015,16.29412C14.37015,13.37018,16.74033,11.000000378665,19.664270000000002,11Z" fill="#FFFFFF" fill-opacity="1"/></g></g></svg>