<svg xmlns="http://www.w3.org/2000/svg" xmlns:xlink="http://www.w3.org/1999/xlink" fill="none" version="1.1" width="32" height="32" viewBox="0 0 32 32"><defs><clipPath id="master_svg0_344_4536"><rect x="0" y="0" width="32" height="32" rx="0"/></clipPath></defs><g clip-path="url(#master_svg0_344_4536)"><g><path d="M20.0192,3.00000332073C24.37,3.00000332073,27.8977,6.526949999999999,27.8977,10.87857C27.8977,13.641,26.4759,16.0703,24.3253,17.4775L30.752,24.9758C31.3713,25.6986,31.5132,26.7157,31.1154,27.5804C30.7176,28.4451,29.8529,28.9992,28.9011,28.9992L25.0208,29C25.4481,28.2606,25.5651,27.3815,25.3539,26.5626L28.9011,26.5618L20.6675,16.9559L22.9904,15.4374C24.9939,14.1319,25.9103,11.6713,25.2487,9.37332C24.5871,7.07534,22.5028,5.478619999999999,20.1118,5.43824C19.5284,4.60484,18.8159,3.8698069999999998,18.001,3.260808C18.6596,3.0870389,19.338,2.999373047,20.0192,3.00000332073ZM17.6898,18.7198L23.0521,24.9758C23.6716,25.6988,23.8135,26.7163,23.4153,27.5811C23.0171,28.446,22.1518,28.9998,21.1997,28.9992L3.43738,28.9992C2.4855799999999997,28.9992,1.620871,28.4451,1.223096,27.5804C0.825322,26.7157,0.967263,25.6986,1.586567,24.9758L6.9489,18.7198C7.63544,19.191,8.386980000000001,19.5745,9.18727,19.854L3.43738,26.5618L21.2005,26.5618L15.4498,19.854C16.2509,19.5745,17.0025,19.1918,17.6898,18.7198ZM12.3194,3.00000332073C16.6702,3.00000332073,20.1979,6.526949999999999,20.1979,10.87857C20.1979,15.2294,16.6702,18.7571,12.3194,18.7571C7.96774,18.7571,4.44079,15.2294,4.44079,10.87857C4.44079,6.52696,7.96774,3.00000332073,12.3194,3.00000332073ZM12.3194,5.43743C9.31429,5.43743,6.87821,7.87351,6.87821,10.87857C6.87821,13.8836,9.3143,16.319699999999997,12.3194,16.319699999999997C15.3244,16.319699999999997,17.7605,13.8836,17.7605,10.87857C17.7605,7.87351,15.3244,5.43743,12.3194,5.43743Z" fill="#A4AAB2" fill-opacity="1"/></g></g></svg>