<svg xmlns="http://www.w3.org/2000/svg" xmlns:xlink="http://www.w3.org/1999/xlink" fill="none" version="1.1" width="17.60161018371582" height="19.265625" viewBox="0 0 17.60161018371582 19.265625"><g><path d="M12.6868,12.6891C13.254,12.3844,13.9032,12.2109,14.5946,12.2109L14.5969,12.2109C14.6672,12.2109,14.7,12.1266,14.6485,12.0797C13.9266,11.4328,13.111,10.9148,12.218,10.5375C12.2086,10.5328,12.1993,10.5305,12.1899,10.5258C13.6454,9.46875,14.5922,7.75078,14.5922,5.8125C14.5922,2.60156,11.9954,0,8.79145,0C5.58755,0,2.99302,2.60156,2.99302,5.8125C2.99302,7.75078,3.93989,9.46875,5.3977,10.5258C5.38833,10.5305,5.37895,10.5328,5.36958,10.5375C4.32192,10.9805,3.38208,11.6156,2.57348,12.4266C1.76489,13.2352,1.13208,14.1773,0.689109,15.2273C0.255517,16.2539,0.0234852,17.3438,0.0000476837,18.4641C-0.00229597,18.5695,0.0820789,18.6562,0.187548,18.6562L1.59145,18.6562C1.69224,18.6562,1.77661,18.5742,1.77895,18.4734C1.82583,16.6641,2.55005,14.9695,3.83208,13.6852C5.1563,12.3562,6.9188,11.625,8.7938,11.625C10.1227,11.625,11.3977,11.993,12.4969,12.682C12.5555,12.7172,12.6258,12.7219,12.6868,12.6891ZM8.7938,9.84375C7.72036,9.84375,6.7102,9.42422,5.94848,8.6625C5.18911,7.90078,4.76958,6.88828,4.76958,5.8125C4.76958,4.73672,5.18911,3.72422,5.94848,2.9625C6.70786,2.20078,7.71802,1.78125,8.7938,1.78125C9.86958,1.78125,10.8774,2.20078,11.6391,2.9625C12.3985,3.72422,12.818,4.73672,12.818,5.8125C12.818,6.88828,12.3985,7.90078,11.6391,8.6625C10.8774,9.42422,9.86724,9.84375,8.7938,9.84375ZM17.4141,15.4219L15.4454,15.4219L15.4454,13.4531C15.4454,13.35,15.361,13.2656,15.2579,13.2656L13.9454,13.2656C13.8422,13.2656,13.7579,13.35,13.7579,13.4531L13.7579,15.4219L11.7891,15.4219C11.686,15.4219,11.6016,15.5063,11.6016,15.6094L11.6016,16.9219C11.6016,17.025,11.686,17.1094,11.7891,17.1094L13.7579,17.1094L13.7579,19.0781C13.7579,19.1812,13.8422,19.2656,13.9454,19.2656L15.2579,19.2656C15.361,19.2656,15.4454,19.1812,15.4454,19.0781L15.4454,17.1094L17.4141,17.1094C17.5172,17.1094,17.6016,17.025,17.6016,16.9219L17.6016,15.6094C17.6016,15.5063,17.5172,15.4219,17.4141,15.4219Z" fill="#000000" fill-opacity="1"/></g></svg>