<svg xmlns="http://www.w3.org/2000/svg" xmlns:xlink="http://www.w3.org/1999/xlink" fill="none" version="1.1" width="64" height="64" viewBox="0 0 64 64"><defs><clipPath id="master_svg0_7_0368"><rect x="0" y="0" width="64" height="64" rx="0"/></clipPath></defs><g clip-path="url(#master_svg0_7_0368)"><g><path d="M54.4,64L9.6,64C4.32,64,0,59.68,0,54.4L0,9.6C0,4.32,4.32,0,9.6,0L54.4,0C59.68,0,64,4.32,64,9.6L64,54.4C64,59.68,59.68,64,54.4,64Z" fill="#F68121" fill-opacity="1"/></g><g><path d="M37.599980468750005,35.999951171875L38.719980468749995,37.279951171875L38.719980468749995,39.839951171875L34.719980468749995,39.839951171875L34.719980468749995,46.719951171874996L38.719980468749995,46.719951171874996L38.719980468749995,48.639951171875L19.51998046875,48.639951171875C17.91998046875,48.639951171875,16.47998046875,47.359951171875,16.47998046875,45.599951171875C16.47998046875,44.959951171875005,16.79998046875,44.159951171875,17.11997946875,43.679951171875004L23.83998046875,35.679951171875004C25.919980468749998,36.959951171875005,28.15998046875,37.599951171875,30.719980468750002,37.599951171875C33.11998046875,37.919951171875,35.51998046875,37.279951171875,37.599980468750005,35.999951171875ZM43.67998046875,37.919951171875L43.67998046875,41.919951171875L47.67998046875,41.919951171875L47.67998046875,44.799951171875L43.67998046875,44.799951171875L43.67998046875,48.799951171875L40.63998046875,48.799951171875L40.63998046875,44.799951171875L36.63998046875,44.799951171875L36.63998046875,41.759951171875L40.63998046875,41.759951171875L40.63998046875,37.759951171875L43.67998046875,37.759951171875L43.67998046875,37.919951171875ZM30.719980468750002,15.199951171875C36.15998046875,15.199951171875,40.63998046875,19.679951171875,40.63998046875,25.119951171875C40.63998046875,30.559951171875,36.15998046875,35.039951171875,30.719980468750002,35.039951171875C25.27998046875,35.039951171875,20.79998046875,30.559951171875,20.79998046875,25.119951171875C20.79998046875,19.679951171875,25.27998046875,15.199951171875,30.719980468750002,15.199951171875Z" fill="#FFFFFF" fill-opacity="1"/></g></g></svg>