<svg xmlns="http://www.w3.org/2000/svg" xmlns:xlink="http://www.w3.org/1999/xlink" fill="none" version="1.1" width="64" height="64" viewBox="0 0 64 64"><defs><clipPath id="master_svg0_7_0386"><rect x="0" y="0" width="64" height="64" rx="0"/></clipPath></defs><g clip-path="url(#master_svg0_7_0386)"><g><path d="M54.4,64L9.6,64C4.32,64,0,59.68,0,54.4L0,9.6C0,4.32,4.32,0,9.6,0L54.4,0C59.68,0,64,4.32,64,9.6L64,54.4C64,59.68,59.68,64,54.4,64Z" fill="#86BBFF" fill-opacity="1"/></g><g><path d="M50.87998779296875,40.480078125L48.15998779296875,40.480078125L48.15998779296875,33.440078125L33.75998779296875,33.440078125L33.75998779296875,28.800078125L45.59998779296875,28.800078125C46.07998779296875,28.800078125,46.39998779296875,28.480078125,46.39998779296875,28.000078125L46.39998779296875,14.880078125C46.39998779296875,14.400078125,46.07998779296875,14.080078125,45.59998779296875,14.080078125L18.39998779296875,14.080078125C17.91998779296875,14.080078125,17.59998779296875,14.400078125,17.59998779296875,14.880078125L17.59998779296875,28.160078125C17.59998779296875,28.640078125000002,17.91998779296875,28.960078125000003,18.39998779296875,28.960078125000003L30.23998779296875,28.960078125000003L30.23998779296875,33.600078124999996L15.83998779296875,33.600078124999996L15.83998779296875,40.640078125L13.27998779296875,40.640078125C13.11998779296875,40.640078125,12.79998779296875,40.800078125,12.79998779296875,41.120078125L12.79998779296875,49.600078125C12.79998779296875,49.760078125,12.95998879296875,50.080078125,13.27998779296875,50.080078125L22.07998779296875,50.080078125C22.239987792968748,50.080078125,22.559987792968748,49.920078125,22.559987792968748,49.600078125L22.559987792968748,40.800078125C22.559987792968748,40.640078125,22.39998779296875,40.320078124999995,22.07998779296875,40.320078124999995L19.35998779296875,40.320078124999995L19.35998779296875,36.800078125L30.39998779296875,36.800078125L30.39998779296875,40.480078125L27.679987792968753,40.480078125C27.51998779296875,40.480078125,27.19998779296875,40.640078125,27.19998779296875,40.960078124999995L27.19998779296875,49.600078125C27.19998779296875,49.760078125,27.359987792968752,50.080078125,27.679987792968753,50.080078125L36.47998779296875,50.080078125C36.63998779296875,50.080078125,36.95998779296875,49.920078125,36.95998779296875,49.600078125L36.95998779296875,40.800078125C36.95998779296875,40.640078125,36.79998779296875,40.320078124999995,36.47998779296875,40.320078124999995L33.75998779296875,40.320078124999995L33.75998779296875,36.800078125L44.79998779296875,36.800078125L44.79998779296875,40.480078125L42.07998779296875,40.480078125C41.919987792968755,40.480078125,41.59998779296875,40.640078125,41.59998779296875,40.960078124999995L41.59998779296875,49.600078125C41.59998779296875,49.760078125,41.75998779296875,50.080078125,42.07998779296875,50.080078125L50.87998779296875,50.080078125C51.03998779296875,50.080078125,51.35998779296875,49.920078125,51.35998779296875,49.600078125L51.35998779296875,40.800078125C51.19998779296875,40.640078125,51.03998779296875,40.480078125,50.87998779296875,40.480078125ZM19.19998779296875,46.720078125Q19.19998779296875,46.880078125,19.19998779296875,46.720078125L16.15998779296875,46.880078125Q15.99998779296875,46.880078125,15.99998779296875,46.720078125L15.99998779296875,43.840078125000005Q15.99998779296875,43.680078125,16.15998779296875,43.680078125L19.039987792968752,43.680078125Q19.19998779296875,43.680078125,19.19998779296875,43.840078125000005L19.19998779296875,46.720078125ZM33.59998779296875,46.720078125Q33.59998779296875,46.880078125,33.59998779296875,46.720078125L30.55998779296875,46.880078125Q30.39998779296875,46.880078125,30.39998779296875,46.720078125L30.39998779296875,43.840078125000005Q30.39998779296875,43.680078125,30.55998779296875,43.680078125L33.43998779296875,43.680078125Q33.59998779296875,43.680078125,33.59998779296875,43.840078125000005L33.59998779296875,46.720078125ZM20.79998779296875,25.600078125L20.79998779296875,17.120078125L43.19998779296875,17.120078125L43.19998779296875,25.600078125L20.79998779296875,25.600078125ZM47.99998779296875,46.720078125Q47.99998779296875,46.880078125,47.99998779296875,46.720078125L44.95998779296875,46.880078125Q44.79998779296875,46.880078125,44.79998779296875,46.720078125L44.79998779296875,43.840078125000005Q44.79998779296875,43.680078125,44.95998779296875,43.680078125L47.83998779296875,43.680078125Q47.99998779296875,43.680078125,47.99998779296875,43.840078125000005L47.99998779296875,46.720078125Z" fill="#FFFFFF" fill-opacity="1"/></g><g><path d="M24.47998046875,21.440107421875C24.47998046875,22.560107421875,25.43998146875,23.520107421875,26.55998046875,23.520107421875C27.67998046875,23.520107421875,28.63998046875,22.560107421875,28.63998046875,21.440107421875C28.63998046875,20.320108421875,27.67998046875,19.360107421875,26.55998046875,19.360107421875C25.27998046875,19.360108947755,24.47998046875,20.320108421875,24.47998046875,21.440107421875Z" fill="#FFFFFF" fill-opacity="1"/></g></g></svg>