<svg xmlns="http://www.w3.org/2000/svg" xmlns:xlink="http://www.w3.org/1999/xlink" fill="none" version="1.1" width="18.697343826293945" height="18" viewBox="0 0 18.697343826293945 18"><g><path d="M0.829278,12.817L7.61428,12.817C6.93578,12.2893,6.25728,11.6862,5.72956,10.9323L0.829278,10.9323C0.376945,10.9323,0,11.3092,0,11.7616L0,11.9123C0,12.4401,0.376945,12.817,0.829278,12.817ZM16.1332,13.0432C15.9825,12.5908,15.4547,12.3647,15.0778,12.5908L14.8516,12.6662C14.3993,12.817,14.1731,13.2693,14.3239,13.6463L15.8317,17.4911C15.9825,17.9435,16.5102,18.0942,16.8871,17.9435L17.1133,17.8681C17.5656,17.7173,17.7918,17.265,17.641,16.888L16.1332,13.0432ZM12.59,15.9833L0.829278,15.9833C0.376945,15.9833,0,16.3603,0,16.8126L0,16.9634C0,17.4157,0.376945,17.7927,0.829278,17.7927L12.59,17.7927C13.0423,17.7927,13.4192,17.4157,13.4192,16.9634L13.4192,16.8126C13.4192,16.3603,13.0423,15.9833,12.59,15.9833ZM6.18189,7.31361C6.70962,10.7815,9.95134,13.0432,13.4192,12.5155C16.8871,11.9877,19.1488,8.746,18.6211,5.27811C18.0933,1.81022,14.8516,-0.451446,11.3837,0.0762764C8.59434,0.52861,6.48345,2.71489,6.18189,5.50428C6.1065,6.10739,6.1065,6.7105,6.18189,7.31361ZM12.4392,1.50867C15.0778,1.50867,17.1887,3.69495,17.1887,6.33356C17.1887,8.97217,15.0024,11.0831,12.3638,11.0831C9.72517,11.0831,7.61428,8.89678,7.61428,6.25817C7.68967,3.69495,9.80056,1.50867,12.4392,1.50867ZM0.904667,5.80584C0.376945,5.80584,1.04849e-7,6.18278,1.04849e-7,6.7105L1.04849e-7,6.86128C1.04849e-7,7.389,0.452334,7.76595,0.904667,7.76595L4.44795,7.76595C4.37256,7.23823,4.29717,6.78589,4.29717,6.25817L4.29717,5.73045L0.904667,5.80584ZM0.829278,2.33795L5.35262,2.33795C5.72956,1.65944,6.25728,0.980944,6.78501,0.453222L0.829278,0.453222C0.376945,0.453222,0,0.830167,0,1.2825L0,1.50867C0,1.961,0.376945,2.41333,0.829278,2.33795Z" fill="#000000" fill-opacity="1"/></g></svg>