<svg xmlns="http://www.w3.org/2000/svg" xmlns:xlink="http://www.w3.org/1999/xlink" fill="none" version="1.1" width="24" height="24" viewBox="0 0 24 24"><defs><clipPath id="master_svg0_344_4571"><rect x="0" y="0" width="24" height="24" rx="0"/></clipPath></defs><g clip-path="url(#master_svg0_344_4571)"><g><path d="M19,5C19.8,5,20.5,5.7,20.5,6.5L20.5,17.5C20.5,18.3,19.8,19,19,19L5,19C4.2,19,3.5,18.3,3.5,17.5L3.5,6.5C3.5,5.7,4.2,5,5,5L19,5ZM19,6.5L5,6.5L5,17.5L19,17.5L19,6.5ZM17.3,8.7L17.3,10.2C14.9,10.2,13.5,10.9,12.8,12.4L12.7,12.5L12.6,12.6C11.6,14.8,9.6,15.9,6.8,15.9L6.8,14.4C9.1,14.4,10.5,13.6,11.3,12L11.4,11.9L11.5,11.8C12.4,9.7,14.4,8.7,17.3,8.7ZM8,8.3C8.6,8.3,9,8.7,9,9.3C9,9.9,8.6,10.3,8,10.3C7.4,10.3,7,9.9,7,9.3C7,8.7,7.5,8.3,8,8.3Z" fill="#333333" fill-opacity="1"/></g></g></svg>