<svg xmlns="http://www.w3.org/2000/svg" xmlns:xlink="http://www.w3.org/1999/xlink" fill="none" version="1.1" width="24" height="24" viewBox="0 0 24 24"><defs><clipPath id="master_svg0_344_4582"><rect x="0" y="0" width="24" height="24" rx="0"/></clipPath></defs><g clip-path="url(#master_svg0_344_4582)"><g><path d="M19.6569,5L4.27668,5C3.01186,5,2,5.996678,2,7.24252L2,17.7575C2,18.9535,3.01186,20,4.27668,20L19.6569,20C20.9217,20,21.9336,19.0033,21.9336,17.7575L21.9336,7.19269C21.9336,5.996678,20.9217,5,19.6569,5ZM19.6569,6.19601C19.9604,6.19601,20.2134,6.29568,20.4158,6.49502C20.6181,6.69435,20.7193,6.9435199999999995,20.7193,7.19269L20.7193,17.7076C20.7193,18.2558,20.264,18.7542,19.6569,18.7542L4.27668,18.7542C3.6695599999999997,18.7542,3.2142299999999997,18.3056,3.2142299999999997,17.7076L3.2142299999999997,7.19269C3.2142299999999997,6.64452,3.6695599999999997,6.14618,4.27668,6.14618L19.6569,6.14618L19.6569,6.19601ZM12.3785,16.1794C11.96194,16.179299999999998,11.69098,15.7411,11.87704,15.3684C12.0041,15.113,12.201,14.9018,12.4688,14.73424C12.6576,14.61588,12.8806,14.52244,13.1104,14.43897L13.5982,14.26767L13.7913,14.19603C14.2304,14.02535,14.5737,13.81979,14.5737,13.43357C14.5737,13.2305,14.4939,12.975719999999999,14.3345,12.74711L14.2379,12.61256L13.8567,12.13415C13.6181,11.82705,13.5384,11.374189999999999,13.5384,11.14495C13.5384,11.043420000000001,13.5695,11.00168,13.6044,10.97427L13.6561,10.9369C13.6798,10.91696,13.6972,10.89142,13.6972,10.840959999999999C13.6866,10.027429999999999,13.7981,9.419450000000001,14.5737,9.00957C14.7325,8.92548,15.1081,8.88125,15.2882,8.88125C15.3442,8.87564,15.3685,8.85882,15.3841,8.83764L15.4171,8.78532C15.447,8.74358,15.5068,8.70434,15.7236,8.70434C16.1578,8.70434,16.761400000000002,8.89122,17.049799999999998,9.471160000000001C17.2304,9.8337,17.3071,10.21867,17.3395,10.492750000000001L17.3544,10.6435L17.360599999999998,10.761230000000001L17.3625,10.840340000000001C17.3625,10.890799999999999,17.3799,10.91634,17.4036,10.93627L17.4553,10.97365C17.4902,11.0023,17.522,11.043420000000001,17.522,11.14495C17.522,11.374189999999999,17.453400000000002,11.82705,17.2086,12.13416L16.8673,12.55463L16.822400000000002,12.61256L16.7253,12.74711C16.5658,12.97573,16.486,13.22552,16.486,13.43358C16.486,13.8447,16.8723,14.05027,17.3494,14.2278L17.8814,14.41593L18.0957,14.49566C18.272,14.56418,18.4414,14.64142,18.5897,14.73424C18.8581,14.90243,19.0569,15.1136,19.1833,15.369C19.3686,15.7413,19.0983,16.1786,18.6825,16.1794L12.3785,16.1794ZM10.5216,9.98341L5.23921,9.98341C4.89037,9.98341,4.6411999999999995,9.73424,4.6411999999999995,9.38541C4.6411999999999995,9.036570000000001,4.89037,8.7874,5.23921,8.7874L10.5216,8.7874C10.87044,8.7874,11.11961,9.036570000000001,11.11961,9.38541C11.11961,9.73424,10.87044,9.98341,10.5216,9.98341ZM10.5216,13.07311L5.23921,13.07311C4.89037,13.07311,4.6411999999999995,12.82394,4.6411999999999995,12.47511C4.6411999999999995,12.12627,4.89037,11.8771,5.23921,11.8771L10.5216,11.8771C10.87044,11.8771,11.11961,12.12627,11.11961,12.47511C11.11961,12.77411,10.87044,13.07311,10.5216,13.07311ZM10.5216,16.113L5.23921,16.113C4.89037,16.113,4.6411999999999995,15.8638,4.6411999999999995,15.515C4.6411999999999995,15.1661,4.89037,14.91697,5.23921,14.91697L10.5216,14.91697C10.87044,14.91697,11.11961,15.1661,11.11961,15.515C11.11961,15.8638,10.87044,16.113,10.5216,16.113Z" fill-rule="evenodd" fill="#171A1D" fill-opacity="1"/></g></g></svg>