<svg xmlns="http://www.w3.org/2000/svg" xmlns:xlink="http://www.w3.org/1999/xlink" fill="none" version="1.1" width="24" height="24" viewBox="0 0 24 24"><defs><clipPath id="master_svg0_344_4460"><rect x="0" y="0" width="24" height="24" rx="0"/></clipPath></defs><g clip-path="url(#master_svg0_344_4460)"><g><path d="M18.6951,5C20.1256,5,21.2841,6.1585,21.2841,7.58899L21.2841,17.411C21.2841,18.8415,20.1256,20,18.6951,20L5.58899,20C4.1585,19.9899,3,18.831400000000002,3,17.4009L3,7.58899C3,6.1585,4.1585,5.000000181536,5.58899,5.000000181536L18.6951,5ZM20.0551,10.07723L4.21894,10.07723L4.21894,17.411C4.21894,18.1565,4.8133,18.7609,5.5587599999999995,18.771L18.685000000000002,18.771C19.4305,18.771,20.0349,18.1766,20.045,17.4312L20.045,17.411L20.0551,10.07723ZM10.87777,11.59839C10.94829,11.59839,11.00873,11.61854,11.06917,11.64876L14.7361,13.83479C14.9174,13.9456,14.9778,14.16723,14.867,14.34856C14.8368,14.39893,14.7864,14.4493,14.7361,14.47952L11.06917,16.6555C10.88784,16.7663,10.65614,16.7058,10.55541,16.5245C10.525179999999999,16.464100000000002,10.505040000000001,16.4036,10.505040000000001,16.3331L10.505040000000001,11.971119999999999C10.505040000000001,11.769639999999999,10.67629,11.59839,10.87777,11.59839ZM4.21894,7.5587599999999995L4.21894,8.84822L6.03224,8.84822L4.3499,7.01478C4.26931,7.186030000000001,4.22901,7.37743,4.21894,7.5587599999999995ZM18.6951,6.21894L16.9825,6.21894L19.2492,8.79785C19.2592,8.818,19.2794,8.82807,19.2895,8.84822L20.0651,8.84822L20.0651,7.58899C20.0651,6.84352,19.4708,6.23909,18.7253,6.22901L18.6951,6.21894ZM15.3506,6.21894L13.1142,6.21894L15.3506,8.80792C15.3606,8.818,15.3707,8.83815,15.3808,8.84822L17.6575,8.84822L15.3506,6.21894ZM11.49228,6.21894L9.30625,6.21894L11.54265,8.80792C11.55272,8.818,11.56279,8.83815,11.57287,8.84822L13.769,8.84822Q13.769,8.85829,11.49228,6.21894ZM7.69443,6.21894L5.58899,6.21894C5.49832,6.21894,5.40766,6.22901,5.3169900000000005,6.24916L7.67428,8.818L7.7045,8.84822L9.98119,8.84822L7.69443,6.21894Z" fill="#333333" fill-opacity="1"/></g></g></svg>