<svg xmlns="http://www.w3.org/2000/svg" xmlns:xlink="http://www.w3.org/1999/xlink" fill="none" version="1.1" width="24" height="24" viewBox="0 0 24 24"><defs><clipPath id="master_svg0_344_4573"><rect x="0" y="0" width="24" height="24" rx="0"/></clipPath></defs><g clip-path="url(#master_svg0_344_4573)"><g><path d="M12,3.5C16.7,3.5,20.5,7.3,20.5,12C20.5,16.7,16.7,20.5,12,20.5C7.3,20.5,3.5,16.7,3.5,12C3.5,7.3,7.3,3.5,12,3.5ZM12,5C8.1,5,5,8.1,5,12C5,15.9,8.1,19,12,19C15.9,19,19,15.9,19,12C19,8.1,15.9,5,12,5ZM15.8,12.7L17.2,13.2C15.3,18.5,8.2,18.5,6.8,13.1L8.3,12.7C9.2,16.7,14.4,16.7,15.8,12.7ZM10,8.5C10.6,8.5,11,8.9,11,9.5L11,11C11,11.6,10.6,12,10,12C9.4,12,9,11.6,9,11L9,9.5C9,8.9,9.4,8.5,10,8.5ZM14,8.5C14.6,8.5,15,8.9,15,9.5L15,11C15,11.6,14.6,12,14,12C13.4,12,13,11.6,13,11L13,9.5C13,8.9,13.4,8.5,14,8.5Z" fill="#333333" fill-opacity="1"/></g></g></svg>