<svg xmlns="http://www.w3.org/2000/svg" xmlns:xlink="http://www.w3.org/1999/xlink" fill="none" version="1.1" width="24" height="24" viewBox="0 0 24 24"><defs><clipPath id="master_svg0_344_4569"><rect x="0" y="0" width="24" height="24" rx="0"/></clipPath></defs><g clip-path="url(#master_svg0_344_4569)"><g><path d="M10.8,4.5C11.5,4.5,12.1,5,12.3,5.7L12.3,6L18.5,6C19.3,6,20,6.7,20,7.5L20,18C20,18.8,19.3,19.5,18.5,19.5L5.5,19.5C4.7,19.5,4,18.8,4,18L4,6C4,5.2,4.7,4.5,5.5,4.5L10.8,4.5ZM10.8,6L5.5,6L5.5,18L18.5,18L18.5,10L11.7,10L10.8,6ZM17.5,15L17.5,16.5L6.5,16.5L6.5,15L17.5,15ZM18.5,7.5L12.7,7.5L12.9,8.5L18.5,8.5L18.5,7.5Z" fill="#333333" fill-opacity="1"/></g></g></svg>