<svg xmlns="http://www.w3.org/2000/svg" xmlns:xlink="http://www.w3.org/1999/xlink" fill="none" version="1.1" width="33.99885940551758" height="32.215999603271484" viewBox="0 0 33.99885940551758 32.215999603271484"><g><path d="M17.201,0C17.404,0,17.6,0.0760002,17.751,0.213L33.73,14.75C34.037,15.03,34.084,15.49,33.856,15.826L33.788,15.914C33.775,15.928,28.429,20.793,17.749,30.51C17.4145,30.8152,16.8953,30.7891,16.593,30.452C16.4565,30.3002,16.381,30.1032,16.381,29.899L16.381,21.466C15.621,21.486,14.873,21.558,14.143,21.681L13.923,21.719C7.873,22.823,3.01,26.327,1.393,32.216L1.27,31.949C0.79,30.865,0,28.634,0,26.408C0,17.124,7.262,9.548,16.382,9.117L16.382,0.824C16.382,0.369,16.749,0,17.201,0L17.201,0ZM19.382,5.753L19.382,11.979L16.523,12.114C9.941,12.424,4.553,17.244,3.283,23.549C5.921,21.133,9.389,19.499,13.407,18.765L13.647,18.723C14.5266,18.5755,15.4154,18.4903,16.307,18.468L19.382,18.39L19.382,24.97L29.942,15.36L19.382,5.753Z" fill="#888888" fill-opacity="1"/></g></svg>