<svg xmlns="http://www.w3.org/2000/svg" xmlns:xlink="http://www.w3.org/1999/xlink" fill="none" version="1.1" width="20" height="20" viewBox="0 0 20 20"><clipPath id="master_svg0_1_0054"><rect x="0" y="0" width="20" height="20" rx="0"/></clipPath><g clip-path="url(#master_svg0_1_0054)"><g><path d="M17.8108,4.191899C17.5261,3.9249022,17.0771,3.9376498,16.8101,4.223061L7.36529,14.279L2.20594,9.19546C1.9268990000000001,8.92068,1.478599,8.92351,1.203811,9.202549999999999C0.9290232,9.48085,0.9325643,9.92986,1.211601,10.20396L6.88795,15.796C6.89007,15.7982,6.89291,15.7989,6.89501,15.801C6.89716,15.8031,6.89786,15.8059,6.89999,15.8081C6.94461,15.8506,6.99843,15.8746,7.05013,15.903C7.0756,15.9178,7.09758,15.9398,7.12447,15.9504C7.20804,15.983,7.29657,16,7.38439,16C7.47716,16,7.56994,15.9816,7.65634,15.9448C7.6854,15.9327,7.70804,15.9079,7.73495,15.8924C7.78807,15.8612,7.84331,15.835,7.88864,15.789C7.89076,15.7868,7.89147,15.7833,7.89359,15.7812C7.89501,15.779,7.89784,15.7783,7.89997,15.7762L17.8412,5.19261C18.1103,4.908613,18.0955,4.460313,17.8108,4.191899Z" fill="#2384C8" fill-opacity="1"/></g></g></svg>