<?xml version="1.0" encoding="utf-8"?>
<!-- Generator: Adobe Illustrator 21.0.0, SVG Export Plug-In . SVG Version: 6.00 Build 0)  -->
<svg version="1.1" id="图层_1" xmlns="http://www.w3.org/2000/svg" xmlns:xlink="http://www.w3.org/1999/xlink" x="0px" y="0px"
	 viewBox="0 0 16 16" style="enable-background:new 0 0 16 16;" xml:space="preserve">
<style type="text/css">
	.st0{fill:#BBBBBB;}
</style>
<path class="st0" d="M14.1,1.4c0.3,0,0.6,0.2,0.6,0.6l0,0v12.1c0,0.3-0.2,0.6-0.6,0.6l0,0H1.9c-0.3,0-0.6-0.2-0.6-0.6l0,0V1.9
	c0-0.3,0.2-0.6,0.6-0.6L14.1,1.4 M14.1,0.3H1.9C1,0.3,0.3,1,0.3,1.9c0,0,0,0,0,0v12.1c0,0.9,0.7,1.7,1.7,1.7c0,0,0,0,0,0h12.1
	c0.9,0,1.7-0.7,1.7-1.7v0V1.9C15.7,1,15,0.3,14.1,0.3C14.1,0.3,14.1,0.3,14.1,0.3z"/>
</svg>
