<svg xmlns="http://www.w3.org/2000/svg" xmlns:xlink="http://www.w3.org/1999/xlink" fill="none" version="1.1" width="16" height="16" viewBox="0 0 16 16"><clipPath id="master_svg0_1_01"><rect x="0" y="0" width="16" height="16" rx="0"/></clipPath><g clip-path="url(#master_svg0_1_01)"><g><g style="mix-blend-mode:passthrough"><g><path d="M14.941279411315918,12.69402856968994L14.942460661315918,12.69402856968994L14.942460661315918,12.686921119689941L14.941279411315918,12.69402856968994Z" fill="#2384C8" fill-opacity="1"/><path d="M16.0002,7.99999C16.0002,3.58838,12.411,0,8.00025,0C3.58838,0,0,3.58838,0,7.99999C0,12.4113,3.58838,16,8.00025,16C12.411,16,16.0002,12.4113,16.0002,7.99999ZM8.00025,14.8521C4.22234,14.8521,1.14814,11.7773,1.14814,7.99999C1.14814,4.22211,4.22234,1.14818,8.00025,1.14818C11.7776,1.14818,14.8518,4.22211,14.8518,7.99999C14.8518,11.7773,11.7776,14.8521,8.00025,14.8521Z" fill="#2384C8" fill-opacity="1"/><path d="M11.277832411346434,10.505359539337158L8.804162411346436,8.024349539337159L11.275572411346435,5.580426539337158C11.499912411346436,5.358913539337158,11.501612411346436,4.996878539337159,11.280072411346435,4.772511539337158C11.058562411346436,4.5478692393371585,10.695952411346436,4.546156639337158,10.471572411346436,4.7682405393371585L7.997922411346435,7.215019539337158L5.561103411346435,4.770523539337158C5.337898411346435,4.547297939337158,4.976394411346435,4.546176039337158,4.752617411346436,4.769381539337158C4.529392211346435,4.992902539337158,4.529392211346435,5.354366539337159,4.751475411346435,5.577611539337158L7.185462411346435,8.018699539337158L4.732222411346435,10.445279539337157C4.507855011346436,10.667369539337159,4.505591111346436,11.028299539337159,4.727694411346436,11.252699539337158C4.839868411346435,11.36601953933716,4.986060411346435,11.422639539337158,5.133355411346436,11.422639539337158C5.278405411346435,11.422639539337158,5.424558411346435,11.367139539337158,5.535629411346435,11.257779539337157L7.992252411346436,8.827779539337158L10.468182411346437,11.312749539337158C10.579802411346435,11.424329539337158,10.726532411346437,11.480459539337158,10.873272411346434,11.480459539337158C11.019462411346435,11.480459539337158,11.165032411346434,11.424329539337158,11.276672411346436,11.313869539337158C11.499912411346436,11.091229539337158,11.500442411346436,10.729709539337158,11.277832411346434,10.505359539337158Z" fill="#2384C8" fill-opacity="1"/></g></g></g></g></svg>