<?xml version="1.0" encoding="utf-8"?>
<!-- Generator: Adobe Illustrator 21.0.0, SVG Export Plug-In . SVG Version: 6.00 Build 0)  -->
<svg version="1.1" id="图层_1" xmlns="http://www.w3.org/2000/svg" xmlns:xlink="http://www.w3.org/1999/xlink" x="0px" y="0px"
	 viewBox="0 0 18 18" style="enable-background:new 0 0 18 18;" xml:space="preserve">
<style type="text/css">
	.st0{fill:#2384C8;}
</style>
<path class="st0" d="M4,5.9v9.2c0,1,0.8,1.9,1.9,1.9h9.2c1,0,1.9-0.8,1.9-1.9V5.9c0-1-0.8-1.9-1.9-1.9L5.9,4C4.8,4,4,4.8,4,5.9z"/>
<path class="st0" d="M12.2,1H3.8C2.3,1,1,2.3,1,3.8v9c0,0.3,0.3,0.6,0.6,0.6c0.3,0,0.6-0.3,0.6-0.6v-9c0-0.8,0.7-1.5,1.5-1.5h8.8
	c0.3,0,0.6-0.3,0.6-0.6c0-0.3-0.3-0.6-0.6-0.6L12.2,1L12.2,1z"/>
</svg>
