<?xml version="1.0" encoding="utf-8"?>
<!-- Generator: Adobe Illustrator 21.0.0, SVG Export Plug-In . SVG Version: 6.00 Build 0)  -->
<svg version="1.1" id="图层_1" xmlns="http://www.w3.org/2000/svg" xmlns:xlink="http://www.w3.org/1999/xlink" x="0px" y="0px"
	 viewBox="0 0 12 12" style="enable-background:new 0 0 12 12;" xml:space="preserve">
<style type="text/css">
	.st0{fill:#444444;}
</style>
<path class="st0" d="M7.1,6l4.6-4.6c0.3-0.3,0.3-0.8,0-1.1s-0.8-0.3-1.1,0L6,4.9L1.4,0.2C1-0.1,0.6-0.1,0.2,0.2s-0.3,0.8,0,1.1
	L4.9,6l-4.6,4.6c-0.3,0.3-0.3,0.8,0,1.1C0.4,11.9,0.6,12,0.8,12s0.4-0.1,0.6-0.2L6,7.1l4.6,4.6c0.2,0.2,0.4,0.2,0.6,0.2
	s0.4-0.1,0.6-0.2c0.3-0.3,0.3-0.8,0-1.1L7.1,6z"/>
</svg>
