<svg xmlns="http://www.w3.org/2000/svg" xmlns:xlink="http://www.w3.org/1999/xlink" fill="none" version="1.1" width="30" height="30" viewBox="0 0 30 30"><defs><clipPath id="master_svg0_15_176"><rect x="0" y="0" width="30" height="30" rx="0"/></clipPath></defs><g clip-path="url(#master_svg0_15_176)"><g><path d="M15.700000381469726,23.3L15.700000381469726,24.1L17.100000381469727,24.1C17.500000381469725,24.1,17.800000381469726,24.4,17.800000381469726,24.8C17.800000381469726,25.2,17.500000381469725,25.5,17.100000381469727,25.5L12.900000381469727,25.5C12.500000381469727,25.5,12.200000381469726,25.2,12.200000381469726,24.8C12.200000381469726,24.4,12.500000381469727,24.1,12.900000381469727,24.1L14.300000381469726,24.1L14.300000381469726,23.3C10.800000381469726,23,8.100000381469727,20,8.100000381469727,16.4L8.100000381469727,15.8C8.100000381469727,15.4,8.400000381469727,15.1,8.800000381469726,15.1C9.200000381469726,15.1,9.500000381469727,15.4,9.500000381469727,15.8L9.500000381469727,16.4C9.500000381469727,19.5,12.000000381469727,21.9,15.000000381469727,21.9C18.100000381469727,21.9,20.500000381469725,19.4,20.500000381469725,16.4L20.500000381469725,15.8C20.500000381469725,15.4,20.800000381469726,15.1,21.200000381469728,15.1C21.600000381469727,15.1,21.900000381469727,15.4,21.900000381469727,15.8L21.900000381469727,16.4C21.900000381469727,20,19.200000381469728,23,15.700000381469726,23.3ZM15.000000381469727,4.5C17.300000381469726,4.5,19.200000381469728,6.4,19.200000381469728,8.7L19.200000381469728,16.5C19.200000381469728,18.8,17.300000381469726,20.7,15.000000381469727,20.7C12.700000381469726,20.7,10.800000381469726,18.8,10.800000381469726,16.5L10.800000381469726,8.7C10.800000381469726,6.4,12.700000381469726,4.5,15.000000381469727,4.5Z" fill="#F0F0F0" fill-opacity="1"/></g></g></svg>