<svg xmlns="http://www.w3.org/2000/svg" xmlns:xlink="http://www.w3.org/1999/xlink" fill="none" version="1.1" width="32" height="32" viewBox="0 0 32 32"><defs><clipPath id="master_svg0_344_2889"><rect x="0" y="0" width="32" height="32" rx="0"/></clipPath></defs><g clip-path="url(#master_svg0_344_2889)"><g><path d="" fill="#A4AAB2" fill-opacity="1"/></g><g><path d="M15.588418208312989,3.0850937366485596C19.15471820831299,3.0850937366485596,22.381118208312987,4.5327537366485595,24.72151820831299,6.882783736648559L24.76281820831299,6.92743373664856C27.074418208312988,9.26425373664856,28.497218208312987,12.47162373664856,28.497218208312987,15.996993736648559C28.497218208312987,17.393893736648558,28.27171820831299,18.74009373664856,27.85571820831299,19.99829373664856C27.46841820831299,21.19839373664856,26.90641820831299,22.315893736648558,26.201418208312987,23.33189373664856L26.201418208312987,27.91789373664856C26.201418208312987,28.47039373664856,25.76321820831299,28.91489373664856,25.21391820831299,28.91489373664856L25.18501820831299,28.91489373664856L15.588418208312989,28.91489373664856C12.022658208312988,28.91489373664856,8.796158208312988,27.454693736648558,6.458998208312988,25.14259373664856L6.458998208312988,25.12939373664856L6.442938208312988,25.14259373664856C4.118468208312988,22.79829373664856,2.6672182083129883,19.56629373664856,2.6672182083129883,15.996993736648559C2.6672182083129883,12.44587373664856,4.118468208312988,9.21962373664856,6.458998208312988,6.882783736648559L6.442938208312988,6.882783736648559C8.796188208312987,4.5327537366485595,12.022658208312988,3.0850937366485596,15.588418208312989,3.0850937366485596ZM9.148528208312989,13.41829373664856C8.811908208312989,13.41829373664856,8.551718208312987,13.15129373664856,8.551718208312987,12.82109373664856C8.551718208312987,12.49731373664856,8.811908208312989,12.22393373664856,9.148528208312989,12.22393373664856L22.01591820831299,12.22393373664856C22.35251820831299,12.22393373664856,22.606618208312987,12.49731373664856,22.606618208312987,12.82109373664856C22.606618208312987,13.15129373664856,22.35251820831299,13.41829373664856,22.01591820831299,13.41829373664856L9.148528208312989,13.41829373664856ZM9.148528208312989,16.59989373664856C8.811908208312989,16.59989373664856,8.551718208312987,16.33319373664856,8.551718208312987,15.996893736648559C8.551718208312987,15.67249373664856,8.811908208312989,15.39979373664856,9.148528208312989,15.39979373664856L22.01591820831299,15.39979373664856C22.35251820831299,15.39979373664856,22.606618208312987,15.67249373664856,22.606618208312987,15.996893736648559C22.606618208312987,16.33319373664856,22.35251820831299,16.59989373664856,22.01591820831299,16.59989373664856L9.148528208312989,16.59989373664856ZM9.148528208312989,19.77609373664856C8.811908208312989,19.77609373664856,8.551718208312987,19.50909373664856,8.551718208312987,19.16569373664856C8.551718208312987,18.86089373664856,8.811908208312989,18.581393736648558,9.148528208312989,18.581393736648558L22.01591820831299,18.581393736648558C22.35251820831299,18.581393736648558,22.606618208312987,18.86089373664856,22.606618208312987,19.16569373664856C22.606618208312987,19.50909373664856,22.35251820831299,19.77609373664856,22.01591820831299,19.77609373664856L9.148528208312989,19.77609373664856ZM23.30541820831299,8.27397373664856C21.32391820831299,6.29881373664856,18.60541820831299,5.06665373664856,15.588418208312989,5.06665373664856C12.571908208312989,5.06665373664856,9.840718208312989,6.29881373664856,7.852938208312988,8.27397373664856L7.852938208312988,8.26722373664856L7.852938208312988,8.27397373664856C5.871348208312988,10.248783736648559,4.652218208312989,12.97978373664856,4.652218208312989,15.996993736648559C4.652218208312989,19.02599373664856,5.871378208312988,21.76339373664856,7.852938208312988,23.71929373664856C9.840718208312989,25.70079373664856,12.559058208312988,26.92659373664856,15.588418208312989,26.92659373664856L24.213518208312987,26.92659373664856L24.213518208312987,23.02129373664856L24.22931820831299,23.02129373664856C24.22931820831299,22.82399373664856,24.283418208312987,22.62069373664856,24.410018208312987,22.44989373664856C25.086718208312988,21.52209373664856,25.623118208312988,20.49299373664856,25.975818208312987,19.39439373664856C26.32201820831299,18.32119373664856,26.512318208312987,17.19729373664856,26.512318208312987,15.996893736648559C26.512318208312987,13.00512373664856,25.29941820831299,10.28094373664856,23.35281820831299,8.31828373664856L23.30541820831299,8.27397373664856Z" fill="#A4AAB2" fill-opacity="1"/></g></g></svg>