<svg xmlns="http://www.w3.org/2000/svg" xmlns:xlink="http://www.w3.org/1999/xlink" fill="none" version="1.1" width="1029" height="826" viewBox="0 0 1029 826"><defs><linearGradient x1="0.3485338091850281" y1="0.16597196459770203" x2="0.6861244440078735" y2="0.14104603230953217" id="master_svg0_474_3613"><stop offset="0%" stop-color="#F9F9F9" stop-opacity="1"/><stop offset="100%" stop-color="#F2F2F2" stop-opacity="1"/></linearGradient><linearGradient x1="0.2666725516319275" y1="0.11564553529024124" x2="0.5" y2="0.37352126836776733" id="master_svg1_474_3614"><stop offset="0%" stop-color="#EAEAEA" stop-opacity="1"/><stop offset="100%" stop-color="#E6E6E6" stop-opacity="1"/></linearGradient><linearGradient x1="0.37024563550949097" y1="0.39071643352508545" x2="0.718864917755127" y2="0.9400793313980103" id="master_svg2_474_3615"><stop offset="0%" stop-color="#E0E0E0" stop-opacity="1"/><stop offset="100%" stop-color="#F4F4F4" stop-opacity="1"/></linearGradient><linearGradient x1="0.19842173159122467" y1="0.3532167375087738" x2="0.7010800838470459" y2="0.6952268481254578" id="master_svg3_474_3616"><stop offset="0%" stop-color="#EBEBEB" stop-opacity="1"/><stop offset="100%" stop-color="#F5F5F5" stop-opacity="1"/></linearGradient><linearGradient x1="0.5411428213119507" y1="0.19197721779346466" x2="0.5411428213119507" y2="0.8114495277404785" id="master_svg4_474_3617"><stop offset="0%" stop-color="#DFDFDF" stop-opacity="1"/><stop offset="100%" stop-color="#EAEAEA" stop-opacity="1"/></linearGradient><linearGradient x1="0.12323092669248581" y1="0.3949432075023651" x2="0.9311882257461548" y2="0.5" id="master_svg5_474_3618"><stop offset="0%" stop-color="#F8F8F8" stop-opacity="1"/><stop offset="100%" stop-color="#EFEFEF" stop-opacity="1"/></linearGradient></defs><g><g><path d="M965.556,588.0129L983,604.4258L981.974,621.865L962.478,643.407L933.747,661.871L816.773,714.187L573.588,811.639L560.248,810.613L532.544,798.303L508.944,814.716L485.343,822.923L461.743,826L437.117,822.923L326.299,785.994L254.472,787.019L90.2965,798.303L11.2871,787.019L4.10438,781.89L0,775.736L1.0261,751.116L9.23486,738.806L23.6002,727.523L48.2265,717.265L87.2182,708.032L144.68,702.903L151.862,692.645L152.888,685.465L148.784,677.258L139.549,670.077L71.8267,641.355L60.5397,632.123L52.3309,620.8389999999999L50.2787,609.5550000000001L59.5136,590.0645L84.1399,571.6001L109.792,562.3678L141.601,555.1872L266.785,555.1872L365.29,550.0581L441.221,542.8774L498.683,532.6194L567.431,514.1549L630.023,508L680.302,510.05166L783.937,527.4903L877.312,553.1355L965.556,588.0129Z" fill="#000000" fill-opacity="0.04500000178813934" style="mix-blend-mode:passthrough"/></g><g><g><path d="M160.62607955932617,109.883L463.4280795593262,5.13473L503.4590795593262,0L503.4590795593262,459.045L171.91697955932617,561.739L160.62607955932617,109.883Z" fill="url(#master_svg0_474_3613)" fill-opacity="1" style="mix-blend-mode:passthrough"/></g><g><path d="M501.3935546875,0L547.5836546875,4.1078L964.3205546875,118.099L945.8445546875,565.847L503.4464546875,460.072L501.3935546875,0Z" fill="url(#master_svg1_474_3614)" fill-opacity="1" style="mix-blend-mode:passthrough"/></g><g><path d="M161.64611053466797,120.1495048828125L170.88413053466797,540.1700048828125L173.96341053466796,558.6550048828125L183.20151053466796,575.0860048828125L195.51881053466798,588.4370048828125L212.96841053466795,596.6520048828124L576.3301105346679,720.9130048828125L613.2831105346679,723.9940048828125L613.2831105346679,246.4640048828125L610.203110534668,247.4910048828125L174.98991053466796,109.8800048828125L166.77834053466796,110.9069348828125L161.64611053466797,120.1495048828125Z" fill="url(#master_svg2_474_3615)" fill-opacity="1" style="mix-blend-mode:passthrough"/></g><g><path d="M125.7141,301.9158458862305L496.261,425.14884588623045L511.658,427.2028458862305L526.028,423.0948458862305L538.346,414.87984588623044L546.557,401.5298458862305L613.276,246.46084588623046L169.85129999999998,108.84984588623047L162.6661,108.84984588623047L157.53390000000002,115.01150588623047L101.07933,247.48784588623047L98,262.8918458862305L101.07933,278.2958458862305L109.2909,291.64584588623046L125.7141,301.9158458862305Z" fill="url(#master_svg3_474_3616)" fill-opacity="1" style="mix-blend-mode:passthrough"/></g><g><path d="M613.2890625,246.4705053100586L617.3948625,248.5245053100586L964.3340625000001,127.3445053100586L947.9110625000001,543.2575053100586L944.8310624999999,560.7155053100586L937.6460625,576.1195053100586L926.3550625,588.4435053100585L911.9850625,597.6855053100586L644.0824625,718.8655053100586L613.2890625,724.0005053100585L613.2890625,246.4705053100586Z" fill="url(#master_svg4_474_3617)" fill-opacity="1" style="mix-blend-mode:passthrough"/></g><g><path d="M613.2890625,246.47645904541017L626.6328625,243.39545904541015L954.0690625,117.08145904541016L962.2810625,117.08145904541016L967.4130625,123.24311904541015L1024.8940625,260.85345904541015L1029.0000625,277.28545904541016L1025.9210625,292.68945904541016L1017.7090625000001,305.0124590454102L1004.3650625,314.25545904541013L739.5420625,431.32645904541016L723.1190625,435.43445904541016L707.7221625,432.35345904541015L695.4047625000001,424.1384590454102L685.1403625,410.78845904541015L613.2890625,246.47645904541017Z" fill="url(#master_svg5_474_3618)" fill-opacity="1" style="mix-blend-mode:passthrough"/></g></g></g></svg>