<svg xmlns="http://www.w3.org/2000/svg" xmlns:xlink="http://www.w3.org/1999/xlink" fill="none" version="1.1" width="24" height="24" viewBox="0 0 24 24"><defs><clipPath id="master_svg0_235_085"><rect x="0" y="0" width="24" height="24" rx="0"/></clipPath></defs><g clip-path="url(#master_svg0_235_085)"><g><path d="M3.76901724609375,3.7675L3.69077724609375,3.8513200000000003C3.64104724609375,3.91,3.59577724609375,3.97203,3.5561072460937497,4.03797L3.53151724609375,4.07765L3.5834872460937497,4.01394C3.26857124609375,4.3855900000000005,3.01571224609375,4.80564,2.83466724609375,5.25788C1.67399724609375,8.164860000000001,3.6365772460937498,12.8942,7.16720724609375,16.4147C10.01439724609375,19.2535,14.04072724609375,21.5011,16.65602724609375,21.5C17.40922724609375,21.5,18.11452724609375,21.3765,18.74592724609375,21.125C19.33662724609375,20.8914,19.85022724609375,20.5623,20.26872724609375,20.1449L21.07682724609375,19.339C21.64052724609375,18.7764,21.64052724609375,17.8631,21.07682724609375,17.3005L17.36512724609375,13.6011L17.28692724609375,13.5284C16.71472724609375,13.037,15.86072724609375,13.0692,15.32712724609375,13.6022L14.04962724609375,14.8763L13.91662724609375,14.8774C12.99402724609375,14.8584,11.95741724609375,14.308,10.80679724609375,13.1613L10.65982724609375,13.0121C9.60980724609375,11.92517,9.106307246093749,10.94164,9.09233724609375,10.05982L9.093457246093749,9.92682L10.36421724609375,8.65942C10.92948724609375,8.09745,10.92948724609375,7.18281,10.36421724609375,6.62084L6.65699724609375,2.9248C6.09374724609375,2.3584,5.177197246093749,2.3584,4.61395724609375,2.9248L3.76901724609375,3.7675ZM5.05653724609375,4.999140000000001L5.63547724609375,4.42132L8.86378724609375,7.64013L7.75619724609375,8.746590000000001C7.50824724609375,8.99407,7.35582724609375,9.32128,7.32590724609375,9.67032C7.19067724609375,11.25346,7.96016724609375,12.8388,9.54945724609375,14.4225C11.13650724609375,16.003999999999998,12.72022724609375,16.7735,14.29882724609375,16.6466L14.41452724609375,16.6321C14.72242724609375,16.582700000000003,15.00682724609375,16.4376,15.22762724609375,16.2175L16.34692724609375,15.1009L19.57692724609375,18.3198L19.01142724609375,18.8836C18.76892724609375,19.125,18.461527246093752,19.3223,18.089327246093752,19.4692C17.674727246093752,19.6341,17.19302724609375,19.719,16.65592724609375,19.719C14.60452724609375,19.7196,10.97109724609375,17.6905,8.426227246093749,15.1535C5.34432724609375,12.08108,3.6544572460937497,8.009509999999999,4.48933724609375,5.91784C4.57650724609375,5.69935,4.69162724609375,5.494260000000001,4.83412724609375,5.30258L4.9889172460937505,5.10588L5.02803724609375,5.0472L5.05653724609375,4.999140000000001Z" fill="#A7AAAB" fill-opacity="1"/></g></g></svg>