<svg xmlns="http://www.w3.org/2000/svg" xmlns:xlink="http://www.w3.org/1999/xlink" fill="none" version="1.1" width="24" height="24" viewBox="0 0 24 24"><defs><clipPath id="master_svg0_235_50"><rect x="0" y="0" width="24" height="24" rx="0"/></clipPath></defs><g clip-path="url(#master_svg0_235_50)"><g><path d="M3.76901724609375,3.7675038146972657L3.69077724609375,3.851323814697266C3.64104724609375,3.9100038146972658,3.59577724609375,3.972033814697266,3.5561072460937497,4.037973814697265L3.53151724609375,4.077653814697266L3.5834872460937497,4.0139438146972655C3.26857124609375,4.385593814697266,3.01571224609375,4.805643814697266,2.83466724609375,5.257883814697266C1.67399724609375,8.164863814697267,3.6365772460937498,12.894203814697265,7.16720724609375,16.414703814697265C10.01439724609375,19.253503814697265,14.04072724609375,21.501103814697267,16.65602724609375,21.500003814697266C17.40922724609375,21.500003814697266,18.11452724609375,21.376503814697266,18.74592724609375,21.125003814697266C19.33662724609375,20.891403814697266,19.85022724609375,20.562303814697266,20.26872724609375,20.144903814697265L21.07682724609375,19.339003814697264C21.64052724609375,18.776403814697264,21.64052724609375,17.863103814697265,21.07682724609375,17.300503814697265L17.36512724609375,13.601103814697266L17.28692724609375,13.528403814697265C16.71472724609375,13.037003814697266,15.86072724609375,13.069203814697266,15.32712724609375,13.602203814697265L14.04962724609375,14.876303814697266L13.91662724609375,14.877403814697265C12.99402724609375,14.858403814697265,11.95741724609375,14.308003814697265,10.80679724609375,13.161303814697266L10.65982724609375,13.012103814697266C9.60980724609375,11.925173814697265,9.106307246093749,10.941643814697265,9.09233724609375,10.059823814697266L9.093457246093749,9.926823814697265L10.36421724609375,8.659423814697266C10.92948724609375,8.097453814697266,10.92948724609375,7.1828138146972655,10.36421724609375,6.620843814697266L6.65699724609375,2.9248038146972655C6.09374724609375,2.3584038146972657,5.177197246093749,2.3584038146972657,4.61395724609375,2.9248038146972655L3.76901724609375,3.7675038146972657ZM5.05653724609375,4.999143814697266L5.63547724609375,4.421323814697265L8.86378724609375,7.640133814697266L7.75619724609375,8.746593814697267C7.50824724609375,8.994073814697266,7.35582724609375,9.321283814697265,7.32590724609375,9.670323814697266C7.19067724609375,11.253463814697266,7.96016724609375,12.838803814697267,9.54945724609375,14.422503814697265C11.13650724609375,16.004003814697263,12.72022724609375,16.773503814697264,14.29882724609375,16.646603814697265L14.41452724609375,16.632103814697267C14.72242724609375,16.58270381469727,15.00682724609375,16.437603814697265,15.22762724609375,16.217503814697267L16.34692724609375,15.100903814697265L19.57692724609375,18.319803814697266L19.01142724609375,18.883603814697267C18.76892724609375,19.125003814697266,18.461527246093752,19.322303814697264,18.089327246093752,19.469203814697266C17.674727246093752,19.634103814697266,17.19302724609375,19.719003814697267,16.65592724609375,19.719003814697267C14.60452724609375,19.719603814697265,10.97109724609375,17.690503814697266,8.426227246093749,15.153503814697265C5.34432724609375,12.081083814697266,3.6544572460937497,8.009513814697264,4.48933724609375,5.917843814697266C4.57650724609375,5.6993538146972655,4.69162724609375,5.494263814697266,4.83412724609375,5.3025838146972655L4.9889172460937505,5.105883814697266L5.02803724609375,5.047203814697266L5.05653724609375,4.999143814697266Z" fill="#333333" fill-opacity="1"/></g></g></svg>