<?xml version="1.0" encoding="utf-8"?>
<!-- Generator: Adobe Illustrator 21.0.0, SVG Export Plug-In . SVG Version: 6.00 Build 0)  -->
<svg version="1.1" id="图层_1" xmlns="http://www.w3.org/2000/svg" xmlns:xlink="http://www.w3.org/1999/xlink" x="0px" y="0px"
	 viewBox="0 0 24 24" style="enable-background:new 0 0 24 24;" xml:space="preserve">
<style type="text/css">
	.st0{fill:#333333;}
	.st1{fill:#FFA800;}
	.st2{fill:#A7AAAB;}
</style>
<path class="st0" d="M10.8,4.5c0.7,0,1.3,0.5,1.5,1.2L12.3,6h6.2C19.3,6,20,6.7,20,7.5V18c0,0.8-0.7,1.5-1.5,1.5h-13
	C4.7,19.5,4,18.8,4,18V6c0-0.8,0.7-1.5,1.5-1.5H10.8z M10.8,6H5.5v12h13v-8h-6.8C11.7,10,10.8,6,10.8,6z M17.5,15v1.5h-11V15H17.5z
	 M18.5,7.5h-5.8l0.2,1h5.6C18.5,8.5,18.5,7.5,18.5,7.5z"/>
</svg>
