<?xml version="1.0" encoding="utf-8"?>
<!-- Generator: Adobe Illustrator 21.0.0, SVG Export Plug-In . SVG Version: 6.00 Build 0)  -->
<svg version="1.1" id="图层_1" xmlns="http://www.w3.org/2000/svg" xmlns:xlink="http://www.w3.org/1999/xlink" x="0px" y="0px"
	 viewBox="0 0 24 24" style="enable-background:new 0 0 24 24;" xml:space="preserve">
<style type="text/css">
	.st0{fill:#333333;}
	.st1{fill:#FFA800;}
	.st2{fill:#A7AAAB;}
</style>
<path class="st2" d="M22.8,9.9c-0.1-0.7-0.6-1.1-1.1-1.1h-0.1c-1.5,0-2.7-1.2-2.7-2.7c0-0.5,0.2-1,0.2-1c0.3-0.6,0.1-1.4-0.5-1.7
	l-2.8-1.5l0,0c-0.6-0.2-1.3-0.1-1.7,0.3c-0.3,0.3-1.3,1.2-2.1,1.2c-0.8,0-1.8-0.9-2.1-1.2C9.5,1.6,8.8,1.5,8.2,1.7L5.4,3.3l0,0
	C4.8,3.7,4.6,4.4,4.8,5c0,0,0.2,0.5,0.2,1c0,1.5-1.2,2.7-2.7,2.7H2.3c-0.5,0-0.9,0.4-1.1,1.1c0,0-0.2,1.2-0.2,2.2
	c0,0.9,0.2,2.1,0.2,2.2c0.1,0.7,0.6,1.1,1.1,1.1h0.1c1.5,0,2.7,1.2,2.7,2.7c0,0.5-0.2,1-0.2,1c-0.3,0.6-0.1,1.4,0.5,1.7L8,22.2l0,0
	c0.6,0.2,1.3,0.1,1.7-0.4c0.4-0.4,1.4-1.3,2.1-1.3c0.8,0,1.9,0.9,2.2,1.3c0.3,0.3,0.7,0.5,1.1,0.5c0.2,0,0.4,0,0.6-0.1l2.8-1.5l0,0
	c0.5-0.4,0.8-1.1,0.5-1.7c0,0-0.2-0.5-0.2-1c0-1.5,1.2-2.7,2.7-2.7h0.1c0.5,0,1-0.4,1.1-1.1c0,0,0.2-1.2,0.2-2.2
	C23,11.1,22.8,9.9,22.8,9.9 M21.4,12c0,0.6-0.1,1.4-0.2,1.7c-2.2,0.2-3.9,2-3.9,4.2c0,0.6,0.2,1.2,0.3,1.5l-2.4,1.3
	c-0.1-0.1-0.5-0.5-0.9-0.8c-0.8-0.6-1.6-0.9-2.4-0.9c-0.7,0-1.5,0.3-2.3,0.9c-0.5,0.3-0.8,0.7-0.9,0.8l-2.3-1.3
	c0.1-0.3,0.3-0.9,0.3-1.5c0-2.2-1.7-4.1-3.9-4.2c-0.1-0.3-0.2-1.1-0.2-1.7c0-0.6,0.1-1.4,0.2-1.7c2.2-0.2,3.9-2,3.9-4.2
	c0-0.6-0.2-1.2-0.3-1.5l2.4-1.3C8.9,3.3,9.3,3.7,9.8,4c0.8,0.6,1.6,0.9,2.3,0.9c0.7,0,1.5-0.3,2.3-0.9c0.5-0.3,0.8-0.7,0.9-0.8
	l2.4,1.3c-0.1,0.3-0.3,0.9-0.3,1.5c0,2.2,1.7,4.1,3.9,4.2C21.3,10.6,21.4,11.4,21.4,12"/>
<path class="st2" d="M12,8.1c-2.2,0-3.9,1.8-3.9,3.9c0,2.2,1.8,3.9,3.9,3.9c2.2,0,3.9-1.8,3.9-3.9C15.9,9.8,14.2,8.1,12,8.1
	 M14.3,12c0,1.3-1,2.3-2.3,2.3c-1.3,0-2.3-1-2.3-2.3c0-1.3,1-2.3,2.3-2.3C13.3,9.7,14.3,10.7,14.3,12"/>
</svg>
