<?xml version="1.0" encoding="utf-8"?>
<!-- Generator: Adobe Illustrator 21.0.0, SVG Export Plug-In . SVG Version: 6.00 Build 0)  -->
<svg version="1.1" id="图层_1" xmlns="http://www.w3.org/2000/svg" xmlns:xlink="http://www.w3.org/1999/xlink" x="0px" y="0px"
	 viewBox="0 0 24 24" style="enable-background:new 0 0 24 24;" xml:space="preserve">
<style type="text/css">
	.st0{fill:#333333;}
	.st1{fill:#FFA800;}
	.st2{fill:#A7AAAB;}
</style>
<path class="st0" d="M2.5,19.7l4.4-5.1c0.6,0.3,1.2,0.6,1.8,0.8l-4.7,5.5h9.8v1.9H3.9c-1.1,0-1.9-0.9-1.9-1.9
	C2,20.4,2.2,20,2.5,19.7l4.4-5.1L2.5,19.7z M19.5,15.8v2.5H22v1.9h-2.5v2.5h-1.9v-2.5H15v-1.9h2.5v-2.5H19.5z M11.2,1.2
	c3.5,0,6.4,2.8,6.4,6.4s-2.8,6.4-6.4,6.4s-6.4-2.8-6.4-6.4S7.7,1.2,11.2,1.2z M11.2,3.1c-2.5,0-4.4,2-4.4,4.4s2,4.4,4.4,4.4
	c2.5,0,4.4-2,4.4-4.4C15.6,5.1,13.7,3.1,11.2,3.1z"/>
</svg>
