<?xml version="1.0" encoding="utf-8"?>
<!-- Generator: Adobe Illustrator 21.0.0, SVG Export Plug-In . SVG Version: 6.00 Build 0)  -->
<svg version="1.1" id="图层_1" xmlns="http://www.w3.org/2000/svg" xmlns:xlink="http://www.w3.org/1999/xlink" x="0px" y="0px"
	 viewBox="0 0 24 24" style="enable-background:new 0 0 24 24;" xml:space="preserve">
<style type="text/css">
	.st0{fill:#333333;}
</style>
<path class="st0" d="M12,3.5c4.7,0,8.5,3.8,8.5,8.5s-3.8,8.5-8.5,8.5S3.5,16.7,3.5,12S7.3,3.5,12,3.5z M12,5c-3.9,0-7,3.1-7,7
	s3.1,7,7,7s7-3.1,7-7S15.9,5,12,5z M15.8,12.7l1.4,0.5c-1.9,5.3-9,5.3-10.4-0.1l1.5-0.4C9.2,16.7,14.4,16.7,15.8,12.7z M10,8.5
	c0.6,0,1,0.4,1,1V11c0,0.6-0.4,1-1,1s-1-0.4-1-1V9.5C9,8.9,9.4,8.5,10,8.5z M14,8.5c0.6,0,1,0.4,1,1l0,0V11c0,0.6-0.4,1-1,1
	c-0.6,0-1-0.4-1-1c0,0,0,0,0,0V9.5C13,8.9,13.4,8.5,14,8.5C14,8.5,14,8.5,14,8.5z"/>
</svg>
