<?xml version="1.0" encoding="utf-8"?>
<!-- Generator: Adobe Illustrator 21.0.0, SVG Export Plug-In . SVG Version: 6.00 Build 0)  -->
<svg version="1.1" id="图层_1" xmlns="http://www.w3.org/2000/svg" xmlns:xlink="http://www.w3.org/1999/xlink" x="0px" y="0px"
	 viewBox="0 0 32 32" style="enable-background:new 0 0 32 32;" xml:space="preserve">
<style type="text/css">
	.st0{fill:#767676;}
</style>
<path class="st0" d="M13.9,2.1c6.5,0,11.7,5.3,11.7,11.7c0,3.1-1.2,6-3.2,8.1l6.7,6.7c0.4,0.4,0.4,1,0,1.4L29,30.2
	c-0.4,0.4-1,0.4-1.4,0c0,0,0,0,0,0l-6.8-6.8c-2,1.5-4.4,2.3-6.9,2.2c-6.5,0-11.7-5.3-11.7-11.7S7.4,2.1,13.9,2.1z M13.9,4.3
	c-5.3,0-9.6,4.3-9.6,9.6s4.3,9.6,9.6,9.6s9.6-4.3,9.6-9.6S19.2,4.3,13.9,4.3L13.9,4.3z M13.9,8.5c0.6,0,1,0.4,1,1v3.3l3.3,0
	c0.6,0,1,0.4,1,1v0.1c0,0.6-0.4,1-1,1h-3.3v3.3c0,0.6-0.4,1-1,1h-0.1c-0.6,0-1-0.4-1-1v-3.3H9.5c-0.6,0-1-0.4-1-1v-0.1
	c0-0.6,0.4-1,1-1h3.3l0-3.3c0-0.6,0.4-1,1-1H13.9L13.9,8.5z"/>
</svg>
