<?xml version="1.0" encoding="utf-8"?>
<!-- Generator: Adobe Illustrator 21.0.0, SVG Export Plug-In . SVG Version: 6.00 Build 0)  -->
<svg version="1.1" id="图层_1" xmlns="http://www.w3.org/2000/svg" xmlns:xlink="http://www.w3.org/1999/xlink" x="0px" y="0px"
	 viewBox="0 0 16 16" style="enable-background:new 0 0 16 16;" xml:space="preserve">
<style type="text/css">
	.st0{fill:#DF4A4D;}
</style>
<path class="st0" d="M8,0c4.4,0,8,3.6,8,8s-3.6,8-8,8s-8-3.6-8-8S3.6,0,8,0z M8,10.9c-0.4,0-0.7,0.4-0.7,0.8s0.3,0.8,0.7,0.8
	c0.4,0,0.7-0.4,0.7-0.8C8.7,11.2,8.4,10.9,8,10.9C8,10.9,8,10.9,8,10.9z M8,3.6c-0.4,0-0.7,0.4-0.7,0.8V9c0,0.4,0.3,0.8,0.7,0.8
	c0.4,0,0.7-0.4,0.7-0.8V4.3C8.7,3.9,8.4,3.6,8,3.6z"/>
</svg>
