<svg xmlns="http://www.w3.org/2000/svg" xmlns:xlink="http://www.w3.org/1999/xlink" fill="none" version="1.1" width="24" height="24" viewBox="0 0 24 24"><defs><clipPath id="master_svg0_235_095"><rect x="0" y="0" width="24" height="24" rx="0"/></clipPath></defs><g style="mix-blend-mode:passthrough" clip-path="url(#master_svg0_235_095)"><g><path d="M16,4.352935791015625C16.941200000000002,4.352935791015625,17.764699999999998,5.176464791015625,17.764699999999998,6.117645791015625L17.764699999999998,7.0588157910156255L19.1765,5.999995791015625C20,5.411755791015625,21.0588,5.529405791015625,21.6471,6.352935791015625C21.8824,6.705875791015625,22,7.0588157910156255,22,7.411755791015625L22,16.705835791015623C22,17.647035791015625,21.1765,18.470535791015624,20.2353,18.470535791015624C19.8824,18.470535791015624,19.4118,18.352935791015625,19.1765,18.117635791015623L17.764699999999998,17.058835791015625L17.764699999999998,17.882335791015628C17.764699999999998,18.823535791015622,16.941200000000002,19.647035791015625,16,19.647035791015625L3.76471,19.647035791015625C2.8235289999999997,19.647035791015625,2,18.823535791015622,2,17.882335791015628L2,6.117645791015625C2,5.176464791015625,2.8235289999999997,4.352935791015625,3.76471,4.352935791015625L16,4.352935791015625ZM16,6.117645791015625L3.76471,6.117645791015625L3.76471,17.882335791015628L16,17.882335791015628L16,13.529405791015625L20.2353,16.705835791015623L20.2353,7.411755791015625L16,10.705875791015625L16,6.117645791015625Z" fill="#A7AAAB" fill-opacity="1"/></g></g></svg>