<?xml version="1.0" encoding="utf-8"?>
<!-- Generator: Adobe Illustrator 21.0.0, SVG Export Plug-In . SVG Version: 6.00 Build 0)  -->
<svg version="1.1" id="图层_1" xmlns="http://www.w3.org/2000/svg" xmlns:xlink="http://www.w3.org/1999/xlink" x="0px" y="0px"
	 viewBox="0 0 16 16" style="enable-background:new 0 0 16 16;" xml:space="preserve">
<style type="text/css">
	.st0{fill:#2384C8;}
</style>
<path class="st0" d="M14,0.3H1.9C1,0.3,0.3,1,0.3,1.9V14c0,0.9,0.7,1.6,1.6,1.6H14c0.9,0,1.6-0.7,1.6-1.6V1.9C15.7,1,15,0.3,14,0.3z
	 M13.1,6.7l-5.7,4.9c-0.2,0.2-0.5,0.3-0.7,0.3c0,0-0.1,0-0.1,0c-0.3,0-0.6-0.2-0.7-0.4L2.8,7.9C2.6,7.7,2.6,7.3,2.8,7.1
	S3.4,7,3.6,7.2l3,3.6l5.7-4.9c0.2-0.2,0.6-0.2,0.8,0.1C13.4,6.2,13.3,6.5,13.1,6.7z"/>
</svg>
