<?xml version="1.0" encoding="utf-8"?>
<!-- Generator: Adobe Illustrator 21.0.0, SVG Export Plug-In . SVG Version: 6.00 Build 0)  -->
<svg version="1.1" id="图层_1" xmlns="http://www.w3.org/2000/svg" xmlns:xlink="http://www.w3.org/1999/xlink" x="0px" y="0px"
	 viewBox="0 0 16 16" style="enable-background:new 0 0 16 16;" xml:space="preserve">
<style type="text/css">
	.st0{fill:#54595C;}
</style>
<path class="st0" d="M8.9,8.1l4.5-4.5c0.2-0.2,0.2-0.6,0-0.8l0,0c-0.2-0.2-0.6-0.2-0.8,0L8,7.3L3.5,2.8c-0.2-0.2-0.6-0.2-0.8,0l0,0
	C2.4,3,2.4,3.4,2.6,3.6l4.5,4.5l-4.5,4.5c-0.2,0.2-0.2,0.6,0,0.8l0,0c0.2,0.2,0.6,0.2,0.8,0L8,9l4.5,4.5c0.2,0.2,0.6,0.2,0.8,0l0,0
	c0.2-0.2,0.2-0.6,0-0.8L8.9,8.1z"/>
</svg>
