<?xml version="1.0" encoding="utf-8"?>
<!-- Generator: Adobe Illustrator 21.0.0, SVG Export Plug-In . SVG Version: 6.00 Build 0)  -->
<svg version="1.1" id="图层_1" xmlns="http://www.w3.org/2000/svg" xmlns:xlink="http://www.w3.org/1999/xlink" x="0px" y="0px"
	 viewBox="0 0 36 36" style="enable-background:new 0 0 36 36;" xml:space="preserve">
<style type="text/css">
	.st0{fill:#7A7A7A;}
</style>
<g>
	<path class="st0" d="M29.9,2H6.1C3.8,2,1.9,3.9,1.9,6.2v17.4c0,2.3,1.9,4.2,4.2,4.2h1v5.1c0,0.4,0.2,0.8,0.6,1
		C7.9,34,8.1,34,8.2,34c0.2,0,0.5-0.1,0.7-0.2l8.6-6h12.4c2.3,0,4.2-1.9,4.2-4.2V6.2C34.1,3.9,32.2,2,29.9,2z M31.7,23.6
		c0,1-0.8,1.9-1.9,1.9H17.1c-0.2,0-0.5,0.1-0.7,0.2l-7,5v-4c0-0.6-0.5-1.2-1.2-1.2H6.1c-1,0-1.9-0.8-1.9-1.9V6.2
		c0-1,0.8-1.9,1.9-1.9h23.8c1,0,1.9,0.8,1.9,1.9L31.7,23.6L31.7,23.6z"/>
	<path class="st0" d="M8.6,16.8c1,1,2.6,1,3.6,0s1-2.6,0-3.6l0,0c-1-1-2.6-1-3.6,0S7.6,15.8,8.6,16.8L8.6,16.8z"/>
	<path class="st0" d="M16.2,16.8c1,1,2.6,1,3.6,0s1-2.6,0-3.6l0,0c-1-1-2.6-1-3.6,0S15.2,15.8,16.2,16.8L16.2,16.8z"/>
	<path class="st0" d="M23.8,16.8c1,1,2.6,1,3.6,0s1-2.6,0-3.6l0,0c-1-1-2.6-1-3.6,0S22.8,15.8,23.8,16.8L23.8,16.8z"/>
</g>
</svg>
