<svg xmlns="http://www.w3.org/2000/svg" xmlns:xlink="http://www.w3.org/1999/xlink" fill="none" version="1.1" width="32" height="32" viewBox="0 0 32 32"><defs><clipPath id="master_svg0_344_4544"><rect x="0" y="0" width="32" height="32" rx="0"/></clipPath></defs><g clip-path="url(#master_svg0_344_4544)"><g><path d="M21.6898,18.7198L27.0521,24.9758C27.6716,25.6988,27.8135,26.7163,27.4153,27.5811C27.0171,28.446,26.1518,28.9998,25.1997,28.9992L7.43738,28.9992C6.48558,28.9992,5.620871,28.4451,5.223096,27.5804C4.825322,26.7157,4.967263,25.6986,5.586567,24.9758L10.9489,18.7198C12.52923,19.8053,14.40211,20.385,16.3194,20.3821C18.3124,20.3821,20.162399999999998,19.7687,21.6898,18.7198ZM16.3194,3.00000332073C20.6702,3.00000332073,24.1979,6.526949999999999,24.1979,10.87857C24.1979,15.2294,20.6702,18.7571,16.3194,18.7571C11.96774,18.7571,8.44079,15.2294,8.44079,10.87857C8.44079,6.52696,11.96774,3.00000332073,16.3194,3.00000332073Z" fill="#3981FC" fill-opacity="1"/></g></g></svg>