<svg xmlns="http://www.w3.org/2000/svg" xmlns:xlink="http://www.w3.org/1999/xlink" fill="none" version="1.1" width="40" height="40" viewBox="0 0 40 40"><defs><clipPath id="master_svg0_2763_2938"><rect x="0" y="0" width="40" height="40" rx="0"/></clipPath></defs><g clip-path="url(#master_svg0_2763_2938)"><g><path d="M34,40L6,40C2.7,40,0,37.3,0,34L0,6C0,2.7,2.7,0,6,0L34,0C37.3,0,40,2.7,40,6L40,34C40,37.3,37.3,40,34,40Z" fill="#FEC757" fill-opacity="1"/></g><g><path d="M23.130699999999997,22.927300000000002L23.830199999999998,23.7436L23.8309,25.3676L21.3579,25.3676L21.3579,29.6706L23.8309,29.6706L23.8265,30.9L11.84409,30.9C11.12397,30.9,10.469741,30.4808,10.168791,29.8266C9.867841,29.1724,9.9752318,28.4028,10.443789,27.856L14.668050000000001,22.927300000000002C15.93643,23.7208,17.40291,24.1405,18.899070000000002,24.138199999999998C20.395400000000002,24.1406,21.862099999999998,23.7209,23.130699999999997,22.927300000000002ZM26.8902,24.138199999999998L26.8902,26.5971L29.3491,26.5971L29.3491,28.4412L26.8902,28.4412L26.8902,30.9L25.0461,30.9L25.0461,28.4412L22.5873,28.4412L22.5873,26.5971L25.0461,26.5971L25.0461,24.138199999999998L26.8902,24.138199999999998ZM18.899070000000002,10C22.2941,10,25.0461,12.752040000000001,25.0461,16.14706C25.0461,19.54208,22.2941,22.2941,18.899070000000002,22.2941C15.50405,22.2941,12.75201,19.54208,12.75201,16.14706C12.75201,12.752040000000001,15.50405,9.999999615287,18.899070000000002,10Z" fill="#FFFFFF" fill-opacity="1" style="mix-blend-mode:passthrough"/></g></g></svg>