<?xml version="1.0" encoding="utf-8"?>
<!-- Generator: Adobe Illustrator 21.0.0, SVG Export Plug-In . SVG Version: 6.00 Build 0)  -->
<svg version="1.1" id="图层_1" xmlns="http://www.w3.org/2000/svg" xmlns:xlink="http://www.w3.org/1999/xlink" x="0px" y="0px"
	 viewBox="0 0 40 40" style="enable-background:new 0 0 40 40;" xml:space="preserve">
<style type="text/css">
	.st0{fill:#86BBFF;}
	.st1{fill:#FFFFFF;}
	.st2{fill:#2384C8;}
	.st3{fill:#F68121;}
	.st4{fill:#DCEBFF;}
</style>
<path class="st2" d="M34,40H6c-3.3,0-6-2.7-6-6V6c0-3.3,2.7-6,6-6h28c3.3,0,6,2.7,6,6v28C40,37.3,37.3,40,34,40z"/>
<path class="st1" d="M22.9,10.1c3.3,0,6,2.7,6,6c0,2.1-1.1,3.9-2.7,5l4.9,5.7c0.7,0.8,0.6,1.9-0.2,2.6c-0.3,0.3-0.8,0.4-1.2,0.4
	l-2.9,0c0.3-0.6,0.4-1.2,0.3-1.9l2.7,0l-6.3-7.3l1.8-1.2c1.9-1.2,2.5-3.8,1.2-5.7c-0.7-1.2-2-1.9-3.4-1.9c-0.4-0.6-1-1.2-1.6-1.7
	C21.9,10.2,22.4,10.1,22.9,10.1z M21.2,22.1l4.1,4.8c0.7,0.8,0.6,1.9-0.2,2.6c-0.3,0.3-0.8,0.4-1.2,0.4H10.3c-1,0-1.9-0.8-1.9-1.9
	c0-0.4,0.2-0.9,0.4-1.2l4.1-4.8c1.2,0.8,2.6,1.3,4.1,1.3C18.6,23.3,20,22.9,21.2,22.1z M17.1,10.1c3.3,0,6,2.7,6,6c0,3.3-2.7,6-6,6
	c-3.3,0-6-2.7-6-6C11.1,12.8,13.8,10.1,17.1,10.1z"/>
</svg>
