<svg xmlns="http://www.w3.org/2000/svg" xmlns:xlink="http://www.w3.org/1999/xlink" fill="none" version="1.1" width="60" height="60" viewBox="0 0 60 60"><defs><clipPath id="master_svg0_170_318"><rect x="6.4266357421875" y="8.035400390625" width="44" height="44" rx="0"/></clipPath></defs><g style="mix-blend-mode:passthrough"><g style="mix-blend-mode:passthrough"><ellipse cx="30.000001907348633" cy="30.000001907348633" rx="30.000001907348633" ry="30.000001907348633" fill="#FC524E" fill-opacity="1"/></g><g clip-path="url(#master_svg0_170_318)"><g><path d="M48.3060638671875,33.478023359375C47.6827638671875,35.808143359375,46.0748638671875,36.471843359375,43.4293638671875,36.097843359375C40.3200638671875,35.657843359375,37.6892638671875,34.823643359375,37.8817638671875,32.137853359375Q38.1273638671875,29.246683359374998,30.5630638671875,29.026683359375Q21.7355638671875,28.799353359375,22.1113638671875,32.224023359374996C22.1077638671875,35.377343359375004,19.9297438671875,35.551543359375,16.8277438671875,36.013543359375C13.7239138671875,36.475543359374996,11.8264098671875,35.705543359375,11.4450763671875,32.258853359374996C10.7080758671875,25.614853359375,22.8483638671875,23.882353059375,28.1742638671875,23.816353959375Q36.2958638671875,23.693520359375,40.188063867187495,24.837523359374998L42.283563867187496,25.433353359375C45.2040638671875,26.377523359375,47.8257638671875,28.095353359375,48.4344638671875,30.539183359375002Q48.7937638671875,31.652023359375,48.3060638671875,33.478023359375Z" fill="#FFFFFF" fill-opacity="1"/></g></g></g></svg>