<svg xmlns="http://www.w3.org/2000/svg" xmlns:xlink="http://www.w3.org/1999/xlink" fill="none" version="1.1" width="60" height="60" viewBox="0 0 60 60"><defs><clipPath id="master_svg0_170_62"><rect x="6.4266357421875" y="7" width="44" height="44" rx="0"/></clipPath></defs><g style="mix-blend-mode:passthrough"><g style="mix-blend-mode:passthrough"><ellipse cx="30.000001907348633" cy="30.000001907348633" rx="30.000001907348633" ry="30.000001907348633" fill="#FF2B2F" fill-opacity="1"/></g><g clip-path="url(#master_svg0_170_62)"><g><path d="M48.3061859375,33.478038618164064C47.6828859375,35.808158618164065,46.0749859375,36.47185861816406,43.4294859375,36.09785861816406C40.3201859375,35.65785861816406,37.6893859375,34.82365861816406,37.8818859375,32.13786861816406Q38.1274859375,29.24669861816406,30.5631859375,29.026698618164062Q21.7356859375,28.799368618164063,22.1114859375,32.22403861816406C22.1078859375,35.37735861816407,19.9298659375,35.551558618164066,16.8278659375,36.01355861816406C13.7240359375,36.47555861816406,11.8265319375,35.70555861816406,11.4451984375,32.25886861816406C10.7081979375,25.614868618164063,22.8484859375,23.882368318164062,28.1743859375,23.816369218164063Q36.2959859375,23.693535618164063,40.188185937499995,24.83753861816406L42.283685937499996,25.433368618164064C45.2041859375,26.377538618164063,47.8258859375,28.095368618164063,48.4345859375,30.539198618164065Q48.7938859375,31.652038618164063,48.3061859375,33.478038618164064Z" fill="#FFFFFF" fill-opacity="1"/></g></g></g></svg>