<?xml version="1.0" encoding="utf-8"?>
<!-- Generator: Adobe Illustrator 21.0.0, SVG Export Plug-In . SVG Version: 6.00 Build 0)  -->
<svg version="1.1" id="图层_1" xmlns="http://www.w3.org/2000/svg" xmlns:xlink="http://www.w3.org/1999/xlink" x="0px" y="0px"
	 viewBox="0 0 20 20" style="enable-background:new 0 0 20 20;" xml:space="preserve">
<style type="text/css">
	.st0{fill:#2881F5;}
	.st1{fill:#FF6F6F;}
</style>
<g>
	<path class="st0" d="M16.4,14c-1.2-0.4-2.4-0.8-3.2-1.1c-0.5-0.3-0.9-0.5-0.9-0.8v-0.6c0.2-0.1,0.3-0.3,0.5-0.5
		c0-0.1,0.1-0.1,0.1-0.2c0.2-0.3,0.4-0.6,0.5-1c0.2-0.4,0.3-0.8,0.4-1c0.1-0.1,0.2-0.2,0.2-0.3c0.4-0.6,0.6-1.2,0.4-1.7
		c-0.1-0.3-0.2-0.6-0.5-0.8c0.1-0.8,0.1-1.6-0.2-2.4c-0.2-0.4-0.4-0.8-0.6-1.1C13,2,12.5,1.6,11.9,1.4C11.1,1,10.4,1,10.1,1H9.9
		c-0.3,0-1,0-1.8,0.4C7.5,1.6,6.9,2.1,6.5,2.6C6.3,2.9,6.1,3.2,6,3.6C5.7,4.4,5.7,5.2,5.8,6C5.6,6.2,5.4,6.4,5.3,6.8
		c-0.1,0.5,0,1.1,0.4,1.7C5.8,8.5,5.9,8.7,6,8.8c0.1,0.2,0.2,0.6,0.4,1c0.2,0.4,0.4,0.7,0.5,1c0,0.1,0.1,0.1,0.1,0.2
		c0.2,0.2,0.3,0.3,0.5,0.5v0.7c0,0.3-0.3,0.5-0.9,0.8c-0.8,0.4-1.9,0.8-3.1,1.1c-2.1,0.6-2.1,4.1-2.1,4.1S4,19,10,19
		s8.4-0.9,8.4-0.9S18.5,14.7,16.4,14z M7,8.2c-0.9-1-0.5-1.3-0.3-1.4C7,6.6,7.2,7.1,7.3,7.3c-0.1-0.3-0.3-1.1-0.4-2
		c0.3-0.4,0.9-1.1,1.6-1.2c0,0,1.5,1.8,4.6,1.8c-0.1,0.7-0.3,1.2-0.3,1.4c0.1-0.2,0.3-0.7,0.6-0.6c0.2,0.1,0.5,0.5-0.3,1.4
		c0,0-0.3,0.9-0.7,1.5c-0.1,0.2-0.2,0.3-0.2,0.4c-0.2,0.3-0.5,0.6-0.9,0.7c-0.4,0.2-0.9,0.3-1.2,0.3c0,0,0,0,0,0c0,0,0,0,0,0
		c-0.3,0-0.8-0.1-1.3-0.3c-0.3-0.2-0.6-0.4-0.8-0.7C7.8,10,7.7,9.9,7.7,9.7C7.3,9.1,7,8.2,7,8.2z M10.2,17.9C10.1,17.9,10,18,10,18
		s-0.1,0-0.2-0.1C9.3,17.5,7.3,16.1,7,14c0.6-0.3,1.7-0.9,1.7-1.9v0c0.6,0.2,1,0.2,1.3,0.2h0c0.2,0,0.7,0,1.2-0.2v0
		c0,1.1,1.1,1.6,1.7,1.9C12.7,16.1,10.8,17.5,10.2,17.9z"/>
	<path class="st0" d="M11.2,13.4l-0.5-0.6H9.4l-0.5,0.6c0,0,0.3,0.6,0.8,0.9l-0.8,2c0,0,0.6,0.8,1.1,1c0.6-0.2,1.1-1,1.1-1l-0.8-2
		C10.9,14,11.2,13.4,11.2,13.4z"/>
</g>
</svg>
