<svg xmlns="http://www.w3.org/2000/svg" xmlns:xlink="http://www.w3.org/1999/xlink" fill="none" version="1.1" width="30" height="30" viewBox="0 0 30 30"><defs><clipPath id="master_svg0_15_165"><rect x="0" y="0" width="30" height="30" rx="0"/></clipPath></defs><g clip-path="url(#master_svg0_15_165)"><g><path d="M21.699999618530274,21.799999618530272L7.999999618530273,8.099999618530273C7.699999818530274,7.799999618530274,7.699999818530274,7.300000618530273,7.999999618530273,6.999999618530273C8.300000618530273,6.699999818530274,8.799999618530274,6.699999818530274,9.099999618530273,6.999999618530273L22.799999618530272,20.699999618530274C23.099999618530273,20.999999618530275,23.099999618530273,21.499999618530275,22.799999618530272,21.799999618530272C22.499999618530275,22.099999618530273,21.999999618530275,22.099999618530273,21.699999618530274,21.799999618530272Z" fill="#F86464" fill-opacity="1"/></g><g><g><path d="M21.499997711181642,18.59999942779541C21.69999771118164,17.89999942779541,21.89999771118164,17.19999942779541,21.89999771118164,16.39999942779541L21.89999771118164,15.79999942779541C21.89999771118164,15.39999942779541,21.59999771118164,15.09999942779541,21.199998711181642,15.09999942779541C20.79999971118164,15.09999942779541,20.499997711181642,15.39999942779541,20.499997711181642,15.79999942779541L20.499997711181642,16.39999942779541C20.499997711181642,16.79999942779541,20.499997711181642,17.09999942779541,20.39999771118164,17.39999942779541L21.499997711181642,18.59999942779541Z" fill="#F0F0F0" fill-opacity="1"/></g><g><path d="M14.999999237060546,20.700000381469728C16.299999237060547,20.700000381469728,17.499999237060546,20.100000381469727,18.299999237060547,19.100000381469727L10.799999237060547,11.600000381469727L10.799999237060547,16.500000381469725C10.800000190734547,18.800000381469726,12.699999237060547,20.700000381469728,14.999999237060546,20.700000381469728Z" fill="#F0F0F0" fill-opacity="1"/></g><g><path d="M20.200001335144044,20.99999942779541L19.200001335144044,19.99999942779541C18.200001335144044,21.19999942779541,16.700001335144044,21.89999942779541,15.000001335144043,21.89999942779541C12.000001335144043,21.89999942779541,9.500001335144043,19.49999942779541,9.500001335144043,16.39999942779541L9.500001335144043,15.79999942779541C9.500001335144043,15.39999942779541,9.200001335144043,15.09999942779541,8.800001335144042,15.09999942779541C8.400001335144044,15.09999942779541,8.100001335144043,15.39999942779541,8.100001335144043,15.79999942779541L8.100001335144043,16.39999942779541C8.100001335144043,19.99999942779541,10.800001335144042,22.99999942779541,14.300001335144042,23.29999942779541L14.300001335144042,24.09999942779541L12.900001335144044,24.09999942779541C12.500001335144043,24.09999942779541,12.200001335144043,24.39999942779541,12.200001335144043,24.79999942779541C12.200001335144043,25.19999942779541,12.500001335144043,25.49999942779541,12.900001335144044,25.49999942779541L17.100001335144043,25.49999942779541C17.50000133514404,25.49999942779541,17.800001335144042,25.19999942779541,17.800001335144042,24.79999942779541C17.800001335144042,24.39999942779541,17.50000133514404,24.09999942779541,17.100001335144043,24.09999942779541L15.700001335144043,24.09999942779541L15.700001335144043,23.29999942779541C17.50000133514404,23.09999942779541,19.100001335144043,22.29999942779541,20.200001335144044,20.99999942779541Z" fill="#F0F0F0" fill-opacity="1"/></g><g><path d="M19.200001525878907,16.2L19.200001525878907,8.7C19.200001525878907,6.4,17.300001525878905,4.5,15.000001525878906,4.5C13.000001525878906,4.5,11.300001525878907,6,10.900001525878906,7.9L19.200001525878907,16.2Z" fill="#F0F0F0" fill-opacity="1"/></g></g></g></svg>