<?xml version="1.0" encoding="utf-8"?>
<!-- Generator: Adobe Illustrator 21.0.0, SVG Export Plug-In . SVG Version: 6.00 Build 0)  -->
<svg version="1.1" id="图层_1" xmlns="http://www.w3.org/2000/svg" xmlns:xlink="http://www.w3.org/1999/xlink" x="0px" y="0px"
	 viewBox="0 0 18 18" style="enable-background:new 0 0 18 18;" xml:space="preserve">
<style type="text/css">
	.st0{fill:#2384C8;}
</style>
<path class="st0" d="M9,17.7c-4.8,0-8.7-3.9-8.7-8.7S4.2,0.3,9,0.3s8.7,3.9,8.7,8.7S13.8,17.7,9,17.7z M9,16.6
	c4.2,0,7.6-3.4,7.6-7.6S13.2,1.4,9,1.4S1.4,4.8,1.4,9S4.8,16.6,9,16.6z M9,14.4c3,0,5.4-2.4,5.4-5.4S12,3.6,9,3.6S3.6,6,3.6,9
	S6,14.4,9,14.4z"/>
</svg>
