<?xml version="1.0" encoding="utf-8"?>
<!-- Generator: Adobe Illustrator 21.0.0, SVG Export Plug-In . SVG Version: 6.00 Build 0)  -->
<svg version="1.1" id="图层_1" xmlns="http://www.w3.org/2000/svg" xmlns:xlink="http://www.w3.org/1999/xlink" x="0px" y="0px"
	 viewBox="0 0 16 16" style="enable-background:new 0 0 16 16;" xml:space="preserve">
<style type="text/css">
	.st0{fill:#C9C9C9;}
</style>
<path class="st0" d="M7.2,14.6c-4,0-7.2-3.2-7.2-7.2s3.2-7.2,7.2-7.2s7.2,3.2,7.2,7.2S11.2,14.6,7.2,14.6z M7.2,1.5
	C4,1.5,1.4,4.1,1.4,7.3s2.6,5.9,5.9,5.9s5.9-2.6,5.9-5.9S10.5,1.5,7.2,1.5z"/>
<path class="st0" d="M15.3,15.9c-0.2,0-0.3-0.1-0.5-0.2l-3.4-3.2c-0.3-0.3-0.3-0.7,0-1c0.1-0.1,0.3-0.2,0.5-0.2
	c0.2,0,0.3,0.1,0.5,0.2l3.4,3.2c0.3,0.3,0.3,0.7,0,1C15.7,15.8,15.5,15.9,15.3,15.9z"/>
</svg>
