<?xml version="1.0" encoding="utf-8"?>
<!-- Generator: Adobe Illustrator 21.0.0, SVG Export Plug-In . SVG Version: 6.00 Build 0)  -->
<svg version="1.1" id="图层_1" xmlns="http://www.w3.org/2000/svg" xmlns:xlink="http://www.w3.org/1999/xlink" x="0px" y="0px"
	 viewBox="0 0 16 16" style="enable-background:new 0 0 16 16;" xml:space="preserve">
<style type="text/css">
	.st0{fill:#FFFFFF;}
</style>
<path class="st0" d="M7.3,14.2c-3.8,0-6.9-3.1-6.9-6.9s3.1-6.9,6.9-6.9s6.9,3.1,6.9,6.9S11.1,14.2,7.3,14.2z M7.3,1.8
	c-3.1,0-5.6,2.5-5.6,5.6s2.5,5.6,5.6,5.6s5.6-2.5,5.6-5.6S10.3,1.8,7.3,1.8z"/>
<path class="st0" d="M14.9,15.5c-0.2,0-0.3-0.1-0.5-0.2l-3.2-3c-0.3-0.3-0.3-0.7,0-0.9c0.1-0.1,0.3-0.2,0.5-0.2
	c0.2,0,0.3,0.1,0.5,0.2l3.2,3c0.3,0.3,0.3,0.7,0,0.9C15.3,15.4,15.1,15.5,14.9,15.5z"/>
</svg>
