<?xml version="1.0" encoding="utf-8"?>
<!-- Generator: Adobe Illustrator 21.0.0, SVG Export Plug-In . SVG Version: 6.00 Build 0)  -->
<svg version="1.1" id="图层_1" xmlns="http://www.w3.org/2000/svg" xmlns:xlink="http://www.w3.org/1999/xlink" x="0px" y="0px"
	 viewBox="0 0 12 12" style="enable-background:new 0 0 12 12;" xml:space="preserve">
<style type="text/css">
	.st0{fill:#FFFFFF;}
</style>
<path class="st0" d="M10.5,0h-6C3.7,0,3,0.7,3,1.5V3H1.5C0.7,3,0,3.7,0,4.5v6C0,11.3,0.7,12,1.5,12h6C8.3,12,9,11.3,9,10.5V9h1.5
	C11.3,9,12,8.3,12,7.5v-6C12,0.7,11.3,0,10.5,0z M1.5,10.5v-6h6v6H1.5z M10.5,7.5H9v-3C9,3.7,8.3,3,7.5,3h-3V1.5h6V7.5z"/>
</svg>
