<svg xmlns="http://www.w3.org/2000/svg" xmlns:xlink="http://www.w3.org/1999/xlink" fill="none" version="1.1" width="30" height="30" viewBox="0 0 30 30"><defs><clipPath id="master_svg0_15_066"><rect x="0" y="0" width="30" height="30" rx="0"/></clipPath></defs><g clip-path="url(#master_svg0_15_066)"><g><path d="M23.999999809265137,9.6L20.599999809265135,12.4L20.599999809265135,17.7L23.999999809265137,20.4Q24.199999809265137,20.6,24.499999809265137,20.6C24.899999809265136,20.6,25.199999809265137,20.2,25.199999809265137,19.8L25.199999809265137,10.2C25.199999809265137,9.8,24.899999809265136,9.400002,24.499999809265137,9.400002Q24.199999809265137,9.4,23.999999809265137,9.6ZM18.599999809265135,21.5L6.699999809265137,21.5C5.599999809265137,21.5,4.699999809265137,20.6,4.699999809265137,19.5L4.699999809265137,10.5C4.699999809265137,9.4,5.599999809265137,8.5,6.699999809265137,8.5L18.599999809265135,8.5C19.699999809265137,8.5,20.599999809265135,9.4,20.599999809265135,10.5L20.599999809265135,19.5C20.599999809265135,20.6,19.699999809265137,21.5,18.599999809265135,21.5Z" fill="#F0F0F0" fill-opacity="1"/></g></g></svg>