<?xml version="1.0" encoding="utf-8"?>
<!-- Generator: Adobe Illustrator 21.0.0, SVG Export Plug-In . SVG Version: 6.00 Build 0)  -->
<svg version="1.1" id="图层_1" xmlns="http://www.w3.org/2000/svg" xmlns:xlink="http://www.w3.org/1999/xlink" x="0px" y="0px"
	 viewBox="0 0 20 20" style="enable-background:new 0 0 20 20;" xml:space="preserve">
<style type="text/css">
	.st0{fill:#2881F5;}
	.st1{fill:#FF6F6F;}
</style>
<path class="st1" d="M7.3,12c0.4-0.1,0.9-0.3,1.1-0.5c0.1-0.1,0.2-0.3,0.3-0.6c-0.1-0.1-0.2-0.1-0.2-0.2c-1-1.1-1.1-2.6-1.1-4.5
	c0.2,0,5.3,0.1,5.5,0.1c0,2.1-0.1,3.4-1.3,4.6l0,0c0,0.2,0.1,0.4,0.2,0.6c0.3,0.2,0.7,0.4,1,0.5c-0.6,2.1-1.3,3.4-2,3.8
	c-0.1-0.4-0.1-0.9,0-1.4c-0.1,0-0.2-0.1-0.3-0.1c-0.1,0.1-0.2,0.3-0.3,0.4c-0.1-0.1-0.2-0.3-0.3-0.4c-0.1,0-0.2,0.1-0.3,0.1
	c0.1,0.6,0.1,1.1,0,1.5C8.8,15.6,8,14.2,7.3,12z M15,12.4c-0.2-0.6-0.3-1.3-0.2-1.9c0.3-1.4,0.1-2.7-0.1-3.1c-0.4-1,0.1-2-0.1-2.8
	c-0.3-1.2-0.8-2.1-1.7-2.6c-1.2-0.8-3-0.7-4.5-0.4c-1.3,0.3-2.6,1-2.6,2.1c0.1,0.8-0.1,1.4-0.4,1.8C5.2,5.8,5.2,6.2,5.2,6.6
	c0.2,1.1,0.9,1.6,0.5,2.7c-0.4,0.9-0.8,2.4-0.9,3.3c-0.6,0.2-1.3,0.5-2,0.8c-0.6,1-0.8,2.5-0.6,5.3h15.6c0-2.2,0-4.3-0.8-5.8
	C16.4,12.7,15.7,12.5,15,12.4z"/>
</svg>
