<svg xmlns="http://www.w3.org/2000/svg" xmlns:xlink="http://www.w3.org/1999/xlink" fill="none" version="1.1" width="14" height="14" viewBox="0 0 14 14"><defs><clipPath id="master_svg0_372_683"><rect x="0" y="0" width="14" height="14" rx="0"/></clipPath></defs><g clip-path="url(#master_svg0_372_683)"><g><path d="M13.2719314453125,6.28040375L7.7466914453125,6.28040375L7.7466914453125,0.75538475C7.7466914453125,0.35330875,7.4207114453125,0.02734375,7.0186214453125,0.02734375C6.6165214453125,0.02734375,6.2905514453125,0.35329475,6.2905514453125,0.75538475L6.2905514453125,6.28040375L0.7652994453125,6.28040375C0.3631964453125,6.28040375,0.0372314453125,6.60636375,0.0372314453125,7.00843375C0.0372314453125,7.41052375,0.3631964453125,7.73650375,0.7652994453125,7.73650375L6.2905514453125,7.73650375L6.2905514453125,13.26154375C6.2905514453125,13.66354375,6.6165214453125,13.98954375,7.0186214453125,13.98954375C7.4207114453125,13.98954375,7.7466914453125,13.66354375,7.7466914453125,13.26154375L7.7466914453125,7.73650375L13.2719314453125,7.73650375C13.6740314453125,7.73650375,14.0000314453125,7.41052375,14.0000314453125,7.00843375C14.0000314453125,6.60636375,13.6740314453125,6.28040375,13.2719314453125,6.28040375Z" fill="#2384C8" fill-opacity="1"/></g></g></svg>