<svg xmlns="http://www.w3.org/2000/svg" xmlns:xlink="http://www.w3.org/1999/xlink" fill="none" version="1.1" width="60" height="60" viewBox="0 0 60 60"><defs><clipPath id="master_svg0_3_9"><rect x="0" y="0" width="60" height="60" rx="0"/></clipPath></defs><g clip-path="url(#master_svg0_3_9)"><g style="mix-blend-mode:passthrough"><g style="mix-blend-mode:passthrough"><ellipse cx="30" cy="30" rx="30" ry="30" fill="#3FD563" fill-opacity="1"/></g><g><path d="M27.6949,32.3036C24.72499,29.3356,21.88635,25.897199999999998,23.247500000000002,24.537869999999998C25.1917,22.59167,26.886699999999998,21.39364,23.440730000000002,17.10382C19.99463,12.81409,17.696,16.10827,15.809819,17.99441C13.63678,20.16939,15.695468,28.276400000000002,23.708759999999998,36.291399999999996C31.7221,44.303,39.831,46.365300000000005,42.0058,44.1887C43.891999999999996,42.3042,47.1843,40.0076,42.8966,36.5597C38.6087,33.1117,37.408699999999996,34.8067,35.4625,36.752700000000004C34.101299999999995,38.1083,30.6646,35.2716,27.6949,32.3036Z" fill="#FFFFFF" fill-opacity="1"/></g></g></g></svg>