<svg xmlns="http://www.w3.org/2000/svg" xmlns:xlink="http://www.w3.org/1999/xlink" fill="none" version="1.1" width="20" height="20" viewBox="0 0 20 20"><clipPath id="master_svg0_1_07"><rect x="2" y="3" width="16" height="16" rx="0"/></clipPath><g style="mix-blend-mode:passthrough"><g><g style="mix-blend-mode:passthrough"><ellipse cx="10" cy="10" rx="10" ry="10" fill="#2384C8" fill-opacity="1"/></g><g clip-path="url(#master_svg0_1_07)"><g><path d="M15.8684,6.135481C15.6674,5.946981,15.3504,5.9559808,15.1619,6.157481L8.49389,13.257L4.85139,9.668C4.65439,9.474,4.33789,9.475999999999999,4.14389,9.673C3.9498904,9.86948,3.9523904,10.18648,4.14939,10.379999999999999L8.15689,14.328C8.15839,14.3295,8.16039,14.33,8.16187,14.3315C8.16339,14.333,8.16389,14.335,8.16539,14.3365C8.19689,14.3665,8.23489,14.3835,8.27139,14.4035C8.28937,14.414,8.30489,14.4295,8.32387,14.437C8.38287,14.46,8.44537,14.472,8.50737,14.472C8.57287,14.472,8.63837,14.459,8.69937,14.433C8.71989,14.4245,8.73587,14.407,8.75487,14.396C8.79237,14.374,8.83137,14.3555,8.86337,14.323C8.86487,14.3215,8.86537,14.319,8.866869999999999,14.3175C8.86787,14.31598,8.869869999999999,14.31548,8.871369999999999,14.31398L15.8899,6.841982C16.079900000000002,6.641481,16.0694,6.324981,15.8684,6.135481Z" fill="#FFFFFF" fill-opacity="1"/></g></g></g></g></svg>