<?xml version="1.0" encoding="utf-8"?>
<!-- Generator: Adobe Illustrator 21.0.0, SVG Export Plug-In . SVG Version: 6.00 Build 0)  -->
<svg version="1.1" id="图层_1" xmlns="http://www.w3.org/2000/svg" xmlns:xlink="http://www.w3.org/1999/xlink" x="0px" y="0px"
	 viewBox="0 0 40 40" style="enable-background:new 0 0 40 40;" xml:space="preserve">
<style type="text/css">
	.st0{fill:#86BBFF;}
	.st1{fill:#FFFFFF;}
	.st2{fill:#2384C8;}
	.st3{fill:#F68121;}
	.st4{fill:#DCEBFF;}
</style>
<path class="st2" d="M34,40H6c-3.3,0-6-2.7-6-6V6c0-3.3,2.7-6,6-6h28c3.3,0,6,2.7,6,6v28C40,37.3,37.3,40,34,40z"/>
<path class="st1" d="M23.8,22l4.7,5.4c0.7,0.8,0.6,1.9-0.2,2.6c-0.3,0.3-0.8,0.4-1.2,0.4h-6.2v-5.6h-1.9v5.6h-6.2
	c-1,0-1.9-0.8-1.9-1.9c0-0.4,0.2-0.9,0.4-1.2l4.7-5.4c1.2,0.7,2.5,1.1,3.8,1.1C21.4,23.1,22.7,22.7,23.8,22z M20,9.5
	c3.4,0,6.2,2.8,6.2,6.2s-2.8,6.2-6.2,6.2s-6.2-2.8-6.2-6.2S16.6,9.5,20,9.5z"/>
</svg>
