<svg xmlns="http://www.w3.org/2000/svg" xmlns:xlink="http://www.w3.org/1999/xlink" fill="none" version="1.1" width="40" height="40" viewBox="0 0 40 40"><defs><clipPath id="master_svg0_2763_2931"><rect x="0" y="0" width="40" height="40" rx="0"/></clipPath></defs><g clip-path="url(#master_svg0_2763_2931)"><g><path d="M34,40L6,40C2.7,40,0,37.3,0,34L0,6C0,2.7,2.7,0,6,0L34,0C37.3,0,40,2.7,40,6L40,34C40,37.3,37.3,40,34,40Z" fill="#3981FC" fill-opacity="1"/></g><g><path d="M23.9,22.5L28.6,27.9C29.3,28.7,29.2,29.8,28.4,30.5C28.1,30.8,27.6,30.9,27.2,30.9L21,30.9L21,25.3L19.1,25.3L19.1,30.9L12.9,30.9C11.9,30.9,11,30.1,11,29C11,28.6,11.200001,28.1,11.4,27.8L16.1,22.4C17.3,23.1,18.6,23.5,19.9,23.5C21.5,23.6,22.8,23.2,23.9,22.5ZM20.1,10C23.5,10,26.3,12.8,26.3,16.2C26.3,19.6,23.5,22.4,20.1,22.4C16.7,22.4,13.9,19.6,13.9,16.2C13.9,12.8,16.7,10,20.1,10Z" fill="#FFFFFF" fill-opacity="1"/></g></g></svg>