<svg xmlns="http://www.w3.org/2000/svg" xmlns:xlink="http://www.w3.org/1999/xlink" fill="none" version="1.1" width="282" height="282" viewBox="0 0 282 282"><defs><filter id="master_svg0_163_2052" filterUnits="objectBoundingBox" color-interpolation-filters="sRGB" x="-20" y="-16" width="292" height="292"><feFlood flood-opacity="0" result="BackgroundImageFix"/><feColorMatrix in="SourceAlpha" type="matrix" values="0 0 0 0 0 0 0 0 0 0 0 0 0 0 0 0 0 0 127 0"/><feOffset dy="4" dx="0"/><feGaussianBlur stdDeviation="5"/><feColorMatrix type="matrix" values="0 0 0 0 0 0 0 0 0 0 0 0 0 0 0 0 0 0 0.10000000149011612 0"/><feBlend mode="normal" in2="BackgroundImageFix" result="effect1_dropShadow"/><feBlend mode="normal" in="SourceGraphic" in2="effect1_dropShadow" result="shape"/></filter><linearGradient x1="0.5" y1="0" x2="0.5" y2="1" id="master_svg1_99_1666"><stop offset="0%" stop-color="#478BFF" stop-opacity="1"/><stop offset="100%" stop-color="#1169FF" stop-opacity="1"/></linearGradient><linearGradient x1="0.5" y1="0" x2="0.5" y2="1" id="master_svg2_99_1666"><stop offset="0%" stop-color="#478BFF" stop-opacity="1"/><stop offset="100%" stop-color="#1169FF" stop-opacity="1"/></linearGradient><linearGradient x1="0.5" y1="0" x2="0.5" y2="1" id="master_svg3_99_1670"><stop offset="0%" stop-color="#1169FF" stop-opacity="1"/><stop offset="100%" stop-color="#478BFF" stop-opacity="1"/></linearGradient><linearGradient x1="0.5" y1="0" x2="0.5" y2="1" id="master_svg4_99_1666"><stop offset="0%" stop-color="#478BFF" stop-opacity="1"/><stop offset="100%" stop-color="#1169FF" stop-opacity="1"/></linearGradient><linearGradient x1="0.5" y1="0" x2="0.5" y2="1" id="master_svg5_99_1670"><stop offset="0%" stop-color="#1169FF" stop-opacity="1"/><stop offset="100%" stop-color="#478BFF" stop-opacity="1"/></linearGradient><linearGradient x1="0.5" y1="0" x2="0.5" y2="1" id="master_svg6_99_1666"><stop offset="0%" stop-color="#478BFF" stop-opacity="1"/><stop offset="100%" stop-color="#1169FF" stop-opacity="1"/></linearGradient></defs><g filter="url(#master_svg0_163_2052)"><g><rect x="15" y="11" width="252" height="252" rx="40" fill="#FFFFFF" fill-opacity="1"/></g><g><g><rect x="55" y="124.99929809570312" width="26" height="62" rx="13" fill="url(#master_svg1_99_1666)" fill-opacity="1"/></g><g><rect x="100" y="87.99929809570312" width="26" height="99" rx="13" fill="url(#master_svg2_99_1666)" fill-opacity="1"/></g><g transform="matrix(0.7848072052001953,-0.6197400093078613,0.6197400093078613,0.7848072052001953,-40.679531743339794,79.40457735523523)"><path d="M94.05814052939454,204.95636744689943C94.02607672939453,212.08336744689942,99.79518762939453,217.8793674468994,106.92300762939453,217.8793674468994C114.00600762939453,217.8793674468994,119.75680762939453,212.1543674468994,119.78860762939453,205.07136744689942L120.21000762939454,111.20206744689942C120.24200762939454,104.07445744689942,114.47290762939453,98.27936744689941,107.34520762939454,98.27936744689941C100.26269762939454,98.27936744689941,94.51226862939453,104.00398744689942,94.48040862939453,111.08646744689942L94.05814052939454,204.95636744689943Z" fill="url(#master_svg3_99_1670)" fill-opacity="1"/></g><g><rect x="158" y="86.99929809570312" width="25" height="100" rx="12.5" fill="url(#master_svg4_99_1666)" fill-opacity="1"/></g><g transform="matrix(0.7848072052001953,-0.6197400093078613,0.6197400093078613,0.7848072052001953,-28.198345376440557,115.34949111461174)"><path d="M152.0581329,204.95635791015627C152.0260691,212.08335791015625,157.79518,217.87935791015624,164.923,217.87935791015624C172.006,217.87935791015624,177.7568,212.15435791015625,177.7886,205.07135791015625L178.21,111.20205791015626C178.242,104.07444791015625,172.4729,98.27935791015625,165.3452,98.27935791015625C158.26269,98.27935791015625,152.512261,104.00397791015625,152.480401,111.08645791015626L152.0581329,204.95635791015627Z" fill="url(#master_svg5_99_1670)" fill-opacity="1"/></g><g><rect x="55" y="88.35420227050781" width="25.730966567993164" height="32.54210662841797" rx="12.865483283996582" fill="url(#master_svg6_99_1666)" fill-opacity="1"/></g></g></g></svg>