<svg xmlns="http://www.w3.org/2000/svg" xmlns:xlink="http://www.w3.org/1999/xlink" fill="none" version="1.1" width="36" height="36" viewBox="0 0 36 36"><defs><clipPath id="master_svg0_495_0640"><rect x="0" y="0" width="36" height="36" rx="0"/></clipPath></defs><g clip-path="url(#master_svg0_495_0640)"><g><path d="M25.9,9L10.1,9C9.492487,9,9,9.492487,9,10.1L9,10.9C9.000000953674,11.50751,9.492487,12,10.1,12L25.9,12C26.5075,12,27,11.50751,27,10.9L27,10.1C27,9.492486,26.5075,9,25.9,9Z" fill="#3981FC" fill-opacity="1"/></g><g><path d="M25.9,24L10.1,24C9.492488,23.99999809265,9,24.492485,9,25.1L9,25.9C9,26.50751,9.492487,27,10.1,27L25.9,27C26.5075,27,27,26.50751,27,25.9L27,25.1C27,24.492487,26.5075,23.99999809265,25.9,24Z" fill="#3981FC" fill-opacity="1"/></g><g><path d="M25.9,16.5L10.1,16.5C9.492487,16.5,9,16.992487,9,17.6L9,18.4C9,19.00751,9.492487,19.5,10.1,19.5L25.9,19.5C26.5075,19.5,27,19.00751,27,18.4L27,17.6C27,16.992487,26.5075,16.5,25.9,16.5Z" fill="#3981FC" fill-opacity="1"/></g></g></svg>