<svg xmlns="http://www.w3.org/2000/svg" xmlns:xlink="http://www.w3.org/1999/xlink" fill="none" version="1.1" width="32" height="32" viewBox="0 0 32 32"><defs><clipPath id="master_svg0_344_2900"><rect x="0" y="0" width="32" height="32" rx="0"/></clipPath></defs><g clip-path="url(#master_svg0_344_2900)"><g><path d="" fill="#42B49A" fill-opacity="1"/></g><g><path d="M24.762749202728273,6.92743373664856L24.721549202728273,6.882783736648559C22.38114920272827,4.5327537366485595,19.154749202728272,3.0850937366485596,15.588449202728272,3.0850937366485596C12.02265920272827,3.0850937366485596,8.796159202728273,4.5327537366485595,6.442969202728271,6.882783736648559L6.459029202728272,6.882783736648559C4.118499202728271,9.219593736648559,2.6672499179842717,12.44587373664856,2.6672499179842717,15.996893736648559C2.6672499179842717,19.56629373664856,4.118499202728271,22.79829373664856,6.442969202728271,25.14259373664856L6.459029202728272,25.12939373664856L6.459029202728272,25.14259373664856C8.796189202728272,27.454693736648558,12.02265920272827,28.91489373664856,15.588449202728272,28.91489373664856L25.185049202728273,28.91489373664856L25.213949202728273,28.91489373664856C25.76324920272827,28.91489373664856,26.20144920272827,28.47029373664856,26.20144920272827,27.91779373664856L26.20144920272827,23.33179373664856C26.90654920272827,22.31579373664856,27.468449202728273,21.19839373664856,27.855749202728273,19.99829373664856C28.271849202728273,18.74009373664856,28.49724920272827,17.393893736648558,28.49724920272827,15.996893736648559C28.49724920272827,12.47159373664856,27.07444920272827,9.26425373664856,24.762749202728273,6.92743373664856ZM22.015949202728272,19.77609373664856L9.148529202728271,19.77609373664856C8.811909202728271,19.77609373664856,8.551719202728272,19.50909373664856,8.551719202728272,19.16569373664856C8.551719202728272,18.86089373664856,8.811909202728271,18.581393736648558,9.148529202728271,18.581393736648558L22.015949202728272,18.581393736648558C22.352549202728273,18.581393736648558,22.60664920272827,18.86089373664856,22.60664920272827,19.16569373664856C22.60664920272827,19.50909373664856,22.352549202728273,19.77609373664856,22.015949202728272,19.77609373664856ZM22.015949202728272,16.59989373664856L9.148529202728271,16.59989373664856C8.811909202728271,16.59989373664856,8.551719202728272,16.33319373664856,8.551719202728272,15.996893736648559C8.551719202728272,15.67249373664856,8.811909202728271,15.39979373664856,9.148529202728271,15.39979373664856L22.015949202728272,15.39979373664856C22.352549202728273,15.39979373664856,22.60664920272827,15.67249373664856,22.60664920272827,15.996893736648559C22.60664920272827,16.33319373664856,22.352549202728273,16.59989373664856,22.015949202728272,16.59989373664856ZM22.015949202728272,13.41829373664856L9.148529202728271,13.41829373664856C8.811909202728271,13.41829373664856,8.551719202728272,13.15129373664856,8.551719202728272,12.82109373664856C8.551719202728272,12.49731373664856,8.811909202728271,12.22393373664856,9.148529202728271,12.22393373664856L22.015949202728272,12.22393373664856C22.352549202728273,12.22393373664856,22.60664920272827,12.49731373664856,22.60664920272827,12.82109373664856C22.60664920272827,13.15129373664856,22.352549202728273,13.41829373664856,22.015949202728272,13.41829373664856Z" fill="#3981FC" fill-opacity="1"/></g></g></svg>