<?xml version="1.0" encoding="utf-8"?>
<!-- Generator: Adobe Illustrator 21.0.0, SVG Export Plug-In . SVG Version: 6.00 Build 0)  -->
<svg version="1.1" id="图层_1" xmlns="http://www.w3.org/2000/svg" xmlns:xlink="http://www.w3.org/1999/xlink" x="0px" y="0px"
	 viewBox="0 0 14 14" style="enable-background:new 0 0 14 14;" xml:space="preserve">
<style type="text/css">
	.st0{fill:#444;}
</style>
<path class="st0" d="M13.1,7.9H0.9C0.4,7.9,0,7.5,0,7v0c0-0.5,0.4-0.9,0.9-0.9h12.2C13.6,6.1,14,6.5,14,7v0
	C14,7.5,13.6,7.9,13.1,7.9z"/>
<path class="st0" d="M6.1,13.1V0.9C6.1,0.4,6.5,0,7,0h0c0.5,0,0.9,0.4,0.9,0.9v12.2C7.9,13.6,7.5,14,7,14h0
	C6.5,14,6.1,13.6,6.1,13.1z"/>
</svg>
