<svg xmlns="http://www.w3.org/2000/svg" xmlns:xlink="http://www.w3.org/1999/xlink" fill="none" version="1.1" width="30" height="30" viewBox="0 0 30 30"><defs><clipPath id="master_svg0_15_051"><rect x="0" y="0" width="30" height="30" rx="0"/></clipPath></defs><g clip-path="url(#master_svg0_15_051)"><g><path d="M19.600000190734864,21.700000190734862L5.900000190734863,8.000000190734863C5.600000390734864,7.700000190734864,5.600000390734864,7.200001190734863,5.900000190734863,6.900000190734863C6.200001190734863,6.600000390734864,6.700000190734864,6.600000390734864,7.0000001907348635,6.900000190734863L20.700000190734862,20.600000190734864C21.000000190734863,20.900000190734865,21.000000190734863,21.400000190734865,20.700000190734862,21.700000190734862C20.400000190734865,22.000000190734863,19.900000190734865,22.000000190734863,19.600000190734864,21.700000190734862Z" fill="#F86464" fill-opacity="1"/></g><g><g><path d="M24.000000381469725,9.600000479553223L20.600000381469727,12.400002479553223L20.600000381469727,17.700002479553223L24.000000381469725,20.400002479553223Q24.200000381469728,20.600002479553222,24.500000381469725,20.600002479553222C24.900000381469727,20.600002479553222,25.200000381469728,20.200002479553223,25.200000381469728,19.80000247955322L25.200000381469728,10.200002479553223C25.200000381469728,9.800003479553222,24.900000381469727,9.400002479553223,24.500000381469725,9.400002479553223Q24.200000381469728,9.399999618533222,24.000000381469725,9.600000479553223Z" fill="#F0F0F0" fill-opacity="1"/></g><g><g><path d="M20.6,19.6L20.6,19.5L20.6,10.5C20.6,9.4,19.7,8.5,18.6,8.5L9.5,8.5L20.6,19.6Z" fill="#F0F0F0" fill-opacity="1"/></g><g><path d="M5.800000190734863,8.800000190734863C5.200000190734864,9.100000190734864,4.800000190734863,9.800000190734863,4.800000190734863,10.500000190734863L4.800000190734863,19.500000190734863C4.800000190734863,20.600000190734864,5.700000190734864,21.500000190734863,6.800000190734863,21.500000190734863L18.500000190734863,21.500000190734863L5.800000190734863,8.800000190734863Z" fill="#F0F0F0" fill-opacity="1"/></g></g></g></g></svg>