<?xml version="1.0" encoding="utf-8"?>
<!-- Generator: Adobe Illustrator 21.0.0, SVG Export Plug-In . SVG Version: 6.00 Build 0)  -->
<svg version="1.1" id="图层_1" xmlns="http://www.w3.org/2000/svg" xmlns:xlink="http://www.w3.org/1999/xlink" x="0px" y="0px"
	 viewBox="0 0 31 31" style="enable-background:new 0 0 31 31;" xml:space="preserve">
<style type="text/css">
	.st0{fill:#2384C8;}
</style>
<path class="st0" d="M15.5,1.2c-7.8,0-14.2,6.2-14.4,14C1.3,8.4,6.5,3,12.8,3c6.4,0,11.7,5.6,11.7,12.6c0,1.5,1.2,2.7,2.7,2.7
	c1.5,0,2.7-1.2,2.7-2.7C29.8,7.6,23.4,1.2,15.5,1.2z M15.5,29.9c7.8,0,14.2-6.2,14.3-14c-0.2,6.8-5.3,12.2-11.7,12.2
	c-6.4,0-11.7-5.6-11.7-12.6c0-1.5-1.2-2.7-2.7-2.7c-1.5,0-2.7,1.2-2.7,2.7C1.1,23.4,7.6,29.9,15.5,29.9z"/>
</svg>
