<svg xmlns="http://www.w3.org/2000/svg" xmlns:xlink="http://www.w3.org/1999/xlink" fill="none" version="1.1" width="40" height="40" viewBox="0 0 40 40"><defs><clipPath id="master_svg0_138_52"><rect x="0" y="0" width="40" height="40" rx="0"/></clipPath></defs><g clip-path="url(#master_svg0_138_52)"><g><path d="M7.777753984375,3.3333740234375C7.333303984375,3.3333740234375,6.888861984375,3.5555960234375,6.555528984375,3.8889300234375C6.222194984375,4.2222630234375,6.111083984375,4.6667040234375,6.111083984375,5.0000440234375L6.111083984375,35.0000740234375C6.111083984375,35.4444740234375,6.333305984375,35.8889740234375,6.555528984375,36.1111740234375C6.999972984375,36.4444740234375,7.333303984375,36.6666740234375,7.777753984375,36.6666740234375L32.222183984375,36.6666740234375C32.666683984375,36.6666740234375,33.111083984375,36.4444740234375,33.333283984375,36.1111740234375C33.666683984375,35.7777740234375,33.888883984375,35.3333740234375,33.888883984375,35.0000740234375L33.888883984375,12.7778140234375L29.166683984375,8.0555940234375L24.444383984375,3.3333740234375L7.777753984375,3.3333740234375Z" fill="#616161" fill-opacity="1"/></g><g><path d="M33.8888980078125,12.7778140234375L26.1111280078125,12.7778140234375C25.6666780078125,12.7778140234375,25.2222370078125,12.6667040234375,25.0000140078125,12.3333740234375C24.6666810078125,12.0000440234375,24.4444580078125,11.5555940234375,24.4444580078125,11.1111540234375L24.4444580078125,3.3333740234375L33.8888980078125,12.7778140234375Z" fill="#585858" fill-opacity="1"/></g></g></svg>