<svg xmlns="http://www.w3.org/2000/svg" xmlns:xlink="http://www.w3.org/1999/xlink" fill="none" version="1.1" width="40" height="40" viewBox="0 0 40 40"><defs><clipPath id="master_svg0_130_055"><rect x="0" y="0" width="40" height="40" rx="0"/></clipPath></defs><g clip-path="url(#master_svg0_130_055)"><g><path d="M34.111085498046876,12.77775298828125L34.111085498046876,34.11111298828125C34.111085498046876,35.55551298828125,32.999985498046875,36.66661298828125,31.555585498046874,36.66661298828125L8.444445498046875,36.66661298828125C6.999995498046875,36.66661298828125,5.888885498046875,35.55551298828125,5.888885498046875,34.11111298828125L5.888885498046875,5.88887298828125C5.888885498046875,4.44442298828125,6.999995498046875,3.33331298828125,8.444445498046875,3.33331298828125L24.888885498046875,3.33331298828125" fill="#8095FF" fill-opacity="1"/></g><g><path d="M24.77777099609375,3.33331298828125L34.111100996093754,12.77775298828125L25.88888099609375,12.77775298828125Q24.99999399609375,12.44442298828125,24.88888299609375,11.44442298828125L24.88888299609375,3.33331298828125L24.77777099609375,3.33331298828125Z" fill="#CCD5FF" fill-opacity="1"/></g><g><path d="M22.4444419921875,18.6666259765625C21.8888419921875,18.6666259765625,21.3333219921875,18.6666259765625,20.7777619921875,18.6666259765625C20.6666519921875,18.6666259765625,20.6666519921875,18.7777379765625,20.5555419921875,18.8888489765625C20.3333219921875,19.3332929765625,20.2222119921875,19.8888459765625,19.9999919921875,20.3332959765625C19.8888719921875,20.5555159765625,19.8888719921875,20.7777359765625,19.7777619921875,21.1110759765625C19.4444319921875,20.3332959765625,19.1110919921875,19.5555159765625,18.7777619921875,18.8888489765625C18.7777619921875,18.7777379765625,18.6666519921875,18.6666259765625,18.5555419921875,18.6666259765625C17.9999819921875,18.6666259765625,17.5555419921875,18.6666259765625,16.9999819921875,18.6666259765625C17.1111019921875,18.7777379765625,17.1111019921875,18.8888489765625,17.2222119921875,18.9999589765625C17.6666519921875,19.8888459765625,18.1111019921875,20.8888459765625,18.6666519921875,21.7777359765625C18.7777619921875,21.9999559765625,18.7777619921875,22.2221759765625,18.6666519921875,22.4444059765625C17.9999819921875,23.5555159765625,17.4444319921875,24.6666259765625,16.7777619921875,25.6666259765625C16.6666519921875,25.7777359765625,16.6666519921875,25.8888459765625,16.5555419921875,25.9999559765625C17.1111019921875,25.9999559765625,17.5555419921875,25.9999559765625,17.9999819921875,25.9999559765625C18.2222119921875,25.9999559765625,18.3333219921875,25.8888459765625,18.4444319921875,25.6666259765625C18.8888719921875,24.8888459765625,19.3333219921875,24.1110659765625,19.7777619921875,23.3332959765625C20.1110919921875,24.1110659765625,20.5555419921875,24.8888459765625,20.8888719921875,25.6666259765625C20.8888719921875,25.7777359765625,20.9999819921875,25.8888459765625,21.1111019921875,25.8888459765625C21.6666419921875,25.8888459765625,22.2222419921875,25.8888459765625,22.8888419921875,25.8888459765625C22.7777419921875,25.6666259765625,22.7777419921875,25.5555159765625,22.6666419921875,25.5555159765625C21.9999419921875,24.4444059765625,21.4444319921875,23.3332959765625,20.7777619921875,22.2221859765625C20.6666519921875,21.9999559765625,20.6666519921875,21.8888459765625,20.7777619921875,21.6666259765625C21.2222119921875,20.9999559765625,21.5555419921875,20.2221859765625,21.8888419921875,19.4444049765625C22.1111419921875,19.4444049765625,22.3333419921875,19.1110719765625,22.4444419921875,18.6666259765625ZM14.6666519921875,26.2221859765625L14.6666519921875,20.2221859765625L16.4444319921875,20.2221859765625L16.4444319921875,18.7777399765625L11.5555419921875,18.7777399765625L11.5555419921875,20.3332959765625L13.3333219921875,20.3332959765625L13.3333219921875,26.3332959765625Q13.3333219921875,26.2221859765625,14.6666519921875,26.2221859765625ZM26.5555419921875,26.2221859765625L26.5555419921875,20.2221859765625L28.3333419921875,20.2221859765625L28.3333419921875,18.7777399765625L23.4444419921875,18.7777399765625L23.4444419921875,20.3332959765625L25.2222419921875,20.3332959765625L25.2222419921875,26.3332959765625Q25.2222419921875,26.2221859765625,26.5555419921875,26.2221859765625Z" fill="#FFFFFF" fill-opacity="1"/></g></g></svg>