<svg xmlns="http://www.w3.org/2000/svg" xmlns:xlink="http://www.w3.org/1999/xlink" fill="none" version="1.1" width="40" height="40" viewBox="0 0 40 40"><defs><clipPath id="master_svg0_130_40"><rect x="0" y="0" width="40" height="40" rx="0"/></clipPath></defs><g clip-path="url(#master_svg0_130_40)"><g><path d="M7.777784501953125,3.33331298828125C7.333334501953125,3.33331298828125,6.888892501953125,3.55553498828125,6.555559501953125,3.88886898828125C6.222225501953125,4.22220198828125,6.111114501953125,4.66664298828125,6.111114501953125,4.99998298828125L6.111114501953125,35.00001298828125C6.111114501953125,35.44441298828125,6.333336501953125,35.88891298828125,6.555559501953125,36.11111298828125C7.000003501953125,36.44441298828125,7.333334501953125,36.66661298828125,7.777784501953125,36.66661298828125L32.222214501953125,36.66661298828125C32.66671450195312,36.66661298828125,33.111114501953125,36.44441298828125,33.333314501953126,36.11111298828125C33.66671450195312,35.77771298828125,33.888914501953124,35.33331298828125,33.888914501953124,35.00001298828125L33.888914501953124,12.77775298828125L24.444414501953126,3.33331298828125L7.777784501953125,3.33331298828125Z" fill="#6CCBFF" fill-opacity="1"/></g><g><path d="M33.8888980078125,12.77775298828125L26.1111280078125,12.77775298828125C25.6666780078125,12.77775298828125,25.2222370078125,12.66664298828125,25.0000140078125,12.33331298828125C24.6666810078125,11.99998298828125,24.4444580078125,11.55553298828125,24.4444580078125,11.11109298828125L24.4444580078125,3.33331298828125L33.8888980078125,12.77775298828125Z" fill="#C4EAFF" fill-opacity="1"/></g><g><path d="M12,15.6666539921875L14.22222,15.6666539921875L16.44444,24.1111019921875L18.88889,15.5555419921875L21.11111,15.5555419921875L23.6667,23.9999919921875L25.8889,15.5555419921875L28.1111,15.5555419921875L24.7778,26.4444419921875L22.5556,26.4444419921875L20,18.1110919921875L17.44444,26.4444419921875L15.22222,26.4444419921875L12,15.6666539921875Z" fill="#FFFFFF" fill-opacity="1"/></g></g></svg>