<svg xmlns="http://www.w3.org/2000/svg" xmlns:xlink="http://www.w3.org/1999/xlink" fill="none" version="1.1" width="40" height="40" viewBox="0 0 40 40"><defs><clipPath id="master_svg0_130_647"><rect x="0" y="0" width="40" height="40" rx="0"/></clipPath></defs><g clip-path="url(#master_svg0_130_647)"><g><path d="M7.777723466796875,3.33331298828125C7.333273466796875,3.33331298828125,6.888831466796875,3.55553498828125,6.555498466796875,3.88886898828125C6.222164466796875,4.22220198828125,6.111053466796875,4.66664298828125,6.111053466796875,4.99998298828125L6.111053466796875,35.00001298828125C6.111053466796875,35.44441298828125,6.333275466796875,35.88891298828125,6.555498466796875,36.11111298828125C6.999942466796875,36.44441298828125,7.333273466796875,36.66661298828125,7.777723466796875,36.66661298828125L32.222153466796875,36.66661298828125C32.66665346679687,36.66661298828125,33.111053466796875,36.44441298828125,33.333253466796876,36.11111298828125C33.66665346679687,35.77771298828125,33.888853466796874,35.33331298828125,33.888853466796874,35.00001298828125L33.888853466796874,12.77775298828125L24.444353466796876,3.33331298828125L7.777723466796875,3.33331298828125Z" fill="#8B572A" fill-opacity="1"/></g><g><path d="M33.888867490234375,12.77775298828125L26.111097490234375,12.77775298828125C25.666647490234375,12.77775298828125,25.222206490234374,12.66664298828125,24.999983490234374,12.33331298828125C24.666650490234375,11.99998298828125,24.444427490234375,11.55553298828125,24.444427490234375,11.11109298828125L24.444427490234375,3.33331298828125L33.888867490234375,12.77775298828125Z" fill="#6F4622" fill-opacity="1"/></g><g><path d="M14.286102294921875,3.33331298828125L17.142772294921876,3.33331298828125L17.142772294921876,6.19053298828125L14.286658604921875,6.19053298828125L14.286658604921875,3.33331298828125L14.286102294921875,3.33331298828125ZM17.142772294921876,6.19053298828125L19.999992294921874,6.19053298828125L19.999992294921874,9.04776298828125L17.142772294921876,9.04776298828125L17.142772294921876,6.19053298828125ZM14.286102294921875,9.04776298828125L17.142772294921876,9.04776298828125L17.142772294921876,11.90442298828125L14.286658604921875,11.90442298828125L14.286658604921875,9.04831298828125L14.286102294921875,9.04776298828125ZM17.142772294921876,11.90442298828125L19.999992294921874,11.90442298828125L19.999992294921874,14.76161298828125L17.142772294921876,14.76161298828125L17.142772294921876,11.90442298828125ZM14.286102294921875,14.76161298828125L17.142772294921876,14.76161298828125L17.142772294921876,17.618912988281252L14.286658604921875,17.618912988281252L14.286658604921875,14.76161298828125L14.286102294921875,14.76161298828125ZM18.571662294921875,27.61891298828125L15.714432294921876,27.61891298828125C14.926602294921874,27.61641298828125,14.288542644921876,26.97841298828125,14.286103354561876,26.19051298828125L14.286103354561876,21.90391298828125L19.999992294921874,21.90391298828125L19.999992294921874,26.19001298828125C19.999992294921874,26.97551298828125,19.428882294921877,27.61831298828125,18.571662294921875,27.61831298828125L18.571662294921875,27.61891298828125ZM17.142772294921876,17.618912988281252L19.999992294921874,17.618912988281252L19.999992294921874,20.47611298828125L17.142772294921876,20.47611298828125L17.142772294921876,17.618912988281252Z" fill="#FFFFFF" fill-opacity="1"/></g></g></svg>