<svg xmlns="http://www.w3.org/2000/svg" xmlns:xlink="http://www.w3.org/1999/xlink" fill="none" version="1.1" width="120" height="30.64833641052246" viewBox="0 0 120 30.64833641052246"><g><g><path d="M35.511,19.757Q34.7942,20.4126,34.2231,20.6919C31.3923,22.1003,28.0754,22.4038,24.8437,22.0395C17.2016,21.1897,13.0464,15.8962,14.8203,10.7241C14.8567,10.6269,14.9175,10.457,14.9661,10.3477C13.095,11.5375,10.4464,13.8322,9.35298,17.7052Q9.35298,17.7173,9.35298,17.7295Q9.26793,18.2637,9.35298,18.5065C9.54737,19.1743,10.2642,19.4656,11.0661,19.2592C12.4268,18.8222,15.3792,18.2394,16.8614,21.4932C18.1128,24.2371,16.6913,28.2558,13.3502,29.9677C12.9979,30.1498,12.6455,30.2955,12.2689,30.4048C10.082,31.0604,8.05298,30.3562,6.97167,28.7293C6.92307,28.6564,6.87447,28.5714,6.82587,28.4865C5.40437,26.2039,4.97914,23.6057,5.35578,21.0683C6.23054,15.2527,11.0904,10.8333,16.3997,9.42497Q16.6063,9.36426,17.0315,9.26713C16.3268,9.54638,15.6586,9.88633,15.0268,10.2991C14.9661,11.0154,14.8932,15.6412,21.9399,17.3652L21.9642,17.3652Q22.6567,17.4502,23.0334,17.3774C24.0175,17.171,24.71,16.4425,24.7586,15.6655C24.7343,14.3178,25.2203,11.8896,29.1325,10.9669C30.6269,10.6269,32.1699,10.6876,33.6278,11.1247L33.6278,11.1369L33.6278,11.1247C35.6325,11.7682,37.0904,13.6865,37.0904,15.9569C37.0783,17.4502,36.4708,18.8343,35.511,19.757ZM15.5007,11.7439Q15.3184,11.6953,14.9661,11.5739C15.6708,11.6225,16.3754,11.5982,17.0801,11.5254C17.7969,10.5905,20.3848,6.83892,17.4324,4.25287L17.4203,4.24073C17.2623,4.1436,17.1044,4.08289,16.9222,4.03433C16.3754,3.96148,15.695,4.18002,15.2577,4.55639C14.4922,5.26058,12.7306,6.53539,10.653,6.11045C9.15858,5.80693,8.97634,4.51997,10.1063,3.26944C10.2277,3.13589,10.3614,3.00234,10.495,2.89307C11.382,2.14032,12.4511,1.64254,13.6053,1.43614C13.6661,1.424,13.7147,1.424,13.7754,1.41186C15.3913,1.18117,16.9708,1.2783,18.2586,1.81251C21.8549,3.30586,21.7334,7.65237,17.4324,11.3068C17.3717,11.3554,17.2745,11.4282,17.1894,11.5011C19.4979,11.2583,23.1792,10.3477,26.0829,7.19101L26.0951,7.17887Q26.3745,6.79035,26.3867,6.57181C26.4474,6.02547,25.9371,5.61267,25.2082,5.52768C23.9081,5.44269,21.6726,5.01776,22.11,3.0509C22.4259,1.64254,24.4549,0.355581,26.7511,0.0641957C27.0063,0.0277725,27.2614,0.0156312,27.5044,0.00349026C29.0474,-0.0450742,30.3353,0.416287,30.9185,1.19332C30.9427,1.22974,30.9792,1.2783,31.0035,1.31473C31.8418,2.55312,31.9633,4.15574,31.0642,5.89191C28.6951,10.5055,20.8343,13.3101,15.5007,11.7439ZM17.724,9.63136Q17.8091,9.76492,17.967,10.032Q14.881,7.02103,8.7455,9.23071L8.7212,9.24285C8.49036,9.33998,8.27167,9.47353,8.06513,9.60708C7.5184,10.032,7.27541,10.5905,7.43335,10.979C7.79784,11.6711,8.17447,13.3101,5.61092,15.3862C3.54549,17.0496,1.09128,17.2802,0.265111,15.9569C0.180064,15.8233,0.119316,15.6655,0.0707184,15.5198C-0.184422,14.5971,0.265111,13.3708,1.18848,12.3145C1.23708,12.266,1.28567,12.2053,1.33427,12.1567C2.69502,10.6512,4.31091,9.40068,6.1212,8.4901C10.3857,6.31685,15.4885,6.26828,17.724,9.63136Z" fill="#3981FC" fill-opacity="1"/></g><g><g><path d="M52.4072571105957,25.028844058959486L53.8478271105957,25.189984058959485C53.7510771105957,26.049424058959485,53.4178071105957,26.758464058959483,52.8480271105957,27.317104058959487C52.2782571105957,27.875734058959484,51.52571711059571,28.155054058959486,50.590427110595705,28.155054058959486C49.805637110595704,28.155054058959486,49.1713571105957,27.961684058959484,48.6768271105957,27.564194058959487C48.1823071105957,27.166694058959486,47.806039110595705,26.629544058959485,47.548027110595704,25.963484058959484C47.2792651105957,25.286674058959484,47.1502571105957,24.545404058959484,47.1502571105957,23.728934058959485C47.1502571105957,22.418284058959486,47.4620211105957,21.354734058959483,48.085553110595704,20.538264058959484C48.7090871105957,19.721792058959483,49.5583771105957,19.302814058959484,50.644177110595706,19.302814058959484C51.4934671105957,19.302814058959484,52.2029971105957,19.560646058959485,52.772777110595705,20.087054058959485C53.342557110595706,20.613464058959483,53.697317110595705,21.365474058959485,53.8478271105957,22.343084058959484L52.4072571105957,22.493484058959485C52.1384971105957,21.193584058959484,51.557967110595705,20.549004058959483,50.6549271105957,20.549004058959483C50.074397110595704,20.549004058959483,49.6228771105957,20.817584058959483,49.300357110595705,21.354734058959483C48.977847110595704,21.891884058959484,48.816587110595705,22.676124058959484,48.816587110595705,23.696704058959483C48.816587110595705,24.738784058959485,48.988597110595705,25.523024058959486,49.3326071105957,26.049424058959485C49.6766271105957,26.575834058959483,50.128147110595705,26.844404058959483,50.6979271105957,26.844404058959483C51.1494471105957,26.844404058959483,51.5364671105957,26.661774058959484,51.858987110595706,26.307254058959483C52.1814971105957,25.952734058959486,52.3642571105957,25.523014058959482,52.4072571105957,25.028844058959486Z" fill="#34314C" fill-opacity="1"/></g><g><path d="M60.362646669158934,28.015396264944076L55.073386669158936,28.015396264944076L55.073386669158936,19.420986264944077L56.70746666915893,19.420986264944077L56.70746666915893,26.608056264944075L60.362646669158934,26.608056264944075L60.362646669158934,28.015396264944076Z" fill="#34314C" fill-opacity="1"/></g><g><path d="M64.43709702270507,28.144310388793947C63.29753702270508,28.144310388793947,62.405247022705076,27.714590388793944,61.770966022705075,26.855150388793945C61.13668902270508,25.995710388793945,60.81416702270508,24.942890388793945,60.81416702270508,23.685960388793944C60.81416702270508,22.439770388793946,61.14743002270508,21.386960388793945,61.82471702270508,20.549000388793946C62.501997022705076,19.711047388793947,63.39428702270508,19.292070388793945,64.50159702270508,19.292070388793945C65.61965702270508,19.292070388793945,66.50119702270507,19.711048388793944,67.14622702270508,20.549000388793946C67.79125702270508,21.386960388793945,68.12451702270508,22.439770388793946,68.12451702270508,23.707450388793944C68.12451702270508,25.028840388793945,67.79125702270508,26.103140388793946,67.11396702270508,26.919610388793945C66.44743702270507,27.736080388793944,65.55514702270509,28.144310388793947,64.43709702270507,28.144310388793947ZM64.44783702270507,26.898120388793945C65.00686702270508,26.898120388793945,65.47988702270507,26.672520388793945,65.86690702270508,26.210570388793947C66.25392702270508,25.748620388793945,66.44743702270507,24.910670388793946,66.44743702270507,23.696710388793946C66.44743702270507,22.708350388793946,66.28618702270508,21.934850388793947,65.96366702270508,21.376220388793946C65.64115702270507,20.817580388793946,65.14662702270508,20.538260388793944,64.48009702270508,20.538260388793944C63.15778702270508,20.538260388793944,62.491247022705075,21.601820388793946,62.491247022705075,23.739680388793946C62.491247022705075,24.771010388793947,62.663257022705075,25.565990388793946,62.99652702270508,26.092400388793944C63.34053702270508,26.629550388793945,63.82430702270508,26.898120388793945,64.44783702270507,26.898120388793945Z" fill="#34314C" fill-opacity="1"/></g><g><path d="M75.47786592224121,19.420986264944077L75.47786592224121,24.942896264944075C75.47786592224121,25.694906264944077,75.39186592224121,26.264286264944076,75.23060592224121,26.672526264944075C75.05859592224121,27.08075626494408,74.73608592224122,27.424526264944078,74.25231592224121,27.714596264944078C73.76853592224121,28.004656264944074,73.18800592224122,28.155056264944076,72.48922592224122,28.155056264944076C71.7904459222412,28.155056264944076,71.2099059222412,28.02613626494408,70.7583959222412,27.77904626494408C70.30687092224122,27.531966264944074,69.98435492224121,27.177446264944077,69.78009892224121,26.747726264944077C69.58659092224121,26.307256264944076,69.47908592224121,25.748616264944076,69.47908592224121,25.071816264944076L69.47908592224121,19.420986264944077L71.05941592224121,19.420986264944077L71.05941592224121,24.942896264944075C71.05941592224121,25.694906264944077,71.22067592224121,26.199826264944075,71.5324359222412,26.436176264944077C71.84420592224122,26.672526264944075,72.2204759222412,26.790696264944078,72.63974592224122,26.790696264944078C73.12351592224121,26.790696264944078,73.51052592224121,26.661776264944077,73.8007959222412,26.414686264944077C74.09106592224121,26.156856264944075,74.2308159222412,25.673426264944077,74.2308159222412,24.953636264944077L74.2308159222412,19.420986264944077L75.47786592224121,19.420986264944077Z" fill="#34314C" fill-opacity="1"/></g><g><path d="M77.19795227050781,28.015396264944076L77.19795227050781,19.420986264944077L80.36935227050782,19.420986264944077C81.54116227050781,19.420986264944077,82.4764522705078,19.839964264944076,83.19674227050781,20.667176264944075C83.90627227050781,21.494386264944076,84.26104227050782,22.514976264944075,84.26104227050782,23.739676264944077C84.26104227050782,24.953636264944077,83.89552227050781,25.974226264944075,83.16449227050781,26.79068626494408C82.43345227050781,27.607166264944077,81.37990227050781,28.015396264944076,80.0253422705078,28.015396264944076L77.19795227050781,28.015396264944076ZM78.78903227050782,26.747726264944077L80.07909227050781,26.747726264944077C80.76713227050782,26.747726264944077,81.35841227050781,26.489886264944076,81.8421822705078,25.963476264944077C82.32596227050782,25.447816264944077,82.56247227050781,24.663576264944076,82.56247227050781,23.642986264944078C82.56247227050781,22.805036264944075,82.34746227050782,22.095996264944077,81.92818227050782,21.515876264944076C81.5089122705078,20.935746264944076,80.94989227050782,20.645686264944075,80.25111227050782,20.645686264944075L78.77828227050782,20.645686264944075L78.77828227050782,26.747726264944077L78.78903227050782,26.747726264944077Z" fill="#34314C" fill-opacity="1"/></g><g><path d="M92.38844456298828,28.015396264944076L90.75436456298829,28.015396264944076L89.42129456298828,24.480946264944077L87.23894456298828,24.480946264944077L87.23894456298828,28.015396264944076L85.69086456298828,28.015396264944076L85.69086456298828,19.420986264944077L89.42129456298828,19.420986264944077C90.45334456298828,19.420986264944077,91.21663456298828,19.657332264944078,91.71115456298828,20.119282264944076C92.19492456298828,20.591976264944076,92.44218456298827,21.193586264944077,92.44218456298827,21.934856264944077C92.44218456298827,23.041386264944077,91.92616456298828,23.79339626494408,90.89411456298828,24.212366264944077L92.38844456298828,28.015396264944076ZM87.23894456298828,23.245496264944077L89.16328456298828,23.245496264944077C89.72231456298829,23.245496264944077,90.14158456298829,23.127326264944077,90.41034456298829,22.890976264944076C90.67910456298829,22.654636264944077,90.81886456298828,22.33234626494408,90.81886456298828,21.924106264944076C90.81886456298828,21.548106264944078,90.67910456298829,21.236556264944078,90.41034456298829,21.010956264944078C90.14158456298829,20.774606264944076,89.76531456298828,20.656436264944077,89.28154456298829,20.656436264944077L87.22819456298828,20.656436264944077L87.22819456298828,23.245496264944077L87.23894456298828,23.245496264944077Z" fill="#34314C" fill-opacity="1"/></g><g><path d="M97.03266663330078,28.144310388793947C95.89310663330077,28.144310388793947,95.00081663330079,27.714590388793944,94.36653563330078,26.855150388793945C93.73225863330079,25.995710388793945,93.40973663330078,24.942890388793945,93.40973663330078,23.685960388793944C93.40973663330078,22.439770388793946,93.74299963330078,21.386960388793945,94.42028663330078,20.549000388793946C95.09756663330079,19.711047388793947,95.98985663330078,19.292070388793945,97.09716663330079,19.292070388793945C98.21522663330079,19.292070388793945,99.09676663330077,19.711048388793944,99.74179663330078,20.549000388793946C100.38682663330079,21.386960388793945,100.72008663330078,22.439770388793946,100.72008663330078,23.707450388793944C100.72008663330078,25.028840388793945,100.38682663330079,26.103140388793946,99.70953663330079,26.919610388793945C99.04300663330078,27.736080388793944,98.15071663330079,28.144310388793947,97.03266663330078,28.144310388793947ZM97.05416663330078,26.898120388793945C97.61319663330079,26.898120388793945,98.08621663330078,26.672520388793945,98.47323663330079,26.210570388793947C98.86024663330078,25.748620388793945,99.05376663330078,24.910670388793946,99.05376663330078,23.696710388793946C99.05376663330078,22.708350388793946,98.89250663330078,21.934850388793947,98.56999663330078,21.376220388793946C98.24747663330078,20.817580388793946,97.75295663330078,20.538260388793944,97.08642663330077,20.538260388793944C95.76410663330078,20.538260388793944,95.09757663330078,21.601820388793946,95.09757663330078,23.739680388793946C95.09757663330078,24.771010388793947,95.26957663330079,25.565990388793946,95.60284663330079,26.092400388793944C95.93611663330078,26.629550388793945,96.41988663330078,26.898120388793945,97.05416663330078,26.898120388793945Z" fill="#34314C" fill-opacity="1"/></g><g><path d="M105.34282059448242,28.144310388793947C104.20326059448242,28.144310388793947,103.31097059448243,27.714590388793944,102.67668959448243,26.855150388793945C102.04241259448243,25.995710388793945,101.71989059448242,24.942890388793945,101.71989059448242,23.685960388793944C101.71989059448242,22.439770388793946,102.05315359448242,21.386960388793945,102.73044059448242,20.549000388793946C103.40772059448243,19.711047388793947,104.30001059448242,19.292070388793945,105.40732059448243,19.292070388793945C106.52538059448243,19.292070388793945,107.40692059448241,19.711048388793944,108.05195059448242,20.549000388793946C108.69698059448243,21.386960388793945,109.03024059448242,22.439770388793946,109.03024059448242,23.707450388793944C109.03024059448242,25.028840388793945,108.69698059448243,26.103140388793946,108.01969059448243,26.919610388793945C107.34241059448242,27.736080388793944,106.45012059448243,28.144310388793947,105.34282059448242,28.144310388793947ZM105.35356059448242,26.898120388793945C105.91259059448242,26.898120388793945,106.38561059448242,26.672520388793945,106.77263059448242,26.210570388793947C107.15965059448243,25.748620388793945,107.35316059448242,24.910670388793946,107.35316059448242,23.696710388793946C107.35316059448242,22.708350388793946,107.19191059448242,21.934850388793947,106.86939059448243,21.376220388793946C106.54688059448242,20.817580388793946,106.05235059448242,20.538260388793944,105.38582059448242,20.538260388793944C104.06351059448242,20.538260388793944,103.39697059448243,21.601820388793946,103.39697059448243,23.739680388793946C103.39697059448243,24.771010388793947,103.56898059448243,25.565990388793946,103.90225059448242,26.092400388793944C104.23551059448242,26.629550388793945,104.71928059448243,26.898120388793945,105.35356059448242,26.898120388793945Z" fill="#34314C" fill-opacity="1"/></g><g><path d="M118.9099537512207,28.015396264944076L117.3296337512207,28.015396264944076L117.3296337512207,20.495286264944077L114.95377375122071,28.015396264944076L114.1367337512207,28.015396264944076L111.7393737512207,20.495286264944077L111.7393737512207,28.015396264944076L110.4708137512207,28.015396264944076L110.4708137512207,19.420986264944077L112.9004237512207,19.420986264944077L114.7065237512207,24.953636264944077L116.4803537512207,19.420986264944077L118.9207137512207,19.420986264944077L118.9207137512207,28.015396264944076L118.9099537512207,28.015396264944076Z" fill="#34314C" fill-opacity="1"/></g></g><g><g><path d="M53.51940132080078,9.15437119541168C52.53439132080078,10.844431195411682,51.38211132080078,12.460171195411682,50.24842132080078,13.797371195411682L56.92049132080078,13.388771195411682C56.381491320800784,12.590171195411681,55.84253132080078,11.773031195411683,55.340731320800785,11.048721195411682L57.16209132080078,10.101541195411682C58.555991320800786,11.940181195411682,60.13569132080078,14.317371195411683,60.97199132080078,15.877471195411681L59.03919132080078,17.04747119541168C58.797591320800784,16.546071195411685,58.48159132080078,15.951771195411682,58.109891320800784,15.283171195411683C49.69087132080078,15.933171195411681,48.50142132080078,16.007471195411682,47.60934132080078,16.34177119541168C47.497831320800785,15.896071195411682,47.107544320800784,14.763171195411681,46.84735432080078,14.113071195411683C47.31198132080078,13.983071195411682,47.665091320800784,13.611671195411683,48.22265132080078,12.998771195411683C48.66869132080078,12.515871195411682,49.78379132080078,10.918721195411683,50.713041320800784,9.13579119541168L46.17829132080078,9.13579119541168L46.17829132080078,7.0557211954116825L61.23219132080078,7.0557211954116825L61.23219132080078,9.13579119541168L53.51940132080078,9.13579119541168L53.51940132080078,9.15437119541168ZM59.48519132080078,4.474201195411682L48.036801320800784,4.474201195411682L48.036801320800784,2.431271195411682L59.48519132080078,2.431271195411682L59.48519132080078,4.474201195411682Z" fill="#34314C" fill-opacity="1"/></g><g><path d="M80.41563930969238,14.96740210199356L80.41563930969238,16.54610210199356L68.20528930969239,16.54610210199356L68.20528930969239,14.96740210199356L73.27900930969238,14.96740210199356L73.27900930969238,13.816002101993561L69.35756930969238,13.816002101993561L69.35756930969238,12.23730210199356L73.27900930969238,12.23730210199356L73.27900930969238,11.27159210199356C70.65851930969238,11.47588210199356,70.06379930969239,11.55017210199356,69.65491930969239,11.698752101993561C69.56199930969238,11.345882101993562,69.28321930969238,10.454422101993561,69.07878930969238,10.00868210199356C69.37614930969238,9.93440210199356,69.67350930969238,9.767252101993561,70.02661930969238,9.488662101993562C70.21246930969238,9.358662101993561,70.62134930969238,9.04294210199356,71.03021930969238,8.61578210199356L68.74425930969238,8.61578210199356C68.63275930969239,11.345882101993562,68.18670930969239,14.65170210199356,66.82999930969238,16.89890210199356C66.42112930969239,16.58320210199356,65.56621830969239,16.06320210199356,65.04583930969238,15.87750210199356C66.64414930969238,13.29590210199356,66.79283930969238,9.562962101993561,66.79283930969238,6.907142101993561L66.79283930969238,2.078402101993561L79.59793930969238,2.078402101993561L79.59793930969238,6.312842101993561L68.80003930969238,6.312842101993561L68.80003930969238,6.907142101993561L68.80003930969238,7.0557221019935605L80.08113930969239,7.0557221019935605L80.08113930969239,8.61578210199356L77.40493930969238,8.61578210199356C78.37133930969239,9.358662101993561,79.48643930969239,10.30584210199356,80.04393930969238,10.99301210199356L78.46423930969239,11.94018210199356C78.24123930969239,11.66160210199356,77.92523930969239,11.327312101993561,77.57213930969239,10.97444210199356L75.21183930969238,11.123012101993561L75.21183930969238,12.21880210199356L79.20763930969238,12.21880210199356L79.20763930969238,13.79740210199356L75.21183930969238,13.79740210199356L75.21183930969238,14.94890210199356L80.41563930969238,14.94890210199356L80.41563930969238,14.96740210199356ZM68.78141930969238,3.7127521019935608L68.78141930969238,4.734212101993561L77.57213930969239,4.734212101993561L77.57213930969239,3.7127521019935608L68.78141930969238,3.7127521019935608ZM73.52060930969239,8.63435210199356C73.11173930969238,9.02437210199356,72.66569930969239,9.39581210199356,72.23823930969239,9.767252101993561L75.99243930969239,9.562962101993561C75.78803930969238,9.37723210199356,75.56493930969238,9.21009210199356,75.34193930969238,9.04294210199356L76.04813930969239,8.61578210199356L73.52060930969239,8.61578210199356L73.52060930969239,8.63435210199356Z" fill="#34314C" fill-opacity="1"/></g><g><path d="M89.95632514892579,11.995918598556518C89.75189514892578,11.531618598556518,89.36160514892578,10.825858598556518,88.95273514892578,10.157258598556519L88.95273514892578,16.93611859855652L87.03847514892578,16.93611859855652L87.03847514892578,10.918718598556518C86.48091514892579,12.200218598556518,85.86761514892578,13.388818598556519,85.21713814892578,14.224518598556518C85.03128714892578,13.648818598556518,84.60383314892579,12.831618598556519,84.30646514892578,12.330218598556518C85.23571814892578,11.253018598556519,86.18355514892578,9.470098598556518,86.77827514892579,7.854318598556518L84.52948814892578,7.854318598556518L84.52948814892578,5.997108598556519L87.05705514892578,5.997108598556519L87.05705514892578,4.102758598556519C86.40657514892578,4.195618598556519,85.79327514892579,4.307058598556519,85.16137314892578,4.362768598556519C85.08702914892578,3.9170385985565184,84.84542514892578,3.2670185985565183,84.62240214892579,2.8212785985565185C86.53666514892578,2.5426985985565187,88.61819514892578,2.0226825985565187,90.01207514892579,1.4469495985565186L91.12717514892579,3.0627185985565184C90.47669514892578,3.3227285985565187,89.73329514892578,3.5084485985565186,88.97131514892578,3.6755985985565185L88.97131514892578,6.015688598556519L91.18293514892578,6.015688598556519L91.18293514892578,7.872898598556518L88.95273514892578,7.872898598556518L88.95273514892578,8.002898598556518C89.43593514892578,8.467198598556518,90.81123514892577,10.045828598556518,91.12718514892578,10.417268598556518L89.95632514892579,11.995918598556518ZM98.20806514892578,12.720218598556519L98.20806514892578,16.93611859855652L96.25666514892578,16.93611859855652L96.25666514892578,13.073118598556519L91.20151514892578,13.946018598556519L90.88557514892578,12.05161859855652L96.25666514892578,11.123008598556519L96.25666514892578,1.3355185985565186L98.20806514892578,1.3355185985565186L98.20806514892578,10.78871859855652L99.86216514892578,10.51013859855652L100.17806514892578,12.367318598556519L98.20806514892578,12.720218598556519ZM94.00786514892579,10.398698598556518C93.48749514892577,9.655818598556518,92.31663514892578,8.597208598556518,91.35020514892578,7.835748598556519L92.61399514892578,6.7028485985565185C93.56182514892578,7.371448598556518,94.80706514892579,8.411488598556518,95.36456514892578,9.117228598556519L94.00786514892579,10.398698598556518ZM94.43536514892578,5.9785385985565185C93.97069514892578,5.2542285985565185,92.87417514892579,4.195618598556519,91.94492514892578,3.4713085985565186L93.24587514892578,2.3384085985565184C94.15654514892579,3.0255785985565185,95.32736514892578,4.009898598556519,95.82916514892578,4.752778598556519L94.43536514892578,5.9785385985565185Z" fill="#34314C" fill-opacity="1"/></g><g><path d="M109.98262270874024,10.26869591479063C109.38790270874023,10.43584591479063,108.79318270874023,10.60299591479063,108.19846270874024,10.75156591479063L108.19846270874024,14.74458591479063C108.19846270874024,15.71028591479063,108.01261270874024,16.17458591479063,107.45506270874023,16.49038591479063C106.89751270874024,16.78748591479063,106.09835270874024,16.84318591479063,104.92749970874023,16.84318591479063C104.85315470874023,16.34178591479063,104.59297070874024,15.561785914790631,104.35136670874023,15.04168591479063C105.00184370874024,15.060285914790631,105.68949270874023,15.060285914790631,105.91251270874024,15.060285914790631C106.15412270874023,15.060285914790631,106.22846270874024,14.967385914790631,106.22846270874024,14.72598591479063L106.22846270874024,11.290155914790631L104.61156170874024,11.69878591479063L104.09118270874023,9.80438591479063C104.70448770874023,9.69295591479063,105.42931270874024,9.52580591479063,106.22846270874024,9.32151591479063L106.22846270874024,6.3685559147906305L104.31420570874023,6.3685559147906305L104.31420570874023,4.52991591479063L106.22846270874024,4.52991591479063L106.22846270874024,1.3540859147906303L108.19847270874024,1.3540859147906303L108.19847270874024,4.52991591479063L109.83396270874023,4.52991591479063L109.83396270874023,6.3685559147906305L108.19847270874024,6.3685559147906305L108.19847270874024,8.83864591479063L109.74103270874024,8.44862591479063L109.98262270874024,10.26869591479063ZM119.23798270874023,8.002895914790631C118.60608270874023,10.324415914790631,117.52818270874023,12.14448591479063,116.13428270874023,13.55598591479063C117.21218270874023,14.31738591479063,118.51318270874023,14.87458591479063,119.99998270874023,15.24598591479063C119.57248270874024,15.65458591479063,119.01498270874023,16.45318591479063,118.73618270874023,16.97318591479063C117.11928270874023,16.49038591479063,115.72538270874023,15.80318591479063,114.57318270874023,14.87458591479063C113.27219270874023,15.78458591479063,111.80396270874023,16.45318591479063,110.16847270874024,16.93608591479063C109.94545270874023,16.39748591479063,109.46225270874024,15.561785914790631,109.09054270874023,15.13458591479063C110.55877270874024,14.78168591479063,111.91547270874024,14.24308591479063,113.08633270874023,13.500185914790631C112.10131270874024,12.38588591479063,111.32075270874023,11.06728591479063,110.70745270874023,9.52580591479063L111.20925270874024,9.37722591479063L110.33575270874023,9.37722591479063L110.33575270874023,7.59430591479063L113.62530270874024,7.59430591479063L113.62530270874024,5.5885259147906305L110.03839270874023,5.5885259147906305L110.03839270874023,3.7498859147906303L113.62530270874024,3.7498859147906303L113.62530270874024,1.3540859147906303L115.59528270874023,1.3540859147906303L115.59528270874023,3.7498859147906303L119.34948270874024,3.7498859147906303L119.34948270874024,5.5885259147906305L115.59528270874023,5.5885259147906305L115.59528270874023,7.59430591479063L117.60248270874024,7.59430591479063L117.95568270874023,7.50144591479063L119.23798270874023,8.002895914790631ZM112.65887270874023,9.340085914790631C113.12349270874023,10.43584591479063,113.79255270874023,11.43878591479063,114.62888270874024,12.29308591479063C115.50238270874023,11.45728591479063,116.20858270874024,10.47298591479063,116.72898270874023,9.340085914790631L112.65887270874023,9.340085914790631Z" fill="#34314C" fill-opacity="1"/></g></g></g></svg>