<svg xmlns="http://www.w3.org/2000/svg" xmlns:xlink="http://www.w3.org/1999/xlink" fill="none" version="1.1" width="41.779296875" height="24.00006103515625" viewBox="0 0 41.779296875 24.00006103515625"><defs><linearGradient x1="0.5" y1="0" x2="0.5" y2="1" id="master_svg0_99_1666"><stop offset="0%" stop-color="#478BFF" stop-opacity="1"/><stop offset="100%" stop-color="#1169FF" stop-opacity="1"/></linearGradient><linearGradient x1="0.5" y1="0" x2="0.5" y2="1" id="master_svg1_99_1666"><stop offset="0%" stop-color="#478BFF" stop-opacity="1"/><stop offset="100%" stop-color="#1169FF" stop-opacity="1"/></linearGradient><linearGradient x1="0.5" y1="0" x2="0.5" y2="1" id="master_svg2_99_1670"><stop offset="0%" stop-color="#1169FF" stop-opacity="1"/><stop offset="100%" stop-color="#478BFF" stop-opacity="1"/></linearGradient><linearGradient x1="0.5" y1="0" x2="0.5" y2="1" id="master_svg3_99_1666"><stop offset="0%" stop-color="#478BFF" stop-opacity="1"/><stop offset="100%" stop-color="#1169FF" stop-opacity="1"/></linearGradient><linearGradient x1="0.5" y1="0" x2="0.5" y2="1" id="master_svg4_99_1670"><stop offset="0%" stop-color="#1169FF" stop-opacity="1"/><stop offset="100%" stop-color="#478BFF" stop-opacity="1"/></linearGradient><linearGradient x1="0.5" y1="0" x2="0.5" y2="1" id="master_svg5_99_1666"><stop offset="0%" stop-color="#478BFF" stop-opacity="1"/><stop offset="100%" stop-color="#1169FF" stop-opacity="1"/></linearGradient></defs><g><g><rect x="0" y="9.369547843933105" width="5.665382385253906" height="13.509757995605469" rx="2.832691192626953" fill="url(#master_svg0_99_1666)" fill-opacity="1"/></g><g><rect x="9.805468559265137" y="1.3072738647460938" width="5.665382385253906" height="21.572031021118164" rx="2.832691192626953" fill="url(#master_svg1_99_1666)" fill-opacity="1"/></g><g transform="matrix(0.7848072052001953,-0.6197400093078613,0.6197400093078613,0.7848072052001953,-0.36967534141206215,6.029949468942959)"><path d="M8.510742585229492,26.792093901443483C8.503755925229493,28.34519390144348,9.760845485229492,29.607993901443482,11.313985485229493,29.608093901443482C12.857365485229492,29.608093901443482,14.110475485229493,28.360593901443483,14.117405485229492,26.81729390144348L14.209225485229492,6.363143901443482C14.216195485229491,4.810043901443482,12.959105485229493,3.5472939014434814,11.405985485229493,3.5472939014434814C9.862715485229492,3.5472939014434814,8.609696485229492,4.794683901443482,8.602754485229493,6.337943901443481L8.510742585229492,26.792093901443483Z" fill="url(#master_svg2_99_1670)" fill-opacity="1"/></g><g><rect x="22.44363021850586" y="1.0893744230270386" width="5.447483062744141" height="21.789932250976562" rx="2.7237415313720703" fill="url(#master_svg3_99_1666)" fill-opacity="1"/></g><g transform="matrix(0.7848072052001953,-0.6197400093078613,0.6197400093078613,0.7848072052001953,2.349966553560421,13.862321709736989)"><path d="M21.148901383447267,26.79209199409485C21.141914723447265,28.345191994094847,22.399004283447265,29.60799199409485,23.952144283447264,29.60809199409485C25.495524283447267,29.60809199409485,26.748634283447267,28.36059199409485,26.755564283447264,26.817291994094848L26.847384283447266,6.363141994094849C26.854354283447265,4.810041994094849,25.597264283447267,3.5472919940948486,24.044144283447267,3.5472919940948486C22.500874283447267,3.5472919940948486,21.247855283447265,4.794681994094849,21.240913283447266,6.337941994094848L21.148901383447267,26.79209199409485Z" fill="url(#master_svg4_99_1670)" fill-opacity="1"/></g><g><rect x="0" y="1.3846070766448975" width="5.606760025024414" height="7.090902805328369" rx="2.803380012512207" fill="url(#master_svg5_99_1666)" fill-opacity="1"/></g></g></svg>