<svg xmlns="http://www.w3.org/2000/svg" xmlns:xlink="http://www.w3.org/1999/xlink" fill="none" version="1.1" width="40" height="40" viewBox="0 0 40 40"><defs><clipPath id="master_svg0_130_404"><rect x="0" y="0" width="40" height="40" rx="0"/></clipPath></defs><g clip-path="url(#master_svg0_130_404)"><g><path d="M7.777784501953125,3.33331298828125C7.333334501953125,3.33331298828125,6.888892501953125,3.55553498828125,6.555559501953125,3.88886898828125C6.222225501953125,4.22220198828125,6.111114501953125,4.66664298828125,6.111114501953125,4.99998298828125L6.111114501953125,35.00001298828125C6.111114501953125,35.44441298828125,6.333336501953125,35.88891298828125,6.555559501953125,36.11111298828125C7.000003501953125,36.44441298828125,7.333334501953125,36.66661298828125,7.777784501953125,36.66661298828125L32.222214501953125,36.66661298828125C32.66671450195312,36.66661298828125,33.111114501953125,36.44441298828125,33.333314501953126,36.11111298828125C33.66671450195312,35.77771298828125,33.888914501953124,35.33331298828125,33.888914501953124,35.00001298828125L33.888914501953124,12.77775298828125L24.444414501953126,3.33331298828125L7.777784501953125,3.33331298828125Z" fill="#6467F0" fill-opacity="1"/></g><g><path d="M33.8888980078125,12.77775298828125L26.1111280078125,12.77775298828125C25.6666780078125,12.77775298828125,25.2222370078125,12.66664298828125,25.0000140078125,12.33331298828125C24.6666810078125,11.99998298828125,24.4444580078125,11.55553298828125,24.4444580078125,11.11109298828125L24.4444580078125,3.33331298828125L33.8888980078125,12.77775298828125Z" fill="#B5B6FF" fill-opacity="1"/></g><g><path d="M22.319580361328125,17.5974135109375L17.694100361328125,19.0697337109375C17.132070361328125,19.2364137109375,16.680350361328124,19.8407437109375,16.680350361328124,20.4236937109375L16.680350361328124,25.4240337109375L16.680350361328124,25.4932837109375Q16.339720361328126,25.2569737109375,15.596470361328125,25.3684437109375C14.499404361328125,25.5283437109375,13.610870361328125,26.4035837109375,13.610870361328125,27.3202937109375C13.610870361328125,28.2366537109375,14.499404361328125,28.7986537109375,15.596470361328125,28.6392537109375C16.693590361328127,28.479853710937498,17.499630361328126,27.6323537109375,17.499630361328126,26.715123710937497L17.499630361328126,22.3828037109375Q17.499630361328126,21.9797737109375,17.964600361328124,21.8062637109375L22.055920361328127,20.4728337109375Q22.514110361328125,20.3129937109375,22.514110361328125,20.750203710937498L22.514110361328125,24.222703710937502Q22.096950361328126,23.9799337109375,21.347730361328125,24.0700737109375C20.250670361328126,24.2090337109375,19.360830361328127,25.0637537109375,19.360830361328127,25.9800137109375C19.360830361328127,26.8972037109375,20.250670361328126,27.4806137109375,21.347730361328125,27.341243710937498C22.444420361328127,27.2032237109375,23.333340361328126,26.348443710937502,23.333340361328126,25.4313037109375L23.333340361328126,18.354311710937502C23.333340361328126,17.7709337109375,22.881670361328126,17.4307397109375,22.319580361328125,17.5974135109375Z" fill="#FFFFFF" fill-opacity="1"/></g></g></svg>