<svg xmlns="http://www.w3.org/2000/svg" xmlns:xlink="http://www.w3.org/1999/xlink" fill="none" version="1.1" width="40" height="40" viewBox="0 0 40 40"><defs><clipPath id="master_svg0_130_654"><rect x="0" y="0" width="40" height="40" rx="0"/></clipPath></defs><g clip-path="url(#master_svg0_130_654)"><g><path d="M7.777753984375,3.33331298828125C7.333303984375,3.33331298828125,6.888861984375,3.55553498828125,6.555528984375,3.88886898828125C6.222194984375,4.22220198828125,6.111083984375,4.66664298828125,6.111083984375,4.99998298828125L6.111083984375,35.00001298828125C6.111083984375,35.44441298828125,6.333305984375,35.88891298828125,6.555528984375,36.11111298828125C6.999972984375,36.44441298828125,7.333303984375,36.66661298828125,7.777753984375,36.66661298828125L32.222183984375,36.66661298828125C32.666683984375,36.66661298828125,33.111083984375,36.44441298828125,33.333283984375,36.11111298828125C33.666683984375,35.77771298828125,33.888883984375,35.33331298828125,33.888883984375,35.00001298828125L33.888883984375,12.77775298828125L29.166683984375,8.05553298828125L24.444383984375,3.33331298828125L7.777753984375,3.33331298828125Z" fill="#E8E8E8" fill-opacity="1"/></g><g><path d="M33.8888980078125,12.77775298828125L26.1111280078125,12.77775298828125C25.6666780078125,12.77775298828125,25.2222370078125,12.66664298828125,25.0000140078125,12.33331298828125C24.6666810078125,11.99998298828125,24.4444580078125,11.55553298828125,24.4444580078125,11.11109298828125L24.4444580078125,3.33331298828125L33.8888980078125,12.77775298828125Z" fill="#C2C2C2" fill-opacity="1"/></g><g><path d="M19.23982765625,25.848901894531252L19.23982765625,27.37654189453125L20.76747765625,27.37654189453125L20.76747765625,25.848901894531252L19.23982765625,25.848901894531252ZM23.18946765625,20.56527189453125C23.41301765625,20.16289189453125,23.52485765625,19.72325189453125,23.52485765625,19.24628189453125C23.52485765625,18.42165189453125,23.20679765625,17.71855189453125,22.57097765625,17.13733689453125C21.93494765625,16.55612289453125,21.08291765625,16.26544189453125,20.01479765625,16.26544189453125C19.00621765625,16.26544189453125,18.19518765625,16.53625789453125,17.58170765625,17.07769089453125C16.96808165625,17.61929189453125,16.59922665625,18.39927189453125,16.47509765625,19.41765189453125L17.85371765625,19.58158189453125C17.97290765625,18.82156189453125,18.22377765625,18.26259189453125,18.60631765625,17.90495189453125C18.98886765625,17.54719189453125,19.46577765625,17.36837189453125,20.03713765625,17.36837189453125C20.62833765625,17.36837189453125,21.12762765625,17.56582189453125,21.53505765625,17.96076189453125C21.94238765625,18.35576189453125,22.14620765625,18.81408189453125,22.14620765625,19.33575189453125C22.14620765625,19.62392189453125,22.076497656249998,19.88976189453125,21.93745765625,20.13307189453125C21.79832765625,20.376591894531252,21.49658765625,20.70320189453125,21.03203765625,21.11306189453125C20.56748765625,21.52292189453125,20.24589765625,21.83470189453125,20.06697765625,22.04831189453125C19.82355765625,22.341491894531252,19.64714765625,22.63212189453125,19.53793765625,22.92016189453125C19.38885765625,23.30280189453125,19.31439765625,23.75739189453125,19.31439765625,24.28388189453125C19.31439765625,24.37335189453125,19.31681765625,24.50745189453125,19.32183765625,24.68637189453125L20.61099765625,24.68637189453125C20.620887656249998,24.14978189453125,20.65814765625,23.762201894531252,20.72282765625,23.523851894531248C20.787277656249998,23.28540189453125,20.88673765625,23.07421189453125,21.020837656250002,22.89035189453125C21.155037656250002,22.70668189453125,21.44068765625,22.42088189453125,21.87788765625,22.033401894531252C22.528637656249998,21.457111894531252,22.96587765625,20.96779189453125,23.18946765625,20.56527189453125Z" fill="#333333" fill-opacity="1"/></g></g></svg>