<svg xmlns="http://www.w3.org/2000/svg" xmlns:xlink="http://www.w3.org/1999/xlink" fill="none" version="1.1" width="5.736328125" height="11" viewBox="0 0 5.736328125 11"><g style="mix-blend-mode:passthrough"><g><path d="M2.46397,10.835146795501709L2.49506,10.865126795501709L2.54169,10.910076795501709C2.55724,10.92506679550171,2.57279,10.92506679550171,2.58833,10.92506679550171C2.60388,10.94005679550171,2.61942,10.94005679550171,2.63497,10.955036795501709C2.65051,10.955036795501709,2.66606,10.97002679550171,2.68161,10.97002679550171C2.69715,10.97002679550171,2.7127,10.985016795501709,2.74379,10.985016795501709C2.77488,10.985016795501709,2.82152,10.999996795501708,2.85261,10.999996795501708L2.86815,10.999996795501708C2.89924,10.999996795501708,2.93033,10.999996795501708,2.96143,10.985016795501709C2.99252,10.985016795501709,3.00806,10.97002679550171,3.03915,10.955036795501709L3.07025,10.955036795501709C3.10134,10.94005679550171,3.13243,10.92506679550171,3.14797,10.910076795501709L3.16352,10.910076795501709C3.19461,10.895096795501708,3.2257,10.865126795501709,3.24125,10.850136795501708L5.57308,8.602176795501709C5.79072,8.392366795501708,5.79072,8.062666795501709,5.57308,7.867846795501709C5.35544,7.658036795501709,5.01344,7.658036795501709,4.81135,7.867846795501709L3.41225,9.216616795501709L3.41225,6.6689307955017085C3.41225,6.384189795501709,3.16352,6.144406795501709,2.86815,6.144406795501709C2.57279,6.144406795501709,2.32406,6.384189795501709,2.32406,6.6689307955017085L2.32406,9.231606795501708L0.92496,7.882826795501709C0.707322,7.6730167955017095,0.36532,7.6730167955017095,0.163228,7.882826795501709C-0.0544096,8.09263679550171,-0.0544096,8.422336795501709,0.163228,8.61716679550171L2.46397,10.835146795501709Z" fill="#FFFFFF" fill-opacity="1"/></g><g><path d="M2.2929766178131104,4.555839973648071C2.2929772743001102,4.870356973648072,2.5574556178131105,5.125326973648072,2.8837076178131102,5.125326973648072C3.2099596178131105,5.125326973648072,3.4744366178131103,4.870356973648072,3.4744366178131103,4.555839973648071C3.4744366178131103,4.241323973648071,3.2099596178131105,3.9863569736480713,2.8837076178131102,3.9863569736480713C2.5574556178131105,3.9863569736480713,2.2929772743001102,4.241322973648071,2.2929766178131104,4.555839973648071Z" fill="#FFFFFF" fill-opacity="1"/></g><g><path d="M2.2929766178131104,2.562641221244812C2.2929772743001102,2.877158221244812,2.5574556178131105,3.132128221244812,2.8837076178131102,3.132128221244812C3.2099596178131105,3.132128221244812,3.4744366178131103,2.877158221244812,3.4744366178131103,2.562641221244812C3.4744366178131103,2.248125221244812,3.2099596178131105,1.993158221244812,2.8837076178131102,1.993158221244812C2.5574556178131105,1.993158221244812,2.2929772743001102,2.248124221244812,2.2929766178131104,2.562641221244812Z" fill="#FFFFFF" fill-opacity="1"/></g><g><path d="M2.2929766178131104,0.569483C2.2929772743001102,0.884,2.5574556178131105,1.13897,2.8837076178131102,1.13897C3.2099596178131105,1.13897,3.4744366178131103,0.884,3.4744366178131103,0.569483C3.4744366178131103,0.254967,3.2099596178131105,0,2.8837076178131102,0C2.5574556178131105,0,2.2929772743001102,0.254966,2.2929766178131104,0.569483Z" fill="#FFFFFF" fill-opacity="1"/></g></g></svg>