<svg xmlns="http://www.w3.org/2000/svg" xmlns:xlink="http://www.w3.org/1999/xlink" fill="none" version="1.1" width="40" height="40" viewBox="0 0 40 40"><defs><clipPath id="master_svg0_130_91"><rect x="0" y="0" width="40" height="40" rx="0"/></clipPath></defs><g clip-path="url(#master_svg0_130_91)"><g><path d="M7.777753984375,3.33331298828125C7.333303984375,3.33331298828125,6.888861984375,3.55553498828125,6.555528984375,3.88886898828125C6.222194984375,4.22220198828125,6.111083984375,4.66664298828125,6.111083984375,4.99998298828125L6.111083984375,35.00001298828125C6.111083984375,35.44441298828125,6.333305984375,35.88891298828125,6.555528984375,36.11111298828125C6.999972984375,36.44441298828125,7.333303984375,36.66661298828125,7.777753984375,36.66661298828125L32.222183984375,36.66661298828125C32.666683984375,36.66661298828125,33.111083984375,36.44441298828125,33.333283984375,36.11111298828125C33.666683984375,35.77771298828125,33.888883984375,35.33331298828125,33.888883984375,35.00001298828125L33.888883984375,12.77775298828125L24.444383984375,3.33331298828125L7.777753984375,3.33331298828125Z" fill="#FF5562" fill-opacity="1"/></g><g><path d="M33.8888980078125,12.77775298828125L26.1111280078125,12.77775298828125C25.6666780078125,12.77775298828125,25.2222370078125,12.66664298828125,25.0000140078125,12.33331298828125C24.6666810078125,11.99998298828125,24.4444580078125,11.55553298828125,24.4444580078125,11.11109298828125L24.4444580078125,3.33331298828125L33.8888980078125,12.77775298828125Z" fill="#FFBBC0" fill-opacity="1"/></g><g><path d="M28.555483984375,26.66666900390625L25.111083984375,21.33333900390625C24.999983984375,21.22222900390625,24.777783984375,21.11111900390625,24.666683984375,21.11111900390625C24.555483984375,21.11111900390625,24.333283984375,21.22222900390625,24.222183984375,21.33333900390625L22.333283984375,24.22222900390625L18.111083984375,17.44445100390625C17.999973984375,17.33333900390625,17.777753984375,17.22222900390625,17.666643984375,17.22222900390625C17.555533984375,17.22222900390625,17.333303984375,17.33334100390625,17.222193984375,17.44445100390625L11.444417084375,26.66666900390625C11.333305584375,26.77778900390625,11.333305584375,27.11111900390625,11.444417084375,27.22222900390625C11.555528984375,27.44442900390625,11.777750984375,27.55552900390625,11.888860984375,27.55552900390625L28.111083984375,27.55552900390625C28.333283984375,27.55552900390625,28.555483984375,27.44442900390625,28.666683984375,27.22222900390625C28.666683984375,27.11111900390625,28.666683984375,26.88889900390625,28.555483984375,26.66666900390625Z" fill="#FFFFFF" fill-opacity="1"/></g><g><path d="M23.888916015625,16.555533984375C23.888916015625,17.333303984375,24.555583015625,17.999973984375,25.333356015625,17.999973984375C26.111136015625,17.999973984375,26.777806015625,17.333303984375,26.777806015625,16.555523984375C26.777806015625,15.777750984375,26.111136015625,15.111083984375,25.333356015625,15.111083984375C24.555583015625,15.111083984375,23.888916015625,15.777751984375,23.888916015625,16.555533984375Z" fill="#FFFFFF" fill-opacity="1"/></g></g></svg>