<svg xmlns="http://www.w3.org/2000/svg" xmlns:xlink="http://www.w3.org/1999/xlink" fill="none" version="1.1" width="40" height="40" viewBox="0 0 40 40"><defs><clipPath id="master_svg0_130_034"><rect x="0" y="0" width="40" height="40" rx="0"/></clipPath></defs><g clip-path="url(#master_svg0_130_034)"><g><path d="M7.777753984375,3.33331298828125C7.333303984375,3.33331298828125,6.888861984375,3.55553498828125,6.555528984375,3.88886898828125C6.222194984375,4.22220198828125,6.111083984375,4.66664298828125,6.111083984375,4.99998298828125L6.111083984375,35.00001298828125C6.111083984375,35.44441298828125,6.333305984375,35.88891298828125,6.555528984375,36.11111298828125C6.999972984375,36.44441298828125,7.333303984375,36.66661298828125,7.777753984375,36.66661298828125L32.222183984375,36.66661298828125C32.666683984375,36.66661298828125,33.111083984375,36.44441298828125,33.333283984375,36.11111298828125C33.666683984375,35.77771298828125,33.888883984375,35.33331298828125,33.888883984375,35.00001298828125L33.888883984375,12.77775298828125L24.444383984375,3.33331298828125L7.777753984375,3.33331298828125Z" fill="#FF8976" fill-opacity="1"/></g><g><path d="M33.8888980078125,12.77775298828125L26.1111280078125,12.77775298828125C25.6666780078125,12.77775298828125,25.2222370078125,12.66664298828125,25.0000140078125,12.33331298828125C24.6666810078125,11.99998298828125,24.4444580078125,11.55553298828125,24.4444580078125,11.11109298828125L24.4444580078125,3.33331298828125L33.8888980078125,12.77775298828125Z" fill="#FFD0C8" fill-opacity="1"/></g><g><path d="M15.6666259765625,15.6666259765625L21.7777359765625,15.6666259765625C24.2221859765625,15.6666259765625,24.9999559765625,17.3332959765625,24.9999559765625,19.1110759765625C24.9999559765625,20.7777359765625,23.9999559765625,22.4444059765625,21.7777359765625,22.4444059765625L17.7777359765625,22.4444059765625L17.7777359765625,26.6666259765625L15.6666259765625,26.6666259765625L15.6666259765625,15.6666259765625ZM17.6666259765625,20.6666259765625L20.9999559765625,20.6666259765625C22.2221859765625,20.6666259765625,22.7777359765625,20.3332959765625,22.7777359765625,18.9999559765625C22.7777359765625,17.6666259765625,21.8888459765625,17.3332959765625,21.1110659765625,17.3332959765625L17.5555159765625,17.3332959765625L17.5555159765625,20.6666259765625L17.6666259765625,20.6666259765625Z" fill="#FFFFFF" fill-opacity="1"/></g></g></svg>