<svg xmlns="http://www.w3.org/2000/svg" xmlns:xlink="http://www.w3.org/1999/xlink" fill="none" version="1.1" width="40" height="40" viewBox="0 0 40 40"><defs><clipPath id="master_svg0_130_69"><rect x="0" y="0" width="40" height="40" rx="0"/></clipPath></defs><g clip-path="url(#master_svg0_130_69)"><g><path d="M7.777784501953125,3.33331298828125C7.333334501953125,3.33331298828125,6.888892501953125,3.55553498828125,6.555559501953125,3.88886898828125C6.222225501953125,4.22220198828125,6.111114501953125,4.66664298828125,6.111114501953125,4.99998298828125L6.111114501953125,35.00001298828125C6.111114501953125,35.44441298828125,6.333336501953125,35.88891298828125,6.555559501953125,36.11111298828125C7.000003501953125,36.44441298828125,7.333334501953125,36.66661298828125,7.777784501953125,36.66661298828125L32.222214501953125,36.66661298828125C32.66671450195312,36.66661298828125,33.111114501953125,36.44441298828125,33.333314501953126,36.11111298828125C33.66671450195312,35.77771298828125,33.888914501953124,35.33331298828125,33.888914501953124,35.00001298828125L33.888914501953124,12.77775298828125L24.444414501953126,3.33331298828125L7.777784501953125,3.33331298828125Z" fill="#5ACC9B" fill-opacity="1"/></g><g><path d="M33.888928525390625,12.77775298828125L26.111158525390625,12.77775298828125C25.666708525390625,12.77775298828125,25.222267525390624,12.66664298828125,25.000044525390624,12.33331298828125C24.666711525390625,11.99998298828125,24.444488525390625,11.55553298828125,24.444488525390625,11.11109298828125L24.444488525390625,3.33331298828125L33.888928525390625,12.77775298828125Z" fill="#BDEBD7" fill-opacity="1"/></g><g><path d="M18.777801513671875,20.8888719921875L15.000023513671875,15.5555419921875L17.666691513671875,15.5555419921875L20.111131513671875,19.3333219921875L22.666691513671875,15.5555419921875L25.222201513671877,15.5555419921875L21.333351513671875,20.8888719921875L25.333401513671873,26.4444419921875L22.666691513671875,26.4444419921875L20.000021513671875,22.5555419921875L17.333361513671875,26.5555419921875L14.777801513671875,26.5555419921875L18.777801513671875,20.8888719921875Z" fill="#FFFFFF" fill-opacity="1"/></g></g></svg>