<svg xmlns="http://www.w3.org/2000/svg" xmlns:xlink="http://www.w3.org/1999/xlink" fill="none" version="1.1" width="48" height="48" viewBox="0 0 48 48"><defs><clipPath id="master_svg0_260_53"><rect x="0" y="0" width="48" height="48" rx="0"/></clipPath></defs><g clip-path="url(#master_svg0_260_53)"><g><path d="M33,15.375000953674316C33,17.238960953674315,34.51104,18.750000953674316,36.375,18.750000953674316C38.23896,18.750000953674316,39.75,17.238960953674315,39.75,15.375000953674316C39.75,13.511040953674316,38.23896,12.000000953674316,36.375,12.000000953674316C34.51104,12.000000953674316,33,13.511040953674316,33,15.375000953674316Z" fill="#BEBEBE" fill-opacity="1"/></g><g><path d="M46.87051464920044,5.46599843208313C46.60901464920044,5.16566843208313,46.23881464920044,4.98164843208313,45.84151464920044,4.954498432083129L24.45751464920044,3.45900043208313C23.96611464920044,3.42092143208313,23.48801464920044,3.63016243208313,23.18251464920044,4.01700043208313L18.86101464920044,9.400498432083129C18.408414649200438,9.963698432083131,18.42171464920044,10.76946843208313,18.89251464920044,11.31749843208313L25.74301464920044,19.28402843208313L18.83101464920044,28.40852843208313L20.541014649200438,20.281528432083128C20.65671464920044,19.73152843208313,20.45521464920044,19.162928432083127,20.01901464920044,18.80852843208313L11.044514649200439,11.507998432083129L14.77651464920044,5.6159984320831295C15.078714649200439,5.13802843208313,15.086414649200439,4.530698432083129,14.79651464920044,4.04519643208313C14.50651464920044,3.55969043208313,13.968114649200439,3.27853183208313,13.40401464920044,3.3180000820831297L2.1450046492004393,4.10400043208313C1.3180496492004394,4.1616274320831295,0.6946268492004395,4.87909843208313,0.7530014492004394,5.705998432083129L3.3690046492004395,43.11302843208313C3.4281746492004395,43.94162843208313,4.148404649200439,44.56512843208313,4.977004649200439,44.50502843208313L13.251014649200439,43.88702843208313C14.07751464920044,43.82552843208313,14.69701464920044,43.10552843208313,14.63401464920044,42.28052843208313C14.571014649200439,41.45552843208313,13.857014649200439,40.82552843208313,13.02601464920044,40.89602843208313L6.25500464920044,41.40152843208313L5.95350464920044,37.06502843208313L11.82751464920044,36.47552843208313C12.65241464920044,36.39342843208313,13.25431464920044,35.65782843208313,13.17151464920044,34.833028432083125C13.085514649200439,34.01022843208313,12.35251464920044,33.41042843208313,11.52901464920044,33.48902843208313L5.74500464920044,34.071028432083125L3.8505046492004396,6.99299843208313L10.654494649200439,6.51749843208313L7.7970046492004395,11.02799843208313C7.390294649200439,11.67014843208313,7.52820464920044,12.51501843208313,8.11800464920044,12.99449843208313L17.41801464920044,20.55752843208313L14.664014649200439,33.64952843208313C14.61941464920044,33.87942843208313,14.631314649200439,34.11662843208313,14.698514649200439,34.341028432083135C14.68981464920044,34.51602843208313,14.712114649200439,34.69122843208313,14.76451464920044,34.85852843208313L17.17951464920044,42.10352843208313C17.36741464920044,42.66922843208313,17.87281464920044,43.06972843208313,18.46651464920044,43.12352843208313L42.98701464920044,45.35252843208313C43.82411464920044,45.42762843208313,44.560114649200436,44.80182843208313,44.62051464920044,43.96352843208313L47.23501464920044,6.55499843208313C47.26241464920044,6.15805843208313,47.13131464920044,5.76644843208313,46.87051464920044,5.46599843208313ZM42.23401464920044,35.03702843208313L22.89451464920044,33.17852843208313C22.06631464920044,33.086028432083125,21.32561464920044,33.69642843208313,21.25801464920044,34.52702843208313C21.17881464920044,35.35172843208313,21.783314649200438,36.08442843208313,22.608014649200438,36.16352843208313L42.02551464920044,38.02952843208313L41.73151464920044,42.22652843208313L19.71301464920044,40.22402843208313L17.85751464920044,34.65902843208313L28.86451464920044,20.12702843208313C29.29241464920044,19.56402843208313,29.26801464920044,18.77832843208313,28.80601464920044,18.24302843208313L21.97951464920044,10.30499843208313L25.03051464920044,6.5054984320831295L44.13601464920044,7.8404984320831295L42.23401464920044,35.03702843208313Z" fill="#BEBEBE" fill-opacity="1"/></g></g></svg>