<svg xmlns="http://www.w3.org/2000/svg" xmlns:xlink="http://www.w3.org/1999/xlink" fill="none" version="1.1" width="40" height="40" viewBox="0 0 40 40"><defs><clipPath id="master_svg0_130_013"><rect x="0" y="0" width="40" height="40" rx="0"/></clipPath></defs><g clip-path="url(#master_svg0_130_013)"><g><path d="M7.777753984375,3.33331298828125C7.333303984375,3.33331298828125,6.888861984375,3.55553498828125,6.555528984375,3.88886898828125C6.222194984375,4.22220198828125,6.111083984375,4.66664298828125,6.111083984375,4.99998298828125L6.111083984375,35.00001298828125C6.111083984375,35.44441298828125,6.333305984375,35.88891298828125,6.555528984375,36.11111298828125C6.999972984375,36.44441298828125,7.333303984375,36.66661298828125,7.777753984375,36.66661298828125L32.222183984375,36.66661298828125C32.666683984375,36.66661298828125,33.111083984375,36.44441298828125,33.333283984375,36.11111298828125C33.666683984375,35.77771298828125,33.888883984375,35.33331298828125,33.888883984375,35.00001298828125L33.888883984375,12.77775298828125L24.444383984375,3.33331298828125L7.777753984375,3.33331298828125Z" fill="#FA5151" fill-opacity="1"/></g><g><path d="M33.8888980078125,12.77775298828125L26.1111280078125,12.77775298828125C25.6666780078125,12.77775298828125,25.2222370078125,12.66664298828125,25.0000140078125,12.33331298828125C24.6666810078125,11.99998298828125,24.4444580078125,11.55553298828125,24.4444580078125,11.11109298828125L24.4444580078125,3.33331298828125L33.8888980078125,12.77775298828125Z" fill="#FFBBC0" fill-opacity="1"/></g><g><path d="M26.444384960937498,31.5556C24.6665849609375,31.5556,23.1110849609375,28.5556,22.333284960937497,26.6667C20.8888849609375,26.1111,19.4444049609375,25.5556,17.9999649609375,25.2222C16.6666349609375,26.1111,14.4444149609375,27.3333,12.7777449609375,27.3333C11.7777449609375,27.3333,10.9999649609375,26.7778,10.6666325609375,25.8889C10.4444109609375,25.1111,10.6666325609375,24.6667,10.8888549609375,24.3333C11.3332989609375,23.77778,12.2221849609375,23.44445,13.6666349609375,23.44445C14.7777449609375,23.44445,16.2221849609375,23.66667,17.7777449609375,24C18.7777449609375,23.33333,19.7777449609375,22.44445,20.777784960937502,21.55556C20.3332949609375,19.55556,19.8888549609375,16.44444,21.1110849609375,15C21.6665849609375,14.3333331,22.5554849609375,14.111111,23.5554849609375,14.3333331C24.6665849609375,14.666667,25.1110849609375,15.33333,25.2221849609375,15.88889C25.6665849609375,17.77778,23.5554849609375,20.33333,21.9999849609375,21.77778C22.333284960937497,23.11111,22.777784960937502,24.4444,23.2221849609375,25.6667C25.333284960937497,26.6667,27.8888849609375,28,28.1110849609375,29.5556C28.2221849609375,30.1111,28.1110849609375,30.5556,27.6665849609375,31C27.2221849609375,31.3333,26.7777849609375,31.4444,26.444384960937498,31.5556ZM23.777784960937502,27.3333C24.8888849609375,29.4444,25.8888849609375,30.4444,26.333284960937497,30.4444C26.444384960937498,30.4444,26.5554849609375,30.4444,26.6665849609375,30.3333C26.8888849609375,30.1111,26.8888849609375,30,26.7777849609375,29.8889C26.7777849609375,29.2222,25.8888849609375,28.3333,23.777784960937502,27.3333ZM13.5555249609375,24.4444C12.2221849609375,24.4444,11.7777449609375,24.7778,11.6666349609375,24.8889Q11.5555219609375,25.1111,11.6666349609375,25.4444C11.7777449609375,25.7778,11.9999649609375,26.1111,12.6666349609375,26.1111C13.5555249609375,26.1111,14.7777449609375,25.5556,16.3333049609375,24.6667C15.2221849609375,24.5556,14.3332949609375,24.4444,13.5555249609375,24.4444ZM18.9999649609375,24.22222C19.8888549609375,24.4444,20.777784960937502,24.7778,21.6665849609375,25.1111C21.333284960937497,24.3333,21.1110849609375,23.44444,20.8888849609375,22.66666C20.3332949609375,23.22222,19.6666349609375,23.77778,18.9999649609375,24.22222ZM22.444384960937498,15.33333C22.1110849609375,15.33333,21.8888849609375,15.44444,21.777784960937502,15.66667C21.2221849609375,16.33333,21.1110849609375,18.22222,21.5554849609375,20.55555C23.2221849609375,18.77778,24.2221849609375,17.11111,23.8888849609375,16.22222C23.8888849609375,16.11111,23.777784960937502,15.66667,22.9999849609375,15.44444C22.777784960937502,15.33333,22.6665849609375,15.33333,22.444384960937498,15.33333Z" fill="#FFFFFF" fill-opacity="1"/></g></g></svg>