<svg xmlns="http://www.w3.org/2000/svg" xmlns:xlink="http://www.w3.org/1999/xlink" fill="none" version="1.1" width="5.736328125" height="11" viewBox="0 0 5.736328125 11"><g style="mix-blend-mode:passthrough" transform="matrix(1,0,0,-1,0,22)"><g><path d="M2.46397,21.835146795501707L2.49506,21.86512679550171L2.54169,21.91007679550171C2.55724,21.92506679550171,2.57279,21.92506679550171,2.58833,21.92506679550171C2.60388,21.94005679550171,2.61942,21.94005679550171,2.63497,21.95503679550171C2.65051,21.95503679550171,2.66606,21.97002679550171,2.68161,21.97002679550171C2.69715,21.97002679550171,2.7127,21.985016795501707,2.74379,21.985016795501707C2.77488,21.985016795501707,2.82152,21.99999679550171,2.85261,21.99999679550171L2.86815,21.99999679550171C2.89924,21.99999679550171,2.93033,21.99999679550171,2.96143,21.985016795501707C2.99252,21.985016795501707,3.00806,21.97002679550171,3.03915,21.95503679550171L3.07025,21.95503679550171C3.10134,21.94005679550171,3.13243,21.92506679550171,3.14797,21.91007679550171L3.16352,21.91007679550171C3.19461,21.895096795501708,3.2257,21.86512679550171,3.24125,21.850136795501708L5.57308,19.60217679550171C5.79072,19.392366795501708,5.79072,19.06266679550171,5.57308,18.86784679550171C5.35544,18.658036795501708,5.01344,18.658036795501708,4.81135,18.86784679550171L3.41225,20.216616795501707L3.41225,17.66893079550171C3.41225,17.384189795501708,3.16352,17.14440679550171,2.86815,17.14440679550171C2.57279,17.14440679550171,2.32406,17.384189795501708,2.32406,17.66893079550171L2.32406,20.23160679550171L0.92496,18.88282679550171C0.707322,18.67301679550171,0.36532,18.67301679550171,0.163228,18.88282679550171C-0.0544096,19.092636795501708,-0.0544096,19.42233679550171,0.163228,19.61716679550171L2.46397,21.835146795501707Z" fill="#FFFFFF" fill-opacity="1"/></g><g><path d="M2.2929766178131104,15.555839973648071C2.2929772743001102,15.870356973648072,2.5574556178131105,16.12532697364807,2.8837076178131102,16.12532697364807C3.2099596178131105,16.12532697364807,3.4744366178131103,15.870356973648072,3.4744366178131103,15.555839973648071C3.4744366178131103,15.241323973648072,3.2099596178131105,14.986356973648071,2.8837076178131102,14.986356973648071C2.5574556178131105,14.986356973648071,2.2929772743001102,15.24132297364807,2.2929766178131104,15.555839973648071Z" fill="#FFFFFF" fill-opacity="1"/></g><g><path d="M2.2929766178131104,13.562641221244812C2.2929772743001102,13.877158221244812,2.5574556178131105,14.132128221244812,2.8837076178131102,14.132128221244812C3.2099596178131105,14.132128221244812,3.4744366178131103,13.877158221244812,3.4744366178131103,13.562641221244812C3.4744366178131103,13.248125221244813,3.2099596178131105,12.993158221244812,2.8837076178131102,12.993158221244812C2.5574556178131105,12.993158221244812,2.2929772743001102,13.248124221244812,2.2929766178131104,13.562641221244812Z" fill="#FFFFFF" fill-opacity="1"/></g><g><path d="M2.2929766178131104,11.569483C2.2929772743001102,11.884,2.5574556178131105,12.13897,2.8837076178131102,12.13897C3.2099596178131105,12.13897,3.4744366178131103,11.884,3.4744366178131103,11.569483C3.4744366178131103,11.254967,3.2099596178131105,11,2.8837076178131102,11C2.5574556178131105,11,2.2929772743001102,11.254966,2.2929766178131104,11.569483Z" fill="#FFFFFF" fill-opacity="1"/></g></g></svg>