<svg xmlns="http://www.w3.org/2000/svg" xmlns:xlink="http://www.w3.org/1999/xlink" fill="none" version="1.1" width="40" height="40" viewBox="0 0 40 40"><defs><clipPath id="master_svg0_144_72"><rect x="0" y="0" width="40" height="40" rx="0"/></clipPath><clipPath id="master_svg1_144_45"><rect x="10.99993896484375" y="13.25042724609375" width="18" height="18" rx="0"/></clipPath></defs><g clip-path="url(#master_svg0_144_72)"><g><path d="M7.777753984375,3.33331298828125C7.333303984375,3.33331298828125,6.888861984375,3.55553498828125,6.555528984375,3.88886898828125C6.222194984375,4.22220198828125,6.111083984375,4.66664298828125,6.111083984375,4.99998298828125L6.111083984375,35.00001298828125C6.111083984375,35.44441298828125,6.333305984375,35.88891298828125,6.555528984375,36.11111298828125C6.999972984375,36.44441298828125,7.333303984375,36.66661298828125,7.777753984375,36.66661298828125L32.222183984375,36.66661298828125C32.666683984375,36.66661298828125,33.111083984375,36.44441298828125,33.333283984375,36.11111298828125C33.666683984375,35.77771298828125,33.888883984375,35.33331298828125,33.888883984375,35.00001298828125L33.888883984375,12.77775298828125L24.444383984375,3.33331298828125L7.777753984375,3.33331298828125Z" fill="#6CCBFF" fill-opacity="1"/></g><g><path d="M33.8888980078125,12.77775298828125L26.1111280078125,12.77775298828125C25.6666780078125,12.77775298828125,25.2222370078125,12.66664298828125,25.0000140078125,12.33331298828125C24.6666810078125,11.99998298828125,24.4444580078125,11.55553298828125,24.4444580078125,11.11109298828125L24.4444580078125,3.33331298828125L33.8888980078125,12.77775298828125Z" fill="#C4EAFF" fill-opacity="1"/></g><g clip-path="url(#master_svg1_144_45)"><g><path d="M19.99993896484375,14.93792724609375C15.96793896484375,14.93792724609375,12.68743896484375,18.21842724609375,12.68743896484375,22.25042724609375C12.68743896484375,26.28242724609375,15.96793896484375,29.56292724609375,19.99993896484375,29.56292724609375C24.03193896484375,29.56292724609375,27.31243896484375,26.28242724609375,27.31243896484375,22.25042724609375C27.31243896484375,18.21842724609375,24.03193896484375,14.93792724609375,19.99993896484375,14.93792724609375ZM19.99993896484375,28.43792724609375C16.58837896484375,28.43792724609375,13.81243896484375,25.66202724609375,13.81243896484375,22.25042724609375C13.81243896484375,18.83886724609375,16.58837896484375,16.06292724609375,19.99993896484375,16.06292724609375C23.41153896484375,16.06292724609375,26.18743896484375,18.83886724609375,26.18743896484375,22.25042724609375C26.18743896484375,25.66202724609375,23.41153896484375,28.43792724609375,19.99993896484375,28.43792724609375Z" fill="#FFFFFF" fill-opacity="1"/></g><g><path d="M19.20568896484375,18.96268157421875C19.03456396484375,18.83828227421875,18.80811096484375,18.82042307421875,18.61960096484375,18.91645847421875C18.43111996484375,19.01244657421875,18.31243896484375,19.20613357421875,18.31243896484375,19.41774357421875L18.31243896484375,25.39037357421875C18.31262081884375,25.60183357421875,18.43138396484375,25.79532357421875,18.61985196484375,25.89122357421875C18.80831896484375,25.98711357421875,19.03464596484375,25.96921357421875,19.20568896484375,25.84487357421875L23.31193896484375,22.85855357421875C23.62107896484375,22.63393357421875,23.62107896484375,22.17305357421875,23.31193896484375,21.94843357421875L19.20568896484375,18.96268157421875Z" fill="#FFFFFF" fill-opacity="1"/></g></g></g></svg>