<svg xmlns="http://www.w3.org/2000/svg" xmlns:xlink="http://www.w3.org/1999/xlink" fill="none" version="1.1" width="28" height="28" viewBox="0 0 28 28"><defs><clipPath id="master_svg0_54_5"><rect x="0" y="0" width="28" height="28" rx="0"/></clipPath></defs><g clip-path="url(#master_svg0_54_5)"><g><path d="M5.451249706085205,15.661647276306152C5.683351706085205,15.661847276306153,5.905981706085205,15.569647276306153,6.069871706085205,15.405247276306152L14.112871706085205,7.362247276306152L21.925791706085207,15.175127276306153C22.267391706085206,15.516747276306152,22.821391706085205,15.516747276306152,23.162991706085204,15.175117276306151C23.504691706085204,14.833467276306152,23.504691706085204,14.279527276306153,23.162991706085204,13.937877276306152L14.731491706085205,5.506373276306152C14.389711706085205,5.164205576306152,13.835161706085206,5.164205576306152,13.493371706085204,5.506373276306152L4.831749706085205,14.167997276306153C4.580565456085205,14.418047276306153,4.505228006085205,14.795017276306153,4.641013606085205,15.122397276306152C4.776798706085205,15.449747276306152,5.096828706085205,15.662747276306153,5.451249706085205,15.661647276306152Z" fill="#09BB07" fill-opacity="1"/></g><g><path d="M14.732381275939941,12.506375183654786C14.390591275939942,12.164207483654785,13.836041275939941,12.164207483654785,13.494251275939941,12.506375183654786L4.832625275939941,21.167999183654786C4.490684075939941,21.509609183654785,4.490549075939941,22.063779183654788,4.832324275939941,22.405549183654784C5.174098275939942,22.747349183654784,5.7282712759399415,22.747149183654784,6.069871275939941,22.405249183654785L14.112871275939941,14.362249183654786L21.92578127593994,22.175119183654786C22.26728127593994,22.517249183654783,22.82168127593994,22.517449183654783,23.16348127593994,22.175599183654786C23.505281275939943,21.833759183654784,23.50508127593994,21.279449183654783,23.16298127593994,20.937869183654783L14.732381275939941,12.506375183654786Z" fill="#09BB07" fill-opacity="1"/></g></g></svg>