<?xml version="1.0" encoding="utf-8"?>
<!-- Generator: Adobe Illustrator 21.0.0, SVG Export Plug-In . SVG Version: 6.00 Build 0)  -->
<svg version="1.1" id="图层_1" xmlns="http://www.w3.org/2000/svg" xmlns:xlink="http://www.w3.org/1999/xlink" x="0px" y="0px"
	 viewBox="0 0 24 24" style="enable-background:new 0 0 24 24;" xml:space="preserve">
<style type="text/css">
	.st0{fill:#333333;}
	.st1{fill:#FFA800;}
	.st2{fill:#A7AAAB;}
</style>
<path class="st0" d="M19,5c0.8,0,1.5,0.7,1.5,1.5v11c0,0.8-0.7,1.5-1.5,1.5H5c-0.8,0-1.5-0.7-1.5-1.5v-11C3.5,5.7,4.2,5,5,5
	C5,5,19,5,19,5z M19,6.5H5v11h14C19,17.5,19,6.5,19,6.5z M17.3,8.7v1.5c-2.4,0-3.8,0.7-4.5,2.2l-0.1,0.1l-0.1,0.1
	c-1,2.2-3,3.3-5.8,3.3v-1.5c2.3,0,3.7-0.8,4.5-2.4l0.1-0.1l0.1-0.1C12.4,9.7,14.4,8.7,17.3,8.7z M8,8.3c0.6,0,1,0.4,1,1s-0.4,1-1,1
	s-1-0.4-1-1S7.5,8.3,8,8.3z"/>
</svg>
