<svg xmlns="http://www.w3.org/2000/svg" xmlns:xlink="http://www.w3.org/1999/xlink" fill="none" version="1.1" width="24" height="24" viewBox="0 0 24 24"><defs><clipPath id="master_svg0_76_981"><rect x="0" y="0" width="24" height="24" rx="0"/></clipPath></defs><g clip-path="url(#master_svg0_76_981)"><g><path d="M16,4.352943420410156C16.941200000000002,4.352943420410156,17.764699999999998,5.176472420410156,17.764699999999998,6.117653420410156L17.764699999999998,7.058823420410157L19.1765,6.000003420410156C20,5.411763420410156,21.0588,5.529413420410156,21.6471,6.352943420410156C21.8824,6.7058834204101565,22,7.058823420410157,22,7.411763420410156L22,16.705843420410154C22,17.647043420410157,21.1765,18.470543420410156,20.2353,18.470543420410156C19.8824,18.470543420410156,19.4118,18.352943420410156,19.1765,18.117643420410154L17.764699999999998,17.058843420410156L17.764699999999998,17.88234342041016C17.764699999999998,18.823543420410154,16.941200000000002,19.647043420410157,16,19.647043420410157L3.76471,19.647043420410157C2.8235289999999997,19.647043420410157,2,18.823543420410154,2,17.88234342041016L2,6.117653420410156C2,5.176472420410156,2.8235289999999997,4.352943420410156,3.76471,4.352943420410156L16,4.352943420410156ZM16,6.117653420410156L3.76471,6.117653420410156L3.76471,17.88234342041016L16,17.88234342041016L16,13.529413420410156L20.2353,16.705843420410154L20.2353,7.411763420410156L16,10.705883420410157L16,6.117653420410156Z" fill="#333333" fill-opacity="1"/></g></g></svg>